<mxfile host="app.diagrams.net" modified="2023-09-26T17:49:38.055Z" agent="Mozilla/5.0 (Windows NT 10.0; Win64; x64) AppleWebKit/537.36 (KHTML, like Gecko) Chrome/117.0.0.0 Safari/537.36 Edg/117.0.2045.41" etag="mhpXqo250eLB8Ved2oAy" version="21.7.5" type="device">
  <diagram name="Page-1" id="5Tedk2FtwutRMUydq-YW">
    <mxGraphModel dx="1489" dy="1019" grid="1" gridSize="10" guides="1" tooltips="1" connect="1" arrows="1" fold="1" page="1" pageScale="1" pageWidth="4681" pageHeight="3300" math="0" shadow="0">
      <root>
        <mxCell id="0" />
        <mxCell id="1" parent="0" />
        <mxCell id="CaZW2Dd4cFp9OG85ohZh-24" value="" style="rounded=0;whiteSpace=wrap;html=1;arcSize=6;strokeColor=#A680B8;" vertex="1" parent="1">
          <mxGeometry x="600" y="440" width="600" height="280" as="geometry" />
        </mxCell>
        <mxCell id="CaZW2Dd4cFp9OG85ohZh-1" value="&lt;font style=&quot;font-size: 17px;&quot;&gt;&amp;nbsp;Website&lt;/font&gt;" style="rounded=1;whiteSpace=wrap;html=1;strokeColor=#d6b656;align=left;horizontal=1;labelBorderColor=none;labelBackgroundColor=none;fillColor=#fff2cc;" vertex="1" parent="1">
          <mxGeometry x="360" y="450" width="190" height="60" as="geometry" />
        </mxCell>
        <mxCell id="CaZW2Dd4cFp9OG85ohZh-2" value="" style="shape=image;verticalLabelPosition=bottom;labelBackgroundColor=default;verticalAlign=top;aspect=fixed;imageAspect=0;image=https://devblogs.microsoft.com/aspnet/wp-content/uploads/sites/16/2019/04/BrandBlazor_nohalo_1000x.png;" vertex="1" parent="1">
          <mxGeometry x="480" y="460" width="40" height="40" as="geometry" />
        </mxCell>
        <mxCell id="CaZW2Dd4cFp9OG85ohZh-23" style="rounded=0;orthogonalLoop=1;jettySize=auto;html=1;exitX=1;exitY=0.5;exitDx=0;exitDy=0;entryX=0;entryY=0.75;entryDx=0;entryDy=0;fillColor=#dae8fc;strokeColor=#6c8ebf;" edge="1" parent="1" source="CaZW2Dd4cFp9OG85ohZh-3" target="CaZW2Dd4cFp9OG85ohZh-18">
          <mxGeometry relative="1" as="geometry" />
        </mxCell>
        <mxCell id="CaZW2Dd4cFp9OG85ohZh-3" value="&lt;font style=&quot;font-size: 17px;&quot;&gt;&amp;nbsp;CMS&lt;/font&gt;" style="rounded=1;whiteSpace=wrap;html=1;strokeColor=#d6b656;align=left;horizontal=1;labelBorderColor=none;labelBackgroundColor=none;fillColor=#fff2cc;" vertex="1" parent="1">
          <mxGeometry x="360" y="570" width="190" height="60" as="geometry" />
        </mxCell>
        <mxCell id="CaZW2Dd4cFp9OG85ohZh-6" value="" style="shape=image;verticalLabelPosition=bottom;labelBackgroundColor=default;verticalAlign=top;aspect=fixed;imageAspect=0;image=https://res.cloudinary.com/practicaldev/image/fetch/s--RpUfSAFP--/c_imagga_scale,f_auto,fl_progressive,h_1080,q_auto,w_1080/https://dev-to-uploads.s3.amazonaws.com/uploads/articles/8otweo5ef6kwc26rmxe5.png;" vertex="1" parent="1">
          <mxGeometry x="480" y="580" width="40" height="40" as="geometry" />
        </mxCell>
        <mxCell id="CaZW2Dd4cFp9OG85ohZh-17" style="edgeStyle=orthogonalEdgeStyle;rounded=0;orthogonalLoop=1;jettySize=auto;html=1;exitX=1;exitY=0.5;exitDx=0;exitDy=0;entryX=0;entryY=0.5;entryDx=0;entryDy=0;fillColor=#dae8fc;strokeColor=#6c8ebf;" edge="1" parent="1" source="CaZW2Dd4cFp9OG85ohZh-7" target="CaZW2Dd4cFp9OG85ohZh-13">
          <mxGeometry relative="1" as="geometry" />
        </mxCell>
        <mxCell id="CaZW2Dd4cFp9OG85ohZh-7" value="&lt;font style=&quot;font-size: 17px;&quot;&gt;&amp;nbsp;Driver App&lt;/font&gt;" style="rounded=1;whiteSpace=wrap;html=1;strokeColor=#d6b656;align=left;horizontal=1;labelBorderColor=none;labelBackgroundColor=none;fillColor=#fff2cc;" vertex="1" parent="1">
          <mxGeometry x="360" y="900" width="190" height="60" as="geometry" />
        </mxCell>
        <mxCell id="CaZW2Dd4cFp9OG85ohZh-9" value="" style="shape=image;verticalLabelPosition=bottom;labelBackgroundColor=default;verticalAlign=top;aspect=fixed;imageAspect=0;image=https://static-00.iconduck.com/assets.00/flutter-icon-1651x2048-ojswpayr.png;" vertex="1" parent="1">
          <mxGeometry x="483.88" y="910" width="32.23" height="40" as="geometry" />
        </mxCell>
        <mxCell id="CaZW2Dd4cFp9OG85ohZh-10" value="2" style="ellipse;whiteSpace=wrap;html=1;aspect=fixed;" vertex="1" parent="1">
          <mxGeometry x="530" y="440" width="30" height="30" as="geometry" />
        </mxCell>
        <mxCell id="CaZW2Dd4cFp9OG85ohZh-11" value="3" style="ellipse;whiteSpace=wrap;html=1;aspect=fixed;" vertex="1" parent="1">
          <mxGeometry x="530" y="560" width="30" height="30" as="geometry" />
        </mxCell>
        <mxCell id="CaZW2Dd4cFp9OG85ohZh-12" value="6" style="ellipse;whiteSpace=wrap;html=1;aspect=fixed;" vertex="1" parent="1">
          <mxGeometry x="530" y="890" width="30" height="30" as="geometry" />
        </mxCell>
        <mxCell id="CaZW2Dd4cFp9OG85ohZh-21" style="edgeStyle=orthogonalEdgeStyle;rounded=0;orthogonalLoop=1;jettySize=auto;html=1;exitX=0.5;exitY=0;exitDx=0;exitDy=0;fillColor=#dae8fc;strokeColor=#6c8ebf;" edge="1" parent="1" source="CaZW2Dd4cFp9OG85ohZh-13" target="CaZW2Dd4cFp9OG85ohZh-18">
          <mxGeometry relative="1" as="geometry" />
        </mxCell>
        <mxCell id="CaZW2Dd4cFp9OG85ohZh-13" value="&lt;font style=&quot;font-size: 17px;&quot;&gt;&amp;nbsp; MQTT Broker&lt;/font&gt;" style="rounded=1;whiteSpace=wrap;html=1;align=left;fillColor=#ffe6cc;strokeColor=#d79b00;" vertex="1" parent="1">
          <mxGeometry x="650" y="900" width="190" height="60" as="geometry" />
        </mxCell>
        <mxCell id="CaZW2Dd4cFp9OG85ohZh-15" value="" style="shape=image;verticalLabelPosition=bottom;labelBackgroundColor=default;verticalAlign=top;aspect=fixed;imageAspect=0;image=data:image/svg+xml,PHN2ZyB4bWxuczp4bGluaz0iaHR0cDovL3d3dy53My5vcmcvMTk5OS94bGluayIgeG1sbnM9Imh0dHA6Ly93d3cudzMub3JnLzIwMDAvc3ZnIiB2ZXJzaW9uPSIxLjEiIHZpZXdCb3g9IjAgMCAzMjAgMzIwIiBoZWlnaHQ9IjMyMHB4IiB3aWR0aD0iMzIwcHgiPiYjeGE7ICAgIDx0aXRsZT4zMjDlpIfku708L3RpdGxlPiYjeGE7ICAgIDxnIGZpbGwtcnVsZT0iZXZlbm9kZCIgZmlsbD0ibm9uZSIgc3Ryb2tlLXdpZHRoPSIxIiBzdHJva2U9Im5vbmUiIGlkPSIzMjDlpIfku70iPiYjeGE7ICAgICAgICA8ZyBmaWxsPSIjMDBCMTczIiB0cmFuc2Zvcm09InRyYW5zbGF0ZSg0MC4wMDAwMDAsIDIyLjAwMDAwMCkiIGlkPSLnvJbnu4QtMuWkh+S7vS0xNyI+JiN4YTsgICAgICAgICAgICA8ZyB0cmFuc2Zvcm09InRyYW5zbGF0ZSg0MS40MjQ3MjUsIDg1LjA4NjgzOSkiIGlkPSLnvJbnu4QiPiYjeGE7ICAgICAgICAgICAgICAgIDxwYXRoIGlkPSJGaWxsLTQiIGQ9Ik0xMzMuMzc0ODI2LDAgTDMxLjA3MTMyMjcsMCBMMzEuMDcxMzIyNywwLjAyMTI3OTg0NjYgQzMwLjkyOTA1ODYsMC4wMTQ4OTU4OTI2IDMwLjc4ODkyODUsMCAzMC42NDU5NTMyLDAgQzI1LjMzNTIzNjEsMCAyMS4wMzAzMjU4LDQuMjkyODU0MzggMjEuMDMwMzI1OCw5LjU4ODY5ODg3IEMyMS4wMzAzMjU4LDE0Ljg4MzgzNCAyNS4zMzUyMzYxLDE5LjE3NjY4ODQgMzAuNjQ1OTUzMiwxOS4xNzY2ODg0IEMzMC43ODg5Mjg1LDE5LjE3NjY4ODQgMzAuOTI5MDU4NiwxOS4xNjE3OTI1IDMxLjA3MTMyMjcsMTkuMTU1NDA4NiBMMzEuMDcxMzIyNywxOS4xNzY2ODg0IEwxMzMuMzc0ODI2LDE5LjE3NjY4ODQgQzEzOC42ODQ4MzEsMTkuMTc2Njg4NCAxNDIuOTkwNDUzLDE0Ljg4MzgzNCAxNDIuOTkwNDUzLDkuNTg4Njk4ODcgQzE0Mi45OTA0NTMsNC4yOTI4NTQzOCAxMzguNjg0ODMxLDAgMTMzLjM3NDgyNiwwIi8+JiN4YTsgICAgICAgICAgICAgICAgPHBhdGggaWQ9IkZpbGwtNiIgZD0iTTEzMy4zNzQ4MjYsOTEuMzM5ODQwMiBMMzEuMDcxMzIyNyw5MS4zMzk4NDAyIEwzMS4wNzEzMjI3LDkxLjM2MDQxMDcgQzMwLjkyOTA1ODYsOTEuMzU0NzM2IDMwLjc4ODkyODUsOTEuMzM5ODQwMiAzMC42NDU5NTMyLDkxLjMzOTg0MDIgQzI1LjMzNTIzNjEsOTEuMzM5ODQwMiAyMS4wMzAzMjU4LDk1LjYzMjY5NDUgMjEuMDMwMzI1OCwxMDAuOTI4NTM5IEMyMS4wMzAzMjU4LDEwNi4yMjI5NjUgMjUuMzM1MjM2MSwxMTAuNTE1ODE5IDMwLjY0NTk1MzIsMTEwLjUxNTgxOSBDMzAuNzg4OTI4NSwxMTAuNTE1ODE5IDMwLjkyOTA1ODYsMTEwLjUwMTYzMyAzMS4wNzEzMjI3LDExMC40OTUyNDkgTDMxLjA3MTMyMjcsMTEwLjUxNTgxOSBMMTMzLjM3NDgyNiwxMTAuNTE1ODE5IEMxMzguNjg0ODMxLDExMC41MTU4MTkgMTQyLjk5MDQ1MywxMDYuMjIyOTY1IDE0Mi45OTA0NTMsMTAwLjkyODUzOSBDMTQyLjk5MDQ1Myw5NS42MzI2OTQ1IDEzOC42ODQ4MzEsOTEuMzM5ODQwMiAxMzMuMzc0ODI2LDkxLjMzOTg0MDIiLz4mI3hhOyAgICAgICAgICAgICAgICA8cGF0aCBpZD0iRmlsbC04IiBkPSJNMTA2LjQ5ODg3LDU1LjI1ODI5OTcgQzEwNi40OTg4Nyw1MC4yNTgyNDUxIDEwMi42NTkxNjMsNDYuMTU2OTA5NCA5Ny43NjAzMDA0LDQ1LjcxMzU3OTIgTDk3Ljc2MDMwMDQsNDUuNjY5NjAwOSBMMTAuMDQwOTk2OCw0NS42Njk2MDA5IEwxMC4wNDA5OTY4LDQ1LjY5MDg4MDcgQzkuODk4NzMyNzgsNDUuNjg1MjA2MSA5Ljc1OTMxNDAxLDQ1LjY2OTYwMDkgOS42MTU2MjczMiw0NS42Njk2MDA5IEM0LjMwNDkxMDIzLDQ1LjY2OTYwMDkgMCw0OS45NjI0NTUzIDAsNTUuMjU4Mjk5NyBDMCw2MC41NTQxNDQyIDQuMzA0OTEwMjMsNjQuODQ2OTk4NiA5LjYxNTYyNzMyLDY0Ljg0Njk5ODYgQzkuNzU5MzE0MDEsNjQuODQ2OTk4NiA5Ljg5ODczMjc4LDY0LjgzMTM5MzQgMTAuMDQwOTk2OCw2NC44MjUwMDk0IEwxMC4wNDA5OTY4LDY0Ljg0Njk5ODYgTDk3Ljc2MDMwMDQsNjQuODQ2OTk4NiBMOTcuNzYwMzAwNCw2NC44MDIzMTA5IEMxMDIuNjU5MTYzLDY0LjM1OTY5MDEgMTA2LjQ5ODg3LDYwLjI1ODM1NDQgMTA2LjQ5ODg3LDU1LjI1ODI5OTciLz4mI3hhOyAgICAgICAgICAgIDwvZz4mI3hhOyAgICAgICAgICAgIDxwYXRoIGZpbGwtcnVsZT0ibm9uemVybyIgaWQ9IuWkmui+ueW9oiIgZD0iTTI0MCw2OS4yNSBMMTIwLDAgTDAsNjkuMjUgTDAsMjA3Ljc1IEwxMjAsMjc3IEwyNDAsMjA3Ljc1IEwyNDAsNjkuMjUgWiBNMTIwLDIwLjcxMTUyODggTDIyMi4wNDg1MTIsNzkuNjA1NzY0NCBMMjIyLjA0ODUxMiwxOTcuMzgxNDIxIEwxMjAsMjU2LjI3NTY1NyBMMTcuOTM4NjY3NSwxOTcuMzgxNDIxIEwxNy45Mzg2Njc1LDc5LjYwNTc2NDQgTDEyMCwyMC43MTE1Mjg4IFoiLz4mI3hhOyAgICAgICAgPC9nPiYjeGE7ICAgIDwvZz4mI3hhOzwvc3ZnPg==;" vertex="1" parent="1">
          <mxGeometry x="780.0799999999999" y="910" width="40" height="40" as="geometry" />
        </mxCell>
        <mxCell id="CaZW2Dd4cFp9OG85ohZh-26" style="edgeStyle=orthogonalEdgeStyle;rounded=0;orthogonalLoop=1;jettySize=auto;html=1;exitX=1;exitY=0.5;exitDx=0;exitDy=0;entryX=0;entryY=0.5;entryDx=0;entryDy=0;fillColor=#dae8fc;strokeColor=#6c8ebf;" edge="1" parent="1" source="CaZW2Dd4cFp9OG85ohZh-18" target="CaZW2Dd4cFp9OG85ohZh-25">
          <mxGeometry relative="1" as="geometry" />
        </mxCell>
        <mxCell id="CaZW2Dd4cFp9OG85ohZh-18" value="&lt;font style=&quot;font-size: 17px;&quot;&gt;&amp;nbsp; Proxy&lt;/font&gt;" style="rounded=1;whiteSpace=wrap;html=1;align=left;fillColor=#ffe6cc;strokeColor=#d79b00;" vertex="1" parent="1">
          <mxGeometry x="650" y="530" width="190" height="60" as="geometry" />
        </mxCell>
        <mxCell id="CaZW2Dd4cFp9OG85ohZh-20" value="" style="shape=image;verticalLabelPosition=bottom;labelBackgroundColor=default;verticalAlign=top;aspect=fixed;imageAspect=0;image=https://user-images.githubusercontent.com/5338052/155014551-2e411b97-211a-4540-b98e-ceba2b6893d6.png;" vertex="1" parent="1">
          <mxGeometry x="765.0400000000001" y="540" width="70.08" height="40" as="geometry" />
        </mxCell>
        <mxCell id="CaZW2Dd4cFp9OG85ohZh-22" style="rounded=0;orthogonalLoop=1;jettySize=auto;html=1;exitX=1;exitY=0.5;exitDx=0;exitDy=0;entryX=0;entryY=0.25;entryDx=0;entryDy=0;fillColor=#dae8fc;strokeColor=#6c8ebf;" edge="1" parent="1" source="CaZW2Dd4cFp9OG85ohZh-1" target="CaZW2Dd4cFp9OG85ohZh-18">
          <mxGeometry relative="1" as="geometry" />
        </mxCell>
        <mxCell id="CaZW2Dd4cFp9OG85ohZh-33" style="edgeStyle=orthogonalEdgeStyle;rounded=0;orthogonalLoop=1;jettySize=auto;html=1;exitX=1;exitY=0.5;exitDx=0;exitDy=0;fillColor=#dae8fc;strokeColor=#6c8ebf;" edge="1" parent="1" source="CaZW2Dd4cFp9OG85ohZh-25" target="CaZW2Dd4cFp9OG85ohZh-31">
          <mxGeometry relative="1" as="geometry" />
        </mxCell>
        <mxCell id="CaZW2Dd4cFp9OG85ohZh-49" style="edgeStyle=orthogonalEdgeStyle;rounded=0;orthogonalLoop=1;jettySize=auto;html=1;exitX=0.5;exitY=1;exitDx=0;exitDy=0;entryX=0;entryY=0.5;entryDx=0;entryDy=0;fillColor=#dae8fc;strokeColor=#6c8ebf;" edge="1" parent="1" source="CaZW2Dd4cFp9OG85ohZh-25" target="CaZW2Dd4cFp9OG85ohZh-41">
          <mxGeometry relative="1" as="geometry" />
        </mxCell>
        <mxCell id="CaZW2Dd4cFp9OG85ohZh-77" style="edgeStyle=orthogonalEdgeStyle;rounded=0;orthogonalLoop=1;jettySize=auto;html=1;exitX=0;exitY=0.75;exitDx=0;exitDy=0;entryX=0.5;entryY=0;entryDx=0;entryDy=0;fillColor=#dae8fc;strokeColor=#6c8ebf;" edge="1" parent="1" source="CaZW2Dd4cFp9OG85ohZh-25" target="CaZW2Dd4cFp9OG85ohZh-75">
          <mxGeometry relative="1" as="geometry" />
        </mxCell>
        <mxCell id="CaZW2Dd4cFp9OG85ohZh-25" value="&lt;font style=&quot;font-size: 17px;&quot;&gt;&amp;nbsp; API&lt;/font&gt;" style="rounded=1;whiteSpace=wrap;html=1;align=left;fillColor=#ffe6cc;strokeColor=#d79b00;" vertex="1" parent="1">
          <mxGeometry x="960" y="530" width="190" height="60" as="geometry" />
        </mxCell>
        <mxCell id="CaZW2Dd4cFp9OG85ohZh-27" value="7" style="ellipse;whiteSpace=wrap;html=1;aspect=fixed;" vertex="1" parent="1">
          <mxGeometry x="820.0799999999999" y="520" width="30" height="30" as="geometry" />
        </mxCell>
        <mxCell id="CaZW2Dd4cFp9OG85ohZh-28" value="9" style="ellipse;whiteSpace=wrap;html=1;aspect=fixed;" vertex="1" parent="1">
          <mxGeometry x="1130" y="520" width="30" height="30" as="geometry" />
        </mxCell>
        <mxCell id="CaZW2Dd4cFp9OG85ohZh-29" value="8" style="ellipse;whiteSpace=wrap;html=1;aspect=fixed;" vertex="1" parent="1">
          <mxGeometry x="820.0799999999999" y="890" width="30" height="30" as="geometry" />
        </mxCell>
        <mxCell id="CaZW2Dd4cFp9OG85ohZh-30" value="" style="shape=image;verticalLabelPosition=bottom;labelBackgroundColor=default;verticalAlign=top;aspect=fixed;imageAspect=0;image=https://upload.wikimedia.org/wikipedia/commons/thumb/e/ee/.NET_Core_Logo.svg/1200px-.NET_Core_Logo.svg.png;" vertex="1" parent="1">
          <mxGeometry x="1090" y="540" width="40" height="40" as="geometry" />
        </mxCell>
        <mxCell id="CaZW2Dd4cFp9OG85ohZh-31" value="" style="rounded=0;whiteSpace=wrap;html=1;strokeColor=#7EA6E0;" vertex="1" parent="1">
          <mxGeometry x="1240" y="480" width="240" height="160" as="geometry" />
        </mxCell>
        <mxCell id="CaZW2Dd4cFp9OG85ohZh-34" value="" style="shape=cylinder3;whiteSpace=wrap;html=1;boundedLbl=1;backgroundOutline=1;size=15;fillColor=#dae8fc;strokeColor=#6c8ebf;" vertex="1" parent="1">
          <mxGeometry x="1270" y="560" width="50" height="70" as="geometry" />
        </mxCell>
        <mxCell id="CaZW2Dd4cFp9OG85ohZh-35" value="" style="shape=cylinder3;whiteSpace=wrap;html=1;boundedLbl=1;backgroundOutline=1;size=15;fillColor=#dae8fc;strokeColor=#6c8ebf;" vertex="1" parent="1">
          <mxGeometry x="1335" y="560" width="50" height="70" as="geometry" />
        </mxCell>
        <mxCell id="CaZW2Dd4cFp9OG85ohZh-36" value="" style="shape=cylinder3;whiteSpace=wrap;html=1;boundedLbl=1;backgroundOutline=1;size=15;fillColor=#dae8fc;strokeColor=#6c8ebf;" vertex="1" parent="1">
          <mxGeometry x="1400" y="560" width="50" height="70" as="geometry" />
        </mxCell>
        <mxCell id="CaZW2Dd4cFp9OG85ohZh-39" value="" style="shape=image;verticalLabelPosition=bottom;labelBackgroundColor=default;verticalAlign=top;aspect=fixed;imageAspect=0;image=data:image/png,iVBORw0KGgoAAAANSUhEUgAAAmIAAAEYCAYAAAD/B5rcAAAACXBIWXMAAAsTAAALEwEAmpwYAAAgAElEQVR4nOy9d5gcZ5W+fVd17p6cJM1IGkmjaEUr2JJlIds4B4J/LGnJJixgwCSzyy673uVjgWVZwIAXDCzGGAzGYCNn4yArWVaOVhxJozSjybF7uru66vvj7bFGXdWTp2dGPvd19SX7faurq7p7qp4+57zP0SzLQhAEQRAEQcg8+kgfgCAIgiAIwpsVEWKCIAiCIAgjhAgxQRAEQRCEEUKEmCAIgiAIwgghQkwQBEEQBGGEECEmCIIgCIIwQogQEwRBEARBGCFEiAmCIAiCIIwQIsQEQRAEQRBGCBFigiAIgiAII4QIMUEQBEEQhBFChJggCIIgCMIIIUJMEARBEARhhBAhJgiCIAiCMEKIEBMEQRAEQRghRIgJgiAIgiCMECLEBEEQBEEQRggRYoIgCIIgCCOECDFBEARBEIQRQoSYIAiCIAjCCCFCTBAEQRAEYYQQISYIgiAIgjBCiBATBEEQBEEYIUSICYIgCIIgjBAixARBEARBEEYIEWKCIAiCIAgjhAgxQRAEQRCEEUKEmCAIgiAIwgghQkwQBEEQBGGEECEmCIIgCIIwQogQEwRBEARBGCFEiAmCIAiCIIwQIsQEQRAEQRBGCBFigiAIgiAII4QIMUEQBEEQhBFChJggCIIgCMIIoY30AQijDi+QA+QCBUApUA4UAlndHtnJbTtTHlGgGTgGnABqgabkWBSwMnYmg8SyxsyhCoIgCGMU90gfgDBiuIHxQAUwO/nvHKAMKEIJr+AQvE4caADqk4+9wK7k4xhKoAmCIAjCmxKJiI0MGiqqlI+KPAUBH+Dp9m8n0ApEgFjy3yaghYFFlQLAXGAFsDD5mA7kDeI8BoMJnAKOADuBDcBmVARtVCARMUEQBGG4GS1CzA9M4HyEpgQlEIpR0ZkQSqD4UZEcA5XmigEdQA0q2tIE1AHnkv/dBlQn/x0pAsBUYBYwP/koR51f18PTw/NN1HmGUefUhDqnKlRE6XVUCvBUcpsudGAasBy4CliJEl6jOQp6DngNeAp4Fjg5kgcjQkwQBEEYbkZCiGnAJOASYBlwGUogjENFh4ZqAYGBiiLVo4TK68BR4BDqBn+G4UuLTUQJoOuBVcAUlIgcLjqAs6i03yuoaNp7gMtRInYs0gK8DPwBeJoRENMixARBEIThJlNCTEcJrxuAW1BpsYIMvbYTEVT05SCwNfl4HRVlMga4zxzU+X0QFX0ayfO72KgEHgQeQkUBM4IIMUEQBGG4GW4hNh54L/B3wGKGNyo0WFqBw8BuVL3SJpQASPTyvGnAx4F3o9KqYxqPx0N2djb5+flmfn6+Pm7cOPLy8ozs7GwjFArpXq/X4/P5NMuyiMfjlmVZ8UQiETcMw4hEIvFTp06FT5065Y/H4+6amhqjubk5YJqmC/VdCwzy8FqB3wM/REU2hxURYoIgCMJwM1xCbAFKnLwHVe81FgmjUn3rUSmyLag0ZxflwBeAjzJyBe8DxufzUVZWxvTp05k1axYVFRXMmjWLcePGUVBQQHFxsRUMBru+H1byoWH/zlioOrY3/jtJ25kzZ4yamhpPa2tr/fbt2xsPHz7Mli1bQidPnsxta2vLQy1S8A7g8DuA3wHfZRgjZCLEBEEQhOFmqIVYOfCPwEcYuuhX191Q0zQNt9uNx6Nq2w3DIJFIkEj0FrQaEmpQ9VdrUDVtX2Dg6UcD0Nxut15YWBjLy8vTsrKyvIWFhXi93jcebrebSCRCW1sbbW1thMNhOjo6aGxspKWlpV/nnZWVxYIFC7jiiiu49NJLmTt3LtOnTycUylgJmUVy5efhw4dbjh8/3rZly5aWTZs2hTdu3Dipra1tKv1/PxuB7wP3Au1DfLwixARBEIRhZ6iEWBZwF/BFBiZOEoBVUlISnTBhgqe8vDw6c+ZMd2FhYaCkpMQsLS018vPzPW63W+sSYpqmYRjGG4/GxkbOnj1LbW0tjY2NNDQ0UFNTw7lz56iurqampiZTgs2JSDAYbJo5c6a+aNGi6MyZM91LlizxjRs3rrCoqChaWFio+Xw+n6b1/HFYlkV7ezsNDQ00NTXR0tLC3r17qaqq4ujRo5w4cYKzZ89SV1eHpmnMmDGDVatWcdVVV7FixQqmTp2Kro+qZgoGUFtVVXVi27ZtR9esWdO5du3a6SdPnrwUZe3RVw4CX0GtthwyRIgJgiAIw81QCLGlwM+AJf14TgJoqKioiCxbtsxYsmSJtmLFipypU6cGi4uL3R6Pp6umaNCqoUuknTlzhkOHDr3xOHLkCMeOHaOxsXGwL5GO+kmTJp1ZuXJl+IYbbrBWrlxZMnXq1HFut9uLSscNeVo4FotRV1fH4cOHcblcLFmyJJMRr6HgXEtLy56HH35438MPP+zfsGHDlaZpzqPv79XPgH9BGcgOGhFigiAIwnAzGDGgAZ8Hvolqd9Mblsvlqpo3b171Lbfc0n7TTTflLlq0aHJWVlYuKo2ZUSsNwzCorq5m3759bNmyha1bt7J//35OnjyJaZq978CZRFZW1oHVq1cf/vjHP87q1atn5+fnT0ZFDIW+YxqGsX/v3r3rfvGLX9Q/9NBDK9va2lbTs99aF4eBTwFrB3sQIsQEQRCE4Wag4icL+Dnw/j5sG83Pz9+xevXqPXfeeWfeqlWrlnm93okMrEh7WGlpaeHAgQOsW7eOF198kR07dlBfX9/7E5PccMMN5+69996dM2fOXIgyqB0zWBa0RaLUNrXT0NxBQ2uEhtYwdc0dNLd30hmNE4nGCSf/BfB53Hg9LrxuF16Pm+yQj/EFWZTkhSjKC1GUG6I4N0RhXhC9l7RrD5yurKx8/Hvf+97Jhx9++K2tra3X0XukNAr8M6p+bMCIEBMEQRCGm4HcHYtQK9au72U7My8v79k77rhj+5133jlvypQpKxljKyjPnj3L1q1bef7553nuuec4duyY48156dKlfP3rX+e2227D7R7NxvUXUtvUzuPrX+dgVR21TR3Ut7RT3xImGjMwEiZGQkUGNU1D05JfFk274EtjWWAl11NYlhIvuq7hcem43S7ysvyUFeUwa3IxMycVMXtyCVNK88nL6vdajrMHDx787Y9//OPqBx544EPhcHhxH57zW+BOlO1FvxEhJgiCIAw3/RVik4BHUW74adF1fecXvvCFR77whS9MLC8vfx+DMDeNRA3CnTHC0RhxwyRhmsTiCSzA43bh0jU8Lhchv4eg30vA52HgwZf0dHR0sHnzZp566imefPJJjhw5Qn5+Pt/4xjf4zGc+g8/n69f+4kaC2qYOqhtaqW3uoK6pg6a2SFIEJYgZJpZlEfC5Cfi8eD3qHEsKshlfkEVBdoC87AC5oYEvTo3GE6zdWcnDf9vNhj1VJEyTnJAPXdNBG1yuWGkYi4RpEjdMDNNC18DvdVOYE+KSKSVcPncSV8wrZ1ppPr0tVOjGvs2bN//q61//es7LL7/8OdQPg57YgPKyO9P/cxAhJgiCIAwv/bnXFqH6//VUlB9bsWLFvT/72c9OLliw4PMom4c+ETcSnK5r5fDJeo5VN3K6tplT51poCUfpiMTo6IwSiydImFY3Qwt1Al6Pm6yAh1DAR1bQR0FWgIKcAPk5AUqLcpheVsi4/CyK80P4PIOPWLW1tbF27VoqKiq45JJL+vScWDzB0dMNvHbgFK8fP8ex6iaq69toC3eSMC2MhIlpWcqoS0ueHIBlnTfx0pKRJpeO3+umICdIaVEOFWUFTJtQwNypJUwrLSQr2P+s77aDp/n5X7ewcU8VlgYB7/BE9iwLjIRJzDAwTYu8LD8LKiZw7dLpXLOkgnEFfS6n+9P999//+D/90z99pLGx8bpett2LMtw92L9jFSEmCIIgDC99FWJeVCTstnQbeDyeo3fdddf/941vfGNpdnb2pwFXbzttaouw9eBpNu6u4vUT56iqbaa1I4qRMNF1Dbeuo2samqah68kUmcN+LAsSloVlWpiWhWlaWJZFwrJwaRpej4vskJ9x+VmUFeUwpTSfuVNKmDGpiMnj8vC6ez3UAWEBB6tqeXrTITbuq+L42UbaIzF0TcPtduF2dZ1fP/drWeqcTZU+TCRM0CDg81CaTAMumz2J5XMnMrW0oM/1WaZl8crO4/zkz5vYU1mD3+vB4x5euwvTst5IhU4ozOatS6Zz++q5zK8Y35ennz1x4sR3PvrRj+avXbv2ayiD2HScAt4JbO/rsYkQEwRBEIabvkqAnwKf6WF+049+9KPvf/7zn/8ycEVPOzItix2HzvLYuv28uu8kZ+pbMC0Lr8uFO5lq1Dgf9BoKLAtM08QwTRIJlS5z6RrZIT8TS3KZPamY+RXjmD9tPDMmFeEfZDQonjB5cdtRHn15L9sPnaUtEsXnceFxuwZTtJ6WrvfLtFRkLR43MS2TvCw/c8pLuHpxBW9dWsHkcX1rABCJxnnouV386qmtNLZGCAW8GVnSaiRMItE4Qb+Hqy6t4EM3XsqSWWW9P88wfv6tb31r/T333PPv9Nxm6gxwM7CnL8cjQkwQBEEYbvpyf/00cF+6yYkTJz714IMP/vLqq6/+PqrvoiOWZfHSjmM89NxOth08TWfMwOd143G7Mutb0Y1EwiSeLEq3LIuQ30v5+DwunVnG8rmTWDh9AhMK++LMcZ6Xtlfyqye3se3QaQACXg+6PjJnmDAtYnEVbSrMDbFi7iTevmouK+dPxtOHKODx6ia+/du1vLS9koDfg8eVGTNY07QIR+N4PS6uWzaDz75zOdMnFvb4HMuy1r744ov/c8cdd3zh5MmTb+1h0xOoxvOv93YcIsQEQRCE4aY3hXAJqq2PY0F0WVnZE2vWrPnt4sWLf0QPdg17K2v46V82s3bXsWQBumdYIkODJWFaxI0E8UQCl6ZTlBukYmIhd9yylLcsmtrjc6vONfODP27g2c2HVZrQ6+5PAfqwYyRMOmMGLl1jQcUE3n3NfG68fCahQM/1ZEbC5KHndvKTv7xKeyRG0NcXK6+hwTQtOjpj5GX5ef91i/jEbcvICva4KKLqwIEDX77hhhveferUqXf3sN0R4AbgeE87EyEmCIIgDDe9KYU1pKkL0zRt67PPPvtf119//U9JY0sRTyT4+eNb+OUTWwlHY4T83lElTnqjtaOTyePzuf/udzK9LH1E5s9r9/H9P2ygrrmdrIBvWFZtDhWWBZ2xOAnTZHZ5CR+9eQm3rJiN19NzhGzvsRq+/vPnOVhVS3bPYmjIMRImHZ0xFk6fwD/+/Wouu2RST5s3Hjhw4HM33njjFSdPnvxsD9ttRKUp01pbiBATBEEQhpueJMMngPsdn6Rpp379619/7sMf/vA3gflO25w818w9//cC63YfJ+T34hpdPQ57RAPCsTiTSvL4+VffwdQJzu4bkWic7/7uFX7/t91vGJuOJTqTRfKXzijlM7cvZ3UvUb/6lg6+8Yu/8bdtR8kKeDMe1YxE43jcOp942+V8+h2X406fKo3s3r37rmuvvXZufX3953vY5cPABwDHVgoixARBEIThJp1ymAD8BnCq7ra++MUvfuVrX/vaB4GVTk/ef7yWT//34+yprCEn6B+VacieiBkJsvxefvzFtzG73NmDtq65gy/86Ame2HiQ7KC3J1EwanG7dLweF2fqWnj61UOcOtfC7CnF5KTxJgv6vdx4+QzihsnWA6oGzp1Bge1xu7CA9btPcOhUHZfPmZQuteoZP378DcuXL39gzZo1ZyORyNI0u5yPcul/2WnynnvuGZLjFgRBEIR0pFNI/4LqIWljypQp//fSSy81Tp069StO87uOVPP5H66hrrmDoM8zpKsfM4FpWkQNg29/6kbescrZI+zkuWbu+tGT7D1Wk/E03XBhWRbtkRjjCrL40ntW8c63zO0xxfroy/v49m9fpjOewO9xZfxzbgtHmV5WyH995mbmV4xLt1nnzp07P3XDDTdcV1dX94E028RRKcoXUickIiYIgiAMN0632gnAaygX/VQOP/jgg9/74Ac/eC8QsE2erOeO7zxKfUt4TIowgNaOKP/wjsv5yvtWOc6frW/lH773GAdO1pEduDhEWHdiRoJYPMFtK+fw9Q9eRWFuemuuV/dV8cV7n6I1HCXgdWf88w53xsnPCfC9z9zElQumpNusbf/+/R+/+uqr76irq0vXlmsbKrob6z4oQkwQBEEYbpxSk59HGV/auOWWW77/3e9+93YcHPPrmjv43A/WUFXTTMjvHZMirKMzxrLZE/nWJ2/A7WBk2tAS5nM/WMO+47UXpQgDcOk6HrfOnsoaNu45wYKKCZTkO7vdTyrJY8H08by04xgdnbGM2Vt04XG7CEdiPL/lCFNLC9ItqPCVlJQs9/l833z22Wfn47ywpBRlZ7Gv+6CkJgVBEIThJlWI5QM/S/6byo777ruvftq0ae9NnbAsuPt/n+HVfafGbKrOSJiE/B7++86bKSvOsc0nEiZ33/cM6/ecIGeMnmNf0TQNn9fNuaZ2nttyhInFOcyY6NzSsaw4l0UzS3l5ZyXtkREQYy6dWMLk5e2VzJhUxLRSx4UVuZdffvnkYDD43RdeeOFmVKeIVPKBB7sPiBATBEEQhpvUu+Y1pDFlvfXWW9dee+21b3Oa+8OLu3l+y5ExK8JArcj72C3LmD/NubXOvY9u4tktRwbVZHusEfR5CEdifPknT/PjP28iYTouLmTprDJ++qW3U5ATJBIzMmrQawFet4u4YXL3T59h3e4T6Ta94u67775p1apV6cyJVwGLhuMYBUEQBCEdqULs9jTb7fnSl77kw0Gkna5t4b7HNuPzuEe1f1ZPdMYM5leM58M3L3acf3FbJb94YitZvZifXox4krYcP3pkI1+771ki0bjjdpfOKOXeu24jJ+QjGk9k+CjB63HRGYtz90+fZt+xc+k2+/Bdd93VCZx12gXqh4ggCIIgZIzuQmwScJ3TRrfccsvOq6++2rHQ+Sd/eZWa+jZ8vRiCjlYsS61YuPP2FY6u8bVN7Xznd2sBcI1Qq6KRRtc1ckJ+Hlu3n6/e9wyRmLMYWzyzlG9+/Ho0TaV6M43f66alo5Ov3vc01Q1tTpvoN954400zZsw4kGYXVw7j4QmCIAiCje5C7Gag2GGbpne96115wIzUif3Ha3nutcOEAmOzOB8g3Blj1cIpXLPEuVf0j/60keNnmwgMshH4xUBulp9nNh/iqz95Om1k7Lpl0/nq36+mM2ZgZnjVoQUEfB6OnG7gX+5/jphDZC4YDM5/xzveEcDZxHUe4LwyQRAEQRCGgVQhZmPixImVN998s6Pl+sMv7KI9Eh+zkSLTsvD73Nxx6zLH+fW7T/D4+gNkBceu0BxqckN+nn3tCF/+8VOEO53F2IduuJQ7bllKWzia4aNT5AR9rN15jIdf3O007bvmmmsmAh0OcyWk6asqCIIgCMNBlxArIE2roptvvvlMSUlJeer40dMNPL/lCEH/2PQLA+VD9ZaFU1k2Z6JtLhZP8NO/vIppmmOuM8BwkxPy8dzWI9x939PEDOd6sC+/bxU3L581YmLM5/XwyEt7HcXi4sWLS0pLS51WXWQDZcN+cIIgCIKQpEuIzQGcol5NN910Uy6Qmzrx/NYjNLZFcI/RaJhlWbh1jXddNc9x/olNB9h++AwBh7oxQUXGnnntMN/+7VrHebdL518/+lZmTCykM2Zk9uAAn8dFVXUTr5+otc2VlJT4ly1b5vTB6sDkYT84QRAEQUjSJcRWOE2OGzcuunz5cpt5a9xIsHZHJV535lvbDBVqpeQEVjo4soc74/zmmR14XGNzAUKmyAn6eOi5nfxizRbH+eK8EP/84Wtwu/S01hfDhaZpROMG6/ccd5xfvnx5uqfavu+CIAiCMFz0KMSWLl0aGT9+vK1mZk9lDYdO1o/ZlZKgVvW94y2XODbr/tvWIxw8UYdfCvR7RNM0gn4PP3xkI09uOui4zcr55XzybZfREXGuJxtOXLrO3kpnK4tZs2ale5qTmbEgCIIgDAs6EEKlJlMxVqxYYeLgQv7KzmN0RONoY7R2Km4kKB+fz/WX2RaCAvCXV/ahj9GUa6Zx6TqarnHP/73AriNO9lzwqbdfxlsWTqE9Esuo2avbpVPb1E67Q53a+PHj031/33xmcYIgCMKIoaMsK5wafMeWLVvmwm76ys4j1Y6RpLFCZ8zgxstnUphjb2i95fXT7Dh8Fr9PomF9xed20R6O8R+/fon2SMw273G7+OcPX01hbjBtcf9w4NI1GlrDNHd02ubKy8spKXFqO8nYbQ8hCIIgjDl01Coxm3dSQUGBMWvWLFvTxXON7ZyobsLrHptpSdOyCPo9XLPEsZMTf163l86YISsl+4EFBP0e9lRW873fv+K4TUVZIR+/dVlGC/c1XSPcGaO+xe5UEQqFyM7OdnqaCDFBEAQhY+ikKU4uLy8PTpo0ybZa8kBVLQ2t4THrHRaLJ6iYWMQ8h56Sx6ubeGXncVkpOUCygz7++NJentjgbFz/gesXsXT2RMKd9qjZcKChkUiYtIftr+d2u/F6HbOQIsQEQRCEjKEDU5wm5s2bF9V1e/px//FzxI3EmK4Pe8uCKY4RvfW7jtPQEh7TadeRRNM03LrOfz28jhM1zbZ5n9fNl95zJV6Pm4SZgfW2GpgWjis2XS4Xbrdj+jnzvZkEQRCENy06MNNpoqyszI9DfdjRMw1jNm1nWRZ+n4dVC6c4zq/ddRyXg/gU+o7X46KmoY17/7TRcX7ZnIn8v6vmZSQqpqFS0fG4sxDz+RyDX63DfVyCIAiC0IUOTHAYN2fOnBmFCxe5mZZFTX3bmF1RGIsnmFFWyNyp42xzlWcb2XusBp93bNa+jSayAl6e2XyI57cecZz/2C1LGZefTdwY/uCTZVqOCwTcbjeBQMDpKY7dwgVBEARhONAB+9JB0KZMmWIrlGpu76S+NYxrjKbu4okEi2eVOfqDvbq3iua2iETEhgCVtta490+baG63r1icVJLLu986n0g0A7ViGo4/HDRNS5debxn2YxIEQRCEJDpgCwsEAgGtuLjYJsQamjtoHMNiRdd1Fs8sdZx7RdKSQ0rA5+ZAVR0PPLPdcf791y2ifHz+sNpZWBa4XS5Cfvvii1gsRlubY/BLhJggCIKQMRyFWF5eHkVFNkN96ls6iMYMxmJmMmGa5IX8zJtmT0vWNLZx8GQd3jHcKWA0EvR5+OOLe6hyKNwvyg3ygesvJTasdhYWLl0j6LevjozFYkQiEacniRATBEEQMoZjajIUCpGVZbMWoy0SI5GwIKP+6END3DCZUppPaZHNGo1DJ+tpaBm7KdfRisetU9fckTYq9rYr51BWkkt8mKJiKiKmpxVinZ32tClQNywHIwiCIAgO6IA/ddDr9eJ2u23+Ah2RGKZpMhYXTRoJk/lTxztaU+w6Uq0sOUbguC52Qn4Paza8zoGqWttcYW6Qt62cQ2SYomIWFm6XTsChJtAwDOJxW//LKFA9LAcjCIIgCA7ogC0f5/f7cblcNl3SEYmRsDLg/zQM6BrMr7CbuALsOTq2WzaNZly6TmtHlIee2+k4f/vqeRTnhTASQ7+C0rQg6PcSCtgjYtFo1Cki1gHYFaMgCIIgDBOO6iM7O9vR7LI9Eh2TUSPTsvB7PUwrzbfN1TV3cPRMA54x2rJpLBD0e/jb1qNUnm20zZWPz+OqRVPpjNmiU4PGTJgU5QbJDtr9ws6ePUtTU1PqcC1gL2gTBEEQhGHCUYhlZWU5Lu1vC8fGZFoykTApzAk61oedrmuhuT0yZls2jQVcuk5TW4S/rN3nOH/zFbNxu3SsIY62Jkz1uTvZldTW1pJI2GrTzqKiYoIgCIKQERyFmMvlHB1SbWnGnmAxEiZlJTnk59gt046eaiASNcZsy6axgt/r5pnNh2hsDdvmls0qY8akYqLxoS3aNy0oygs5zp0+fdpp+NyQHoAgCIIg9IIO2O5+DkXMAGO2jspImEyZUOAoIY+dbRzySMybFSvZ1zFuJIgbCWJx9ejqTVp1rpm1O4/Znuf3ebhq0dRh8RQrK7ZHQQGOHz/uNHx4yA9AEARBEHrAjUOTY4eUDQAuXRuTokXTYOp4e30YwJEzDf22rbAsi4RpYVkWpgVYFpqmoesauqah6doYjBv2ny7BZVrgcul4XTrZQR8Bvwdd03DpOrquYRgJovEEuqbx7GuHuX31PNu+VsybzP89tQ0r+V4OFZNKch3H00TEDgzZCwuCIAhCH3AUYobhbCcwFn22LFQ7m4kl9shIJBqntrEddw+O+pYFhmkSNwwSCWUQ6vO6yQn58Xvd+L1u3C6daNwgEjXoiERpj8QwEiYetwuvxz0mDXDTYZoWkaSp7/jCbGZPLmbhjAlMGZ/PhMJsinJDhPwe9KQI0zUNI2Em35840biBkTBt0dX508YzqSSXk+dahsRY1zQtgn4P5Q4C3DRNTp48mTocQ4SYIAiCkGHcgC0PmTYiNhaFmGXh97gpzLXXCrWFozS0hm2F+pal+lLG4ga6plOcF2J2eTFzykuYVprP1AkFFOWHCPo8BLxudF0nbiTo6IzRFo5ReaaBrQdPs/3QGQ6frCduJAj6vWNyoUMXFhDpjOH3erh68TRuf8tcls2ZSH62Y+NsB+wrF7sTCnipKCuk8kzjkAixhGlSlBtiQmG2ba6pqYmqqqrU4RrANigIgiAIw4kb1dJlYvfBRCLhmCJyj8HQjmla5IZ8lDgUbdc2dRDujKMlzythWnRG46DB5HH5rJw/mZXzy5k3bbzjDb07Xo+LUMBLST5UlBVw/WUziBsJth48zUPP7eLl7ZW4XDo+j4uxltw1EiaRWJzVC6fxuXetYOH0CcPyOmXFOZhDlPo2EiZlxTkU5doXaBw7doyamprU4cNIeyNBEAQhw7hx8E3q7OzEMAw8ngubJec4+DGNdkzLIhjwUpBjj9ycrW8hZhi4dAe/830AACAASURBVJ2OaIzsoI/rL5vBrSvnsPySSeRm2ZoO9AuP28UV88q5Yl45T796iO8+tJZzzR2E/B7GQqmdBnTGE/g8Lu756LW8960LhjUqahhD96YkTJPycXmO9WaVlZVO6fcjQ/bigiAIgtBH3EBD6mBbW5ujECvMDSX9nhgzaTbLsgj5vHg9di+puuYwDS1hKsoKec9bF/D/Vs9jdnnxsBzHzStmMXNyEV/+8dMcqqolFPSOejEWNRKE/B6+95mbWH3ptGF/vXA0NmT7siyYOdn5s9y7d6/j8JC9uCAIgiD0ETdwJnWwubmZxsZGysrKLhjPzwngcbmwsBgr6wJN0yI76HO03tA0jTtuXcpn3rkirc3BUDK9rJCffultfPK/HuN4dSMBn6f3J40QCdPEret877M3s3rR1F63j8YMaps7aGmP0NgaSRbmJ0iYJiG/h+ygn5Dfg9/noSQ/izyHaKNniKJtlmXh87iYPrHQcf7gwYNOw7uH5MUFQRAEoR+4gaOpg01NTdTW1tqEWF6WH6/HRTxhjhlfV9OyyA45p1RvXz2X9127sF/RPQuoa2rnbEMbzW0RWsNROqMG2UEv+dkBypOrB9MxsSSX7/zDjXzsO48SiydGrTdbpNPgS++9skcRFu6Ms37PCTbsOc7+Y7Wca2qnLRxVfSMt3qj36lo9qesa8USC91yzgHs+dq1tf0MVIEyYFoW5IWZOKrKfVyTC/v37U4erANugIAiCIAw3bhxqY2KxmFMfPopyQxTkBDnb0IpLHxu9GS0LshyaPgOOrW+cONfYzp7Kal57/TSvHz9HdUMbja1h4gkT07IwTWVroesahTlBZkwq4tYrZnPzitn4HFYALpg+nk/ctoz/fni9Yx/EkSYSjbN4VikfvWWJ47xpWazZcIBfPbGVg6fq6Ex2JvC4dFwuHU1TkUiP24Xf606mYC0sIBpJpG3wHRmifpOxeIJppQUUOyzQOHLkCCdOnEgd3oMU6guCIAgjgBuoBIzkf7/B0aNHueaaay7YOD8rQFFekFO1zTBGmmSbppVWiPVEeyTKxr1VPL/lKFsOnKKuqQPTMnG7XLh0DZdLx6Ppb0R/LEu9Vl1zmHONJ1i36zhrNhzgPz91g2OE7O+vX8RTmw5SebYRn0P92khiAR+88VLH44oZCe751Qv86eW9GAmLkN/DkpllLJw+gWml+eSE/MQNk5O1zbyw9ShHT9cn6/NUMtula+RnOVtedEYN9CEoPkyYJvOmjXOc27VrF9FoNHV486BfVBAEQRAGgBuoRtWJlXefOHLEYRGZBmXFuWw7aCsrG7VoGuSG+r76sbq+jcfW7+fJjUokddUbBf3n67k0IBIz8HncTC8roCg3iAW0dnRyrrGd+pYOLBPW7jzGnT/4K/d/9XYKU2wUsgI+3n3NAv79gZcYTaVinTGDWZOLuHpxheP8fz74Mn94YQ8+r4slsybwxXevZOmcibgcTHE/ctMSPvW9x9h5+OwF0cfxaVK3LR2d6IO0SLEs1Ypr/rTxjvOvvfaa0/C2Qb2oIIwQqeUjbx4ssKBw1SfxZI/DMp1NyDNEGTABCKEME0NAVvIRAMKoiHtr8r87gXpUScTQrVAafiYDxUARMAnIB/xAEPAAEdT5RVDndyb5by3Sx7dHuuwrTpMixNL04mPqhLwh83rKBBo4rphMpbqhjd89v5PH1r3OucY2fF43Ib+zQorEDJZfMokvvW8VsyYXv1FkbpoWNY1tHKyqY83GA7y0vZItr5/mf/64gW998nrbfq5dNp37n9hKc1tk1NSKxY0El8+ZRNBBHb6y6zh/eHEPAb+bSSV53HvXbZTkZ6XdV1bAS3FeKNks/rxIckoZdnTGqWvqGLQ9hmmZ5GX5mTOlxDZnWRbbttk0Vy2yYlIQhL6RBSwE5iYfM1CiZCJKgPX2s9pECZU6VDbqMLAL2IdaMNQxLEc9MCYCi4DlyX+nAeNRAqwvJFDnWQMcAl4DtqKut5ksBdEBF0oOxBm6cuQhw406qEpgZfeJw4cPk0gkcLkuTEGWFeeqnpOMlXp9zeac351ozOAPL+7ml09uo7q+laDfS04PETQjYVKUG+TfP34tk0ryLpjTdY3SohxKi3K4ZkkFz285wj//4nkeW7efd101j0tnll6w/fiCbBbPLOWZzYdwu/qfPh1qLMvC43KxfO5kx/k/vrhH1cNpGjlBH3lpUoxdbD90hg17qggko2GWZRHweigpsIu3prYwLeHooFOTsXiCS6aUUFZkXwVbVVXFgQO2LkYHUFFhQRAEJ0LAFcDbgWuBWYPYl57cXwiYAry129xB4K/Ao4xclH4CcAvwNuBywP6Ltu+4UMJtPErIvSc5Xgm8DDye/Dc8iNdwIh94BMjmvAhzJV/nJkZhPXBX+GFf6kRtbS319fW2J0ydUIDf6xk7zb81K22U5cipej7x3b/wzQdeprmtk5yQv0+RKdOiT42pr79sBn939TwaW8P8df3rjtssmVU2avzETMsiK+hl8rg821xNQxt7jlbj97rxed3sO36OXz2Z/lpxvLqJf/vVC4QjsTfSjZZlEfB7GO8QRattbCfSGRt0ajKeMFk8a6Ljfnbv3k1bW1vq8EuDekFBEC5WAsDnUKLoeeCzDE6E9cZs4GuomtV1KNGQKRYAPwB2AL8AbmNwIqwnKoCPA08CW4C7hvi1vMDVKCG5DFiMimIuJqUWfrTQpTr2pE7U1dVx9KjN2YKJxTkU5gZJpFn5NtqwLNVT0onv/O4VXtl9nJyQD4+7bykxt0unrrmDJzb2rT+0162Ey2sHTjkex8LpEwj6PKMi3WuaFjkhH8X59tTh4dP1NLV3vhFd9Hpc3PvoRr5+/3McPnXeE7ijM8aajQf46H8+SuWZBgK+89/7hGmRnx0gz6E/ZX1rmHA0Pih/OssCn9vF5XMmOs5v2LDBafiVAb+gIAgXK5ehfqTdixJImcQFrAKeBh5EpQSHi8nAT1Di7y5U9CqTzEUJwG3A5+k9tdsXLJyjbJ2MwrQknFeHB1GFhG/kc0zT5OjRo6xceUHGkvzsIBMKs6mub8UzBlZOWpbyu3Kiy16hv/i9bu7/61YumTKuR5+t/cfP8aeX95Ad9FFd30ZVTbNtNV9pUQ4FuQHqm8PorpFN9qq+nH5Ho9naxnZicQOfR9lt6JqG3+vh0Zf38bctR5kxqRC/10N1Qysnqptw6zoBn+eCb72RMBlXkOX4ntc0tGGa1qA6NhiJBOMLs5lfYb+WJBIJ1q1blzp8DIcfIYIgvKm5BXgYldrqjXZUHdQxlCfnOc4XrXeJgWzOpyPHA/NRaUlnx+kL+SBwHXAn8Oe+nkAf+TTwDVQ6si9EgFOouraTwFnU+UdQtVddhfvZqLq5cmBmcv+93WgnAT9CpS//EVjfj/MY83S9OTWovO2l3Sdff92eTtM01dR66+unh//ohgINomn8qbL8A2sz5NI14kaCL977JF957yree+3CC1JhlgVrdxzjPx54kaa2TgI+N+2RGEdO1duEWFFukPJx+VTXt414wb4FeN0uXA5qKBy1v4eapgryY4bBzsNnsVDvjd/rdkzdmqZFaaFzB4Pj1Xbfuv4SMxLMnzaefIeI24EDB9i3z5aBfxUY/AsLgnCxcB29i7Ba4G/Ac8AmlDjpz+pHHShARYOuA94JXNLD9uOBPwCfAv6vH6/T0/5+yPmarZ6oAV4EnkGlLY+iRFdfCaHOcymq7uwKen5vr0Clgf8RJczeFHQJsShqVcMFQszhxgWoVj2jNMJnQ0c1rnYimGZVZF/wuF0YCZNv/uYlnnz1IFcumEJJfhYt7RE27Kliy+un0JKixEr6jB2oquWdzLXta1ppARv3Vg34WIYOC03XHBuJ9pQydOk6AV/vItLCony8vf4MoLqhddCF+pYFl13inJbcuHEj4bAtWv23Qb2gIAgjy9Aai08Ffk96odAI/Az4KSoaNFBMlK3DK8nHf6CK9r8OXJnmOe7ka9egUpYDZRFK1PVW6/YqqlbsSVTEb6B0oOrAtgD3oSJkHwA+hrL9cMKPEooLUFG7sWTxMSC6hwv3Au/tPnnw4EEikQiBwIURhoqyQnxJgTHam39rmkY05uwxo1JwAxeU7qST/K4j1Ww9cBqXrpEwLdwu3RYVcukax842Ou5n1mR7K56RQNM0wp1xDCOBKyV9GBqAKW4quq47mtt2xgxqGtpx97FOz4munqJLZjsLsZdestXkt6IuNoIgjDk0LDNGtPoA3llXDZWP2L+hPLKcOAC8C3BedTU4YqiI00uoFOS/oyJJqXiA/0UFTJxvJj2zCvgjPaci96GE4V9Q9hNDzWHgX1Fi9rOourR0wvdjqHKpD6Lquy5aUoXYBVRXV3P06FHmz59/wXhFaQE5IR/tkRgubXT4X6VD09SN3omgzzPoFYsaqmast1ozt0vnRE0zze0Rm+3D1NKCpLC1+rQac7jQNY2OSIyYkcCXcj65IT8et2vA4tuyLPweF0UOHmLN7Z3Ut4QdTWH7SsxIsGhqCdPLCmxz9fX1bN5sM8/fj0N7r6GgrKzsBtSvveLkkJbycBrradxpXkddwBuSj2pU6sC+1FkQLkI0zUW4aivBKUvRXT4sa1ALyK4A3p9mrhKVVrOvXhtaosD3UaLvEZzF2GTgK6joWX+4AmUXYb9AKmLAfyZfv72f+x4I51CC7C+oYv2r0mz3LtT17gNcxGKs+932dZS/Rm7XQCQSobKy0ibEivJClBXnse9YDS7vaBdiGp1pasQGk5rsLy5dp6ktTE1ju02IjcvPIuTzEInFHeuzMoWuabRHYjS2hm09MKeVFZAd9NEZMwZ0jKaljHVzs+weba0dnUTjxqBEaNxIsGrBFEcxt2vXLk6ePJk6/CLDl1//APAW1EUzk1SjVh/9BnWBGxv1A4IwEHQXic5W4s1n8JfMxDIGlcH6OM4r9iyUhcVwi7DuPA18CJUmdWpGfCfwO9SPyb4wA1X3lk6EHUfVn41EqcYu4EaUGPt0mm3+H+rH5qcydVCZpvtd6wRK+V+AgxM5bpfO7ElFaZs3jyY0TSMSNRx9z/xed8buVLqu0n5n61ptc3lZgaQlyMjeN3Vdo6Wjk6qaZtvcuIIs5ZI/0M/csvC6dfIchFh7JEosbgw4zW1aFqGAN+0K1ieffDJ1yEDVPgwXETLzqzKVCSj/n0eBtcDqETgGQcgcpknH0Y3J1OSAf8gFSF+b9WdU2jDT/IX0hfnZwCf7uJ8cVDoy3Y/C3agFAyNZLxsFPoOKkKXjk8BXM3M4mae7EEug2g9cwO7dux2fOLN8dNQ19YamKff8rjY73fG43RntDpAwLU7X2U19c0I+xhVkjbiw1TSNeCJBpUMtW9DnYfK4POKJgZUNmJaF3+fB77X/6GwPx4jGEwP2EIvFE8yeXMzMycW2ufb2dp577rnU4T2oNN7FzFtQN5CPjfSBCMJwobk8xFvOkIi0wMBLGxagCvWd+OVAdzoEfAu1QtOJ1Sjj0t74L1IW4XVjK3ADDgGYEeKb9CzGvoW6rl10pBY2bU/d4MCBA7S1tZGdfWE93dwp4wiMgrqm3tFImKZjREzXtYwvNjh1zh5tAtXuaDR0K9CAQyedF8lMn1jI81sHVlZlWpAT8uPz2Fc5NbVFME1zwJ9F3Ehw5YIpjvYf27Zt4+DBg6nDz9G/JdhDgYW6KJ5F/d2l1n7pDmPd68G6j+moEoJClEv1TJzTDgHgV6j0xv8O6dkIwmhA00jEIoRP7iDnkhswzQH9UEznuH6GkWs11PX6DwFfcpibizKa7ckH8XbSp/OOouqvRlsz7m+iFkx83mHOgzLYfQtqsdVFQ+qXbycqbfPGeFVVFUePHuXSSy8U1ZNKcinMDVLfEsY9wkakPZNeKJqmmdH2QrqmcbbB1mIHgAmFOaOioMel65w814xpWTY7iaWzyvANsGDfsiyyAl7HBuxNbREGmlYwLYuQ38tVlzqbTz/11FO2pwC2wQxgoZafnxiGfU8BrkfVjsx3mP8fVC2GrBIVLjp0l5f2o+vxFpTjK5mJleh3rVg6N/nDqNqkkeR54IvYL5BulOVFOiGWA3w3zVw78D6UKeto5MuoVOo7HOYWolKU38joEQ0zqSGESlL8UQzDYO9e24JKivJClI/PJ26M/joxFflyMBjNsPLRdY2G1jBxw/6rrTgvxGhoOulxuzhR3cSZWnsKdeH0CZQW5WAMMD2pIn5De47RmMHMyUXMKrenJSORSLq0pC0FnyGcVkENBSeA+4HlKP+dVPzJ+eAwvf6bjSDKh6nrMYNR2sPuTYGmqVqxYxsHunLSfvFQpEsLZpLXUJExJ+b08LxPA9PTzP07Ixvp6w0Ddfwn0szfiXLtv2hIFWJNONhY7NjhXE4za3LRgG/KGcMCXUsXb8ms8NF1jaa2iKOdRmFeAN2lj3hUzO3SaWgNs+Ow3a8wN8vP4lllxNIY5PaEhrKYcKrVc4qS9RUjYXLt0ul4HNKSW7dudTIlfo6L1yAwjPr1/G2HuXmo1UfC4FmCEvNdj430vU2MMAxobi/RumPE6o6iufvteTguzfhoEGLNpBckzu7Y6nyc0pkAG3D+sTbaqEGlJ52UdR4qanbR4FTduCV1YNeuXY5Pnl8xYVDeT5lC13THXFqmA1C6phHpjDv2vizIDuJzu0dFnZhlwfrdJxznVsybPDCxqEHCMDEdF00M7DuUME3yswJcs6TCcf6pp55yej9HIi2Zaf4VdcFN5bNI5GYo8KJWrnU98lGNmoURxaL92Cbof1Qs3QXI3ittZEhn3ppuxdz7gBKHcRN1bRgS99sM8ETy4cSHgNIMHsuw4vQFtKVtDh8+THV1tW3DS6aUkBPyOUY5RgsWydSk05xlZTQCpTzNDFo67L50Ib8Xj1sfDdlJfB4Xu45W09gasc1dfskkSvL7v8JTQ8MwnYWYb4ARsc6oweLZZcmWWxcSDod54gnb3/BW3hx1UgbO9SFLUAW+wtBiIJ5tI47m8hKrq6Sz9kh/o2L2m5vCuU1H5knXYigf+8pJP+lXSj8FvDxUB5Uh/gNlb5FKLimdgMYyTkJsLykffHV1tWMD8EnFuZSPz8NwqHkaTWiac27SsgbhPDOg41CptIhDA22vx4VL1xgN13OP28XZ+lb2HbcvqJlQmM2qBeVpuxWkQ9Mg3Bl3tL/IDfnQNa3/Z67BTctnOk69+OKLHDhwIHX4UcbOr8HB8gLKobs7bmDZCBzLxcZoXp305saCcOUmME368THVpBmfQPpoWSb5Nqow/6puj6tR3lqpF9SVOC/YAdXrcayxg/Q+bh/gIonwO33JTuNQJ7Zhgz3T4XbrzCkvGbC3VKbQNeeImJnh8JMGGIbpKGJ8Hjcu1+iIiIESjC9tdzaTvuWK2f2O3umaRkdnzDEtm5sVwO/rX1o2biSYWJzLqoXO9j9//OMfU4fagL/2/YjHPJ04F+RenukDuQgRITZK0dweovXHiNYeQXf3uXNKulqwOagm2SNNJaoP5SvdHmtREf7Um++tafaxh7EXDevi12nGF5BedI4p0ql9W/rGyWEf1Eq60YxpWQT9HsdVk+FoZmu2uwxTnVouedw6HvfoKTPxedy8svMY9S0dtrmlsycya3Ix0Xjfg0uaphGNJ2hoCdvmcrP8+D39E2KdMYMrF0yhINtexnH69GmeffbZ1OGXgUN9foGLA5svIKMn3SIIw0bHsU3Kbb9vPjv7cS4K96KiLmMFP8ol34m/4pziGwv8DWfTWRcqUjjmSSfENqYO7Nu3j8ZGe83g3KnjyAr4HGt/RgOWqfyrnGjtiI7IT1vT4U9e05S57Ggo1gclDM/Ut/HyjmO2Ob/XzQ2XzSDWj5R0V/P1hla7EMsJ+ZIRsb7ty7IsfF532rTkk08+SUODzf7HFiJ7E2Bf+pp+pZXQdyQiNorRXB46aw/TdmQ9uqdP9fbbSd9L8qOMnXT+bJSdSiomI9vCaLBESB/NSyc8xxTphNhuUsK1J06ccHIoZ/K4XMqKc0ZtelJFxNILsUxb62uahq47reC0kkapo+ca79I1nnnVOYh084rZlOSH+uwjp2ka8Xgiad56IVl+L3lZgT73seyMGSysmMCyOZMc5x999NHUoSqUMeKbDac2Duka/wp9ZzTUDQk9oLt9dBzbRLSuEs3t1Df7AsKkFyp5KHf70Z36UczDuWaqCmXoPJaxGUImmQdkZfJAhoN0F5SzONSJbd682bZh0O9l1uTiUWvsagEhv3OtQFs4sxGxroBPqmM9qIUDoy2q6PO42Xmkmn3H7EX7k0pyueGymY4LD9JhYdHokJr0ed0U5YZIOIUKHUgkTN6+ak5yccOF7Nixg/Xr16cOrwHq+3ygFw9OX6iL1UNNEM6j6ZjRMG2HXlJO+1qv2vkR0q+Umomq0bp2KA9xGLgszfgBVI3sWGY7zqnVYi6CleA9rTh4lZT8q5MQA2VpsGaDbYXaqEAD8nOcDcXbI9HMRqAsC5eu4XbwzUqYJolRkpbsQtc12sJRnth4gHnT7J6Hf3fVfP66/gAJ03QURXbSt3gqyAn0yQYlbiSYPD6f65bNcJz//e9/Tyx2gdYweXOmJUEtb09lMIK0KLnPLNQFsACVNqhHRd8iqBVodrU9PARQ/TYLUC1dslC+XqBuPG2onnR1qJ56Q/UH5iRm7Z40gyMbZcwZQL3nhaiamGagBZWxqGFk635KUMcWQh2vF/UenwP20f/32436LP2o885CvdcdqO9WGHXufUL3+IjWHqZl12PkLXkvltHjR7QOeAzVn9GJ2cCzwC9Q/VtHozP93DTjTrWiY41zqDqxS1LGPajPZjR+Hn2mJyG2KXVg586dtLa2kpOTc8H4/GnjyQ74MPp8Q84MFir6NKEw2zYXNxK0dsQc04TDdjyWcpHPDthD5ZFoHMNIZLwJeW8EvB6e2XyIj9y8xPY+XjK1hFULynnmtUNkOZxTKroGtU3OQmxcQd+iy50xgxsvm0G+Q5F+bW0tjzzySOrwBt4c3mFOOBkeNvVzH4uA1ahowEKUOEhn0hQGjqHSIC+h3nd7PcPA8aC80FYDq1D96EpRIqUnqlHu5AdR0dH19K2HoIaqucniwmLueQ7bLUQJo64G7Xry4UVlGI734fUuQVkTrE7ubwqqYbsTLaj3eh9KQLyCs/Hn1OSj+/PS3ZincD517UOdT+pxL0E1i16V3N7J4mEfqpF2X8LlM5P7vAq4FPV5hlDCumu/Yc6L6uOo79ZaVNamR9Gvu/10Vu8ncmYPwYkLMeP20ohufBkVVUq3oMUF/APwCWAz8CIqpbmXfgjEYSKAs4krqMUIY52ua0uqEIOLoN1RT0JsO+oP8Y2GqJWVlezbt48rrrjigg2nlRZQPiGPg1V1uLyjyNbDsnC5dAodImLtkRhNbeGMdgawLAufx0VW0H5tDXfGiRsJnI02Rg63W+dsfRtrNrzOp95udz5433ULeXF7pWOT8FRcLp2GljCmadkEcGlhTq/1eqZpkRvycduVzi3WHn/8cU6dOpU6/BucV0S9GXCyqjjcx+euBu4GbqTvNVFBlEiZh1ptFgH+DPwA5Qc0UPyooumPo27w/WVC8rEiuZ8q4AHgXtK7loO6Pj6EEgo94eN8x4YuAdadX6Ju3ulYBnwB1YLK38trdZGLEi6XAh9ECZQfonqKdg/9fAz4l27/v5P07+GPgLd1+/9foLyqQNVK/QB4P+mFeBd9KRi+DNXC5u30XuMTTD7Gofp6Xp8cfx34GeqzdP6Fp2lYlkbLjkfRNAiU9SjGTqBc6dfgHE3uwoXy61qJcqqvRKX/XkV9zw/RN+E9lOSR3mnfqVZ0LJLux1NZRo9iGOjpAltLSrjPsixHPzGvx8XC6RMcm1mPJKYFAZ+Hghx79KSlo5O2cDSjETHTUnVXuQ5CrD0SxUiYoy4iBuDzunh8/QFaw/YsyPK5k7lyQTkRB3+wVLp6bTrZXuTnBOjNzjYSjbNiXjmzJtt79BqGwQMPPJA6fBx1UX0zkoWzEHNqfdSdyahU7kvAzQyuMD2AEmSbUF5A6W4UPVGCivjcR88izESlsE4DJ1Hp0nRpu3Lg31DvxepeXr+v5+9OPpy2T/dDIBslnDYCf0/fRZgTU1FC6gkufJ9TL8o95edSi2m7npuNsj/4CL2LMOj5PSsFfo967/8eZxFmoiIgNagIbrobyyUoMf1qcl+OaJoOWDRt/xPh07vRvT2upNyAEqN9/cECUIHy7/oWynx0G0qQ3Y/68bAcFeEbTnJwjgxbQPswv3amSPejyXnV1hiit/DVy6QYxK1bt467777btuGy2RN5+G+7sBg9a7tNS1lXFOWGbHP1zR1E45lNBZqWSUFukKDD4oG65PGMJi+xLnweN5Wn63nutcP83dV2/7wP3riYDXuqsCyrx5o7XdNoj8QIR+MEfBe+B1kBL163K9nuwHkxg65r3L46NSukWLduHa++astAPsKbs0gfVPpoWspYA/BaD89ZAjyMijqkEkWlHNejBG4D6sLoR6WzClBppstQN8juosKHuokvREUc+urnFgQeR0WyUtmBSg1tRd2w61Gpqwjq5uNBCcEKlIC7EeVG3l0kzEnu/92kXzWXKgLSXeK6ttO6/dv1306/LypQ0dqVaV63DnVD3wacQb3fLSjhUojKVCxC3eS7RwSuRUXnbk3uoz9COvVcuwTkD4G3OGwfRQmlOlQtV1fdYDqxtxwlyJ2Kq3ej0o2voCJd7cn9uFHfg7LkMVyDSmN2v1DORUUuZ6EiVHZ0F5qZoHnHn9CAQM9pyg3AlcA/Ah+m99R3Kl1/D5eiIqEJVI3TftT3dT/qb+k46vs6FASxC2lQ7+FYL9TvIp0Q6yl6OSboTYi9gvpjfOOPedu2bdTW1lJScmE6en7FePKzg4Q7Y7hco2N1t2UqURI5PwAAIABJREFUM9fcLPsPzbrmMLG4gd/bZ/flQZNIWEwoyMLnkL49XdvKaGhvlA6XS+ePL+7mtpVz8Kcc/8r55Vy5sJyXtx8jlMazDZS+isUTtHZ02tLFuVl+fF43iTRRwUgszqUzSlm1cIrjvn/9a5v5cgR1cX4zUgz8k8P4n0h/MbsO+F3yud1pQaXWfgkcofe0kwcVnfkIKg04vtvcpSjx9Hf0rW7vX7GLsCOoc1tD32qQqlDRvf8GrkD1ruu+CCkPeBAl1lJ7DhrAp1DRhq4/zgRKsP6w23ZRlPCt5nxUrHuN2OmU/U5DtaCa4nC821BRnqfoOW3aRXbyfL7IebF0Geq7fxODa+kVRr3/qb0Ln0UJ2LWoc+5E3Sf8KKEYwv49eVvymFILdjehUp5r6HlF73GUQPpP1Od4Nyqt2Z1voG7KX8ApCqm7wEzQtONPgEVg0iLMWFodVIeqGfsx6rv8LtQPjIH8dHehIoGlnPe96kT9gNiNShevTf73QNOIzivS1HXwYhFi6VKTvRcoj3J6U0yvowov3+DcuXPs2GEv95hYnEPFxAKioyg9qSJiPjwOqxRbOjozngo0LYuppc42Tqdqm0ddfVh3Aj4PeyvP8exm54j9B29YjMft6tGQVkO567e0238w54b8+NK461soUf3+6xbidhD5R48e5amnnkodfpqU7+6bhBAq0pLqdhtGiREnKlDpolQR9gwqvfkVVKF7X/6446i0zteBpcBvU+bLkq/ltJAgdbvPpoztRUVE/kzfRFgqm1Dp1tRjGo9KVaZioSJvaznfWmYD9qiihYp0bE/OvYpKN65HCc/uEcAQSvhNSdlHDPgSKkL2W/omwkDdZB9HpVg/xflo1PXA93GOkvQVHSXwujiJarR8E/Bz1Hm1Jo/dQEWxalA1U92F0HxUHVeqCPsWKkr5KP2zVdkEvAMl9FOL9e8kXVQM0HQVSGva8SjhU7v64jF2ArgH9SPiKlTfxz2oNPhg8KO+A29P7n8t6vv9J9Q5TO/n/uxpH0UE9RldDKTLblz0QiyCw+pJpzoxTdNYPLOsz6acmcC0LPKy/I4F+U1tmVphfx4NmDHRXiaTMC2qalsyWq82EHRd47fP7XD0Dls5v5xrlkyjo4daMU1Tq1VbOuylO1kBH163yzEmGI0ZzJlSwrVLna9NDz74IE1NtsWAv+rhVC5WlqIiLTc5zH0f5zYhPlS0K/WL+XPgnQyuLdQZ4ENcWCwO6gb0c3qOyN/MhfVDUZTQSI0u9ZcYqgB9d8r4u7kwetcTTrVcfa3v+jb2dGQN6nx/wOB83u5H3di7Igd3oWqU+krqn98qzkdwjqG+V/21gilCRVq7p48SnP9eDOZ8H0ClYFN7Rf4TzqlU4LwYa97+CNHaI2iuPmnVOMri4usoUXY5qi7tftR3aSjqsCaiIm8/RqUun0K9T/aiWDvpTiLO2G1tlEq697hrpfKYpS85xLWpA+vWrXPccNnsicmoxiCPaqiwLFsarYv2cCyz0TDTIjvk45Ip9hXGdU3tnDrXPCrrw7oT8HnYd/wcz6SJin38tssI+T09+IFpmJaF4dCFQeteUZNC3Ejwrqvn2+rKQEVoHYr0X2N0OukPtdcUqOL6m1A3u7WoOpxUHkOl5Jz4DOqXfnceRS3TH6oL+LeA/00ZuxW1Ai8dqW1lNjN0NiSdwHdTxvJRwmM4mcP5VYhdxFA32xeH6DWeB+7gfPSyr+LSiWWo1G0EeA8qQ9JfvoK9MfN/YI9KDpSXUatGu39XvcBPSR8lAg10XxauYD6W1e/ggYmq8/o96sfBYtR7dRsqsvo4Kho/mPqvEEqc/waVrv4yaqVsOtK9lp+e3oexRbrIl8ForuvpA33xmtiMCpO/kVPbs2cPlZWVVFRUXLDhohkTKC3O4Wx9qyq8HnE04mkidCqNlrkjiRkJZpcXM2WCva7wVG0LzW0Rx7TbaMOl6zz0/E5uWj7TJowWVIzntpVzePiF3WQ7rAw9T98VcDRuUFFWyG1XOJsn/+53v3OyrLiPvqXRMomGioY0MLhfbxoqxZOPWlE4mZ5XI3bdmJ1qhULY03+VwOcGcXzpuBtVb7So29jnUTczp2NLFRCpEazB8jLqs+heiL0ElRoaLj6L/WZyD0PfB/CvwP8AX+3n89JdEX/EwAwzS7HbdmxCCfOh5HnUud7bbWweKqLrWCdqGTGCFVfiyS7pzVusL5io1P1B4MnkWAAV4ZqB+t4vRC0qmEr///4no8oKPsb5+shU0qV4AqgaR3t7lLFHuuWuQ7XgYcToixDr6lN1TddAS0sLmzZtsgmx7KCPxTNLOVHdODqEmAZGGiHm9WT2+OJGgqWzJzqKrddeP0VnzOhFvIwO/F43+ypreGzdft5/3SLb/MduXcrfth6hPRIbkghfNJbgnasvcVxw0dLy/7d35vFRFHb/f+9udnMnEELCfcoRBAW5FBAVLFoP1FqvR7Fq0dqnttUq2latVlsfax9r609bD56qVAVtVRRPRBTBA7lE7vuO4UhIQs49Zn5/fBNIdmaTTbJX8Pv2tS/cmdnd2SMzn/ken28ZzzzzTPDitUhEJ9FwIEXqseRRJJUSKv1zGVIf1pAHkVRZpKkAHkGEVz0jkW7Gt222D273j/TBtghpRGgoxPqG2DYS5CEdow3ZhqQjo8GfkEhRWyJiIGm/1u7jzTSebWoCfyA6F0lPIlG7hmnf6cjvrfFJwDRxJCXjye2HaUTteq0aaSzZgtSrgkS0eiLRs1M4Js7Cnf86BIm2/Q75HBsSSoilEX3rjFhhdWYX2r0QCzcEsyB4wYcf2l/EnTa0V8IMrnbioKbWZ1sAnp3eFsuelmEiEbjThvayXb9swx6SXAkgXMPE43bx/HsrbQd49+nSkcsmnUR1bVPNWuGFIn3+AD3zsvnBRHvLildffZVNmywlTM8QuxE7iYiJFNmfh6SFmqrB+VHQ/S1IIXy0eLPuNRpyeYhtDwbdt3PUbivPA3MQy445SMF9tBiF9YT7BNFJV4NE+yytxM1g94e5AGsNVjgkIfVODVlO6OHNbcVAUp4N38PpWFPcmGaApLQcPB17YBqt6floNWXIheJzSNT5DMTKo76xYh3Nm087kIul4LrLSuwbCNyEFjDtjVANPi2dFpJwhCvEPiSoS2nRokWUlFgbe8YU9JQBzglQtO90Oiguq6baaxUF+TkZUhweg/ykzyeCYmhf67zGXUWH2bj7UMwjdG3B405i+74SXp7/te36aeeMoE+XDnh9Vgsmp9NhGy01TNPyXVR7/Vxx9kl07mAtcaipqeHpp58OXrwDqZX6LhFAuok+Bx5GDu7nIWKsKbpgFTeziK75YxViONqQUdibhAbnmycReqhxa3kQiVL9V92/obpKI0FwgX4tEt2IJnNpm30FtF6YD8bqY/dvojvl4hPE4b4eJ9b6R8yAj5Qug3C6U4lzQbOJXHB8iFw0jUCaDP5A8878D9DY47MU68VLPeHNj0t8Qhm37orpXkSBcOcRrUbU+tFc1O7du1m+fDlTpkxptGHXTpmc2DefT7/eQVqca56cTgflVTUcKq2kV36HRuu65WaR7EnCMM2ot1vU+vxMOqW/bXptxaZCSo9UN+m/lYikpriZ/dE3TD19CD3zGteQdu6QzjXnjOCPsz5uJDBNE5KTXHTMtFrelFfW4m0wa9PrD9C3a0eumHSS7evPnTuXFSssI/P+Sfht/7HGBO5GLADaqrpNRNSUI/YFe2l5N+EQGs+mM7HpkI4CXwbdPwFJj24IWv4Bja0T0hGRPc3mOdoDo4Luf4N0lUaTdXWvEe4svmBVUoX1ewmXsTSuh6tG/MeiiRdpemh4gRE0jcHEmZRMct7AaKYlW4sPsT35DImW/glr1LoeR936T5CLp1LkgqyPzbahZme2N0KNMtoZy52IBuEKMR9yYGxUFDR//nyLEAM49cSefLzSrlM+tjidDo5U1rC/pMIixHrndyA/J4M9+8uiGo0yDJP0VA/nhyg2X/LNznbZeOt2OSkqPsJz7yznd9dPtqy/fNIw3vh0HVv2Fh/tXDVNk+RkD52yrUKstKKaGq/vqJdardfP1VOG2w739vl8PPnkk8GL99PyVEwsMZEU2M4470c9wSmbg4g4iDZfI+m4+qsSNxIJCD7hf1y3bcNjzglIqmwWMjVhMzJQO9HxILMuG/I1rfNCawmVyHfa2qHI+5ELh9YQPJ9zHy0bG9RaVgXdPwURhLUAht9LatcT8eT2xfTHNC3ZUvYjRrIbkSYfO4YA5yOWIgEkihws+AmxrL2Rhf3ED2i7pU3caUnIynI189FHH+H1WktQTh3Si4zUZIw4+1g4HQ6qvX627LH6wKWnehjcKw9vlA1oa+oc4Yf2s0tLlvL52l0hLTYSnfQUN28u2cCGndYSkrQUD9edN7KRVYXfMOicnUaOzRD2Q2WV1NT6cTgd1Pr8DOyZy6Uhxhm99tprdl52/yL6EYa24CCxUgTB9RZ7iM04qGKsHVx2XZ9exFojuO4lHfgpItRWIgarj9dtewEi3Foz0zKauLEWTLem7qo1tKRbLviAvYfWG5cGe1+tJTZ+VsHCPJ+Gv3XTJDm339H5k+2Ah5ELuFA0HNIeqrP1ZNo2MzYR6Ib9BUUNsRH4UaUlCmA58oaPOnavWbOG9evXM3x44+65AT07MaBHJ9bu2B93keFwOFi5pZD/mmLt8DttaE/e+by1kffwMEyTqRMKbNfNX7aZ4rKqdtEtaYfL5aS8soaZby/j0VvOt6y/cHwBr3y0mtVbi0hNduMPGPTMyybZJgK5s7BUJh0AXr/BNeeMsP1cqqur+ctf/hK8+DBiEJroJFLsM9hHJVYpXS/Wk3uorq4vkNqtJ5AW/mDy624N669qkN/DIaQrcVPdvzsRU9JCYt9llYzVAypWn3dbXqctRdDB8xlHI5MJovk3YGL9nD2IFxoYftyZeaT0OBnT3xYf2ZhzG1LQbzfzcjLSBFJCaCFWX6+3NSp7FxvGYl/SsZfvmBCrQPLvR4VYIBDgww8/tAgxd5KLcSf1ZtWWwrgLMU+Siw27DlBV6yMtyPdq4vB+5OVkUF5ZGxUPr1qvnwE9cvneaGtE1ecP8P6XWxLexLU50lM8zF+2leUb9zJqcONShCSXk+vOG8Vtj4s7QcAwOXlAcIZG2LL3EA4c1Hj9nNgnL6R4nT17NsuWWZrbnqV9HGQSSYgFH9RbO+OupdRgbQhoamjvPCSNNwOxuuhH0zV2KUgasCtWI9H6WpoliGv5AqJj1WG3T8FuxNFsimhIS7oyg0NEbdnHDkH3uxO6xieaJFMn9E3TJK3fOJzJ6Zi+GpDfSD6N37cDidxF9wq9ZexH/g6us1mXj5g4v4vUBDby/KwjA2niaQ/HyFCcG2L5Sto2nSEhaKn6sAz0mz/f3sB80in9SUvxxD096U5ysuvbUr7ZEjzPF7rkZDBuaG/bkT2RwOsPMPX0IWTYFOJ/uW43G3cdsI0OtSecTgder59n59l3/k8ZPYCxQ3pSWe0lLdnNKQOtx+Jan58te4tJSnLiNwyuP28k6SnWz6yyspLHHrNYGhUhBq5KywgON8ZqDIofa21Uc14yexDz15OACcCvkRqxNUhtW7gHmQykcPlKJJW9FhnvFE3/MJAIXPDJIlaWAk25sTdHa9OSdnMyTOKXC5TP2uHE07EHHCvS/xFiWbK8wW0ZUoaTaJYPrzaxrv6gug/rHNR6Lo7s7sSUDoiQtGNRLHckWrQ0XLUUOSgebSNdunQpW7ZsYcCAxlGfIX3yKOjdmW+2FcU1KuZwSM3R+19t5lQbH6+rzj6ZD77ajGGaOCPof+YPGHTJyQjpCP/vj9fiCxgkt9P6sIakpbhZvHonH6/czlmnNO5YdzodXD1lOIu+3sHQvvkM62f1l9y2r4RdRaX4/AHGD+vNBePtP7MXXniBtWstc7yfpv20LydSRCw4AhYr00cPYjLZkLIwH1uDdEw27JrsgnRd9kVGCJ1Udz8P+1ROQzohUwfOQ0bINFWL0xa8yHtsGPkLjhhFi7YIsdYW0JpYB03PRbyyYvk3UC8IZTSTaWAGGunhMuzPgdnI93MkyvvXEjYivyO79vqGv/O3sJ81OxkYRNtmx8aL87E2u4B09TZn09MuaKkKOAQspsGMuCNHjvDOO+9w6623Nn5il5MzhvdlxaZ9cU9PpniSWLJ6J8VlVZaOvREDuzF5ZH/mfbaJrDRPxC7Zqmt9XDzxRLrlWs9v63bsZ8k3O21nJ7ZHHA6ZIfl/by/j9JP7WNK8Z47oR0GfPMaf1Me2Q3XV5kLKKqtJT/Hwsx+cajukvaysjMcffzx48S6sMwyV8CgOuh8rYZCCVYi1JS1aVHf7rMEyFxL56omIsmFIh1lPpNYs+I+yK8c81IJ9ziKBF6swiVVDQUusC4IPf20RTcG1aeU0/o5iihnw4+7QjaSsLpjGUWu14L+BetyIGLPMTosjZchnaPe7adgJ9n7ddsG/8VTgeiSa3N64PsTyz2jeb61d0JrCqDeDF8yda+9LeMbwvtI9GXIIdGxwJ7nYfaCM95ba1/T95KKxdMxMCTmXsqUYpklqspuLQtQ5vfbJWsqranE5EylA0jbSkt0s37iXBcusZQjuJBe/umIC548bZPvYj5ZvpabWz4XjCxhdYO/ZN3PmTDsX/SdpXzPUEukLDz5R5tHyC7PWkIpV9EU68hBARPoSZGjyHUjUq360zO1AcK1CElJraG1vbjs+rN18JxL9TraOyMzF1tKW32uwyGnrqKU2YpBxwkSc7rSGJq6hmhFSiN2FSbjUEFo4NhRdO7GfRQkyq7K9eYqNI3RaMloR7JjTmgPBAoJSQV999RXr1q2zbFjQJ48hffKo9bXV3LntuJOczFmwmiNV1lKYQb06M/3C0VRWR6bmr8brZ+SgbowcZK2HKjxUzofLt5J6HKQkg3HgYPaC1bZ1gWePOoFBvYI72mHznkMs37SPXvkduGmqZRoJALt27bLrlNyC1Pe0JxJJiAWr2l6IT1e06YNV7OyMweuCnMy2IQOxz677/4bkA1dH6bWDO9pOwmrxEGmG0di0N5YEe9L1pflawCjiIFBTBmajbGsoJ3on4m2XSLgIPfQ6WFA+g309XmfgzkjuVAy4F/sLxK3IpIbjgtYIsRJkJMNRqqureffddy0bOhwOJp3SL+Tg7ViS7E5i855DvLXEvhnmuu+PZPKo/pRXtr1m2TBMvj/WPvrzwVdbKCo+0u67Je1ISU5i2aa9LF4dfrR43pIN7D9cwY++fwq9u9g3z/3pT3+isNDi2/k32teMsUQSYQAraFygn4aIg2gT5HROGdL5FGvWAz/BOgLoYqLzXX0RdD8bGWcTTS6hZcf4SKYml9G4xqwPoQ05I0k6EiHKRD7jdACHK4nydR/gKyvE4Tp6Xt9FaO/Bc6K9oy0kmdDdxcGedIsB+y46uBHpsmwPXETobskniV3ncdRpbWjcMn/srbfesp3bOOHkPmSlpxAw4i/GPG4Xz85bxr5DweUasu7BG6cwoGcnKqu9rT4C+QMGXTpmcMaI4DFr0h349mcbcbejAd8tweFwYAZMnntnRVjp6P0lFbyycA0jBnRj2jn2F6Bffvklzz77bPDilcg4o/ZGIomxzVgjURfYbBdpzg66vwbrieQG4HfAfYih5S+jtC8fYe0yyyc6xrsrsF44/CwKr1NPPnBNCx8TSSG2hsbpXw82cx8jzBDEwmFj3W0rR387DjDNuvqwo2/rMGKNYsdomm/2iCW5hI4o2hkx34f9nNEUpK7W6qqdWHQGLC3ydWwC/i+G+xJ1WivEFlPfiVLH0qVLWbnSemE7qFdnhg/oSq3N4O1Y40lyse9gGU/8x36kXn7HDP72ywvpnpdFZY2vVUehGq+fccN6k59jPZav3FQolhWe41OIAaSkuPl87W7e+NSaqg7m35+sYd+hMn552TjbWZumafLAAw/g91t+Ow8Se1POSJBIQqwWa+v3xUTXymEg1o6uT7EKgBuA3wP3A3fV3aLlehycQsshOh2k+7HWtEwk9BV/W5lB2xsC2vJ7rSAocwLcRHTTk5ch7utdESf2XBqOPHLYuWqEnFuaV/d8icIorF509dh54S1FLFrsGA78NRI7FUX+Ruhj0e0kVkdrm2mtEKskqLvI5/Px3nv2naQXjh8c5yH3x0hP9fDmkg28+4V9F+/Anrk8edtF9MjLtq0na44kl5NzTrWPwM//ajM+fwBHBG0yEg0HUo/31JtL2V8SOnK8Ze8hnp67lEvPGMr3T7VP486ZM8fuN/Ua0gqvtJ2naexvlYmMD4oWt9C4zqUSKaYPJviKLpno1TpVBd2voXUGkeEc4Z6kcTrYgUQn7KYGtIWLgVub3Sr6PEFjz7ihRE/cZAPXBi3bjgQNmuLTJtbdRdNmw7Hk9BDLDwJfhVj3W0Jb+9xYtz4RuR+ZqGHHc9j4mbZ32tK1MxdolG+cO3euXfSCM0f0p1d+B3xRnusYDk6HA6fDwYPPL2TjLvtazYI+ebxwz2WcOrQXZZU1YadVvb4AvfKzbU1LS8qr+HT1zuPCN6w5kt1J7Pz2MI+8HPoYd6hUrERuv3KC7frS0lL++Mc/Bi+uRKJh7ZVEU+ArsdaS/BIxTY00U7CKvDewH08SPLg5h+gNLg5u0z1M81fbwd+ji/A6TtdjHUzfB3iZyLnOn4c0sdSH3VtSExLJ1CTI7yv4SuphWj+EvCl+jkxdaEg4dURLCS1k+iBGwvGmM6HLBhYRekZsEXLxE+oi4Q/Ar9q2axHnFiStascyEm9/I0JbhFi9E/FRVqxYwSeffGLZsENGCpNG9qcmAdKTAMluFyVHqvjt0x9w+Ih9hqt7bhb/uONifvaD03A4HFRUe5udEuD1+RlT0JPsdGv0fck3u9h7sOy4LNK3IyPVw7wl65n9oX0JxtghPXnx3itCFug/8cQTdp24/wBWR3RHlYdpHLXwIF1X9rOoWseguudsKFaqEINPOz7GKoZuIfJCtiPWgvn1ND8WKDhi5iZ824vfYK1LGg98gphutpYkZCbhXI7VNq1HRF48uZ/GYqgbUt8TyfRv/bSFhmwnvDrSWkL/DkG+rx+0cr8ixS9oOLi8Mc0Zmr5N6ItXB/Le72/dbkWcB4D/F2JdIdLRHKtRbDGlLULMD7wevPDFF1+03fj8cYNJT/XYFvTHGhOZkbhmexG//Ns8yirsj7vpKR5+dcUE/nXP5Zw9sj/+gMGRqlp8fsNyiWEiacmzTulv+1wLVwZ3yh/fOBwOkj1u/vLqZ6zdYbX6cjod9MizN/3+5ptvePRRy7FxK/C/bdilNGT47feRbrn7kdboq4lNNxckXkQMxBTxgaBlBcAHyOfVVsYgJpPBURA7QVLPTkSMNWQScHcE9qch92H1t3oljMeVYo002Xuv2D/2eqyeUCcgn/nrwPcIbVUQTBqSivwUseWoryMqA6YhY5zCJdIRMZDo5m1ByyYjXleREPsjgZeo646sw0AaIcI9ac8l9AVeMmL2G68uygmEjsrtJbRnWEPuo2lReh8yQileXm89gf8gx2M7DiAp7S0x26MY01ZDwbkEXbm+/fbb7NplTUuf1L8LIwZ0o7o2MaJiAJlpyXy+dje/+Os8DpaGHqs2rH8X/n7HxTz3mx/ygzNOJCczhapqL+VVtVTX+vD6AlTVeOmam2U71PpAaQUrN+8j2X38pyUb4klyUl5Zy+//uSBsjzbTNPntb39LaanlGDqTps1bXchJKQ/pnpqC1EE8jNQUrKi7vQs8hRx8HgBeRATB/xEdM8+GJKIQA/gfrFfWwxDPwOm0rlA+B6mxeR9J8TRkNmAZkxDE77HOpHwQ6aRqq9lmMvBHrN2YXxG67b8h+7B2et6ONCOEw9dI92hwo4ALsZyYjwioV5BIz7WI2Dqz7nFXICfnF+q2ewM4rcHzHKrbZiVt6wCN1O91JtZ5sGcgv69L2/C805DfV3CN3e/rloeLl9AiAETkvYJcwMWSMYhACRU9vJvQaclgfoZN4KQBlyFR2UvC3bkIcRWSXg31O9iEjDiy77A7TmirMtiE/OCPFmAWFxfz+uuvc9ttwRdBcP5pg/hsTWKNBcxOT2bB8q088doX/P7HwZ31jRld0IPRBT04cLiCFZv2sWZ7EZt2H+JQWRUHD1cydkhPcjKtF7JL1+2hqLiC9JTjY6RRuEjk0c2qLd/yx1kf89BPmr+onDlzJu+8Y1uL+Qvk5FKGpDqqkd+vG+nEykCKzTsgYqwlH3Ya0qk3Cvmj39uCx7aERBViAeSkNgupMaqnO+I2/1NEsH6ERCaDC9zr6Yw4xk9CxqDZhYefQ+p5mmMlErUMLhS8Fek0/BcSDdhGeB20DiQqNwXp3hsZtL4CSX+GM+i6FIkkNjx59EJOFv9GoiuFSIrz5Lp9DD4J1ouxx4HLsV4U96u7XR7G/jTkY+R91He1t8U3KJK/118gv5s7GiwbggiNj5Df2ec0P1YoH4mo3Yi9HcZDWCO84TAPSdPdHmJ9NnIBdxESzY1miUQq8nn9mtAXHR8ikcBwqUGi/08hw87tGIT8Tt9Asg/RFD+TkffX9ElXUpXBZsitxSRBvcci8Yd2PpKHPsro0aP57LPPcLsbnwuLy6u4/N6XOHC4MiFqpRwOqKjyMqx/F5741VS65GS26nl8/gClFTUku11k2dSH3fr427y5eD2Zacn4/AEChkmy25UQn0Es8PoCFJdX8ccbp3DDBaFrrrdv387EiRPZty+Ux2JMmEvdVWFr0+jdu3d/Bqn7GRK06lSsvlWJRDIiDG4Ksd5ATvDfIvPsDiMitgMigvsRuujcQKKQf2jhPj2IdHfZRe99iF/UbkQgFiMn+yokipFXd+uIiMRh2EeI9gPX0bIoyngkHRhOVuEpmu5GHYeI06kfyUi3AAAgAElEQVS03t/pK6Q4/WUa+0fdR+MaoC/qXs+O2cCVDe4/T+g5f63lF8CfsR9eXYoI8B1IxPEA8l46IGnMgYjQt0tpliKRsJC2DKYRoNP4H+Pp2BMzEBxsBeTC7jma91+rQCLrs4GFWOeItpa+SAr0J4jFRCg2I8X7rUnVOZEI+AyaPv8byN/DC0jEKhKj5LoDZyFR9lBji4I5jAi2Z1rwOnnI8SD4hF6DHH8qSZyLYiewLxI7k4L8cTf64SxYsIDJk621p4/OWcw/5i4lKy1atkDh4QAqarz0796Jp2dcQs8Q9UptJWCYLNuwh9RkN06ng937S/lq/V4+W7OTPfvL8BzHgixgGFTX+ujdpSNnjejHuacOtO0orefHP/4x//xn5Hxas7Oz6dGjB126dKFjx474fD527tzJxo0bqa0NaU1iIFfai9sgxJ5H2s2Du7jG0z5C7Dcgo1DsfUVazvvIyXdhKx//fSQyFumxMwZy9X8vYD9yo2l+iryv9Ga2+wfw32E83xBErE9Cphx0rXvuYMuPUiQy/C3ye/oAOQbbRb9+hwiUepoSYq/TODU1h9A2Am3hNOTkOjVCzzcPiVI1aV4YhhADEYiPIlHFcNiCREeXIxcpO5BuxeYaPrI4NoR+EPKdT6B5u4y1SPNAW+ulLkO8usKp09uLvMdFSCR3JyKSm7JByEKiiL2Rv9uzkO+9tXVojyK/mXBqm0IJsURlZSSKlmqQEGkjIfbiiy/aCrHLJ53Ea5+spaLaS5Ir2jNv7XEAVbU+uudm8fitF4YUYV6vF4fDYYnstQSX08GpJx4rYRjWrwvnnzaY8soa5i7ewMx5y9h/+PhKWzqAaq+fFE8Sv7xsPFdPGUGHjOZ9HG+99VaSk5NZsGAB27dvJxAIz+4kKyuL/Px88vLyKCgooKCggJNOOokTTjiB/Px8UlOPncf8fj8rVqzgrrvuYtGiYD9TQK5QzkOiLK3No29BTp6HkAOHgRy02kvHzz+RFNv1SBpjGC1L9YKk5r5ErmQ/aOP+vIecBC7iWK1UW3zFNtc934s07SPVHP9AhM2NSPdlT+Tg3/DA5sc6YD0U6+tu/0R+Pzl1/6YhkbwqJPpSgQiycNKowSKxqTTuSkQImMifcbTSb18g3+U5iJgdR8vnbn4LvImkqCN5ceNFopOrkOhJc0JlQN3turr7JXW3GuSzLkO+syTkt5HJsVKKPFoWAf0UKSHY3YLHhOLfiHh8kObnq/ZAykKuqLu/H4lUFdX9W4VEp+sjzx2Q95VO5Oap3o58ztMJPSO0vVIZqfBcH+RLPToSIjc3l2XLltGnTx/Lxg/N+pjn3llBZnp8omK1Xj9ZGSk8PeMSTupvL9D9fj/XXnst5eXl3HPPPYwZMwanM/LC8dvicn7z1Ad8tmYXmXGOEkYCEWE+8jpk8OjPz7cdfN4clZWVbNmyhR07drBnzx7Ky8upqqrC4XDgcrnIyMggNzeXTp06kZeXR35+Pp07dyY9PT3s76iyspIf/OAH/vnz59tdjLwDPGaa5kct3nmge/fuLo6Fvg3kxBb/duHW4UFSJuORaE0X5Gq3Y92/1cjBuBQ5AdWLnHVYOwMjRR7S0TkA6TbsUbcv9aIlFRG+lXX7V4qI6q1IRGEdka8VSUMiABnIZ5SDnIR3IyesUHV10eYZRCjW8xrwwzjtSyjykBmkk5Hvs2PdLQdpYKiPABYhEZnFiEhs0e8rzIhYQ/pwzFzULpUaK3YjTUczsTawRIIpSOF/tGefNsUBJBV+JtKkEIrVSOq4qW7g9hYRWxTJPOk/CaonuPfee3ngAWvd5LZ9xVx532xqfYGYR8V8/gAul5PHb72QiSeHnuZy88038/TTTwOQlJTEqFGjuPTSS5k6dSoDB4bbHBUeFdVebnv8bRZ9vYMMm1E/7QmfP0B6qodn7vxBSJGbKCxZsiQwceJEl00KchHwqGma82we1izdu0fKmzNhcSARMg8S8fHStqLwSOJETt4m4aUxjnfm0dgM9FlC1wAmCg7kt+Wp+38vIkDa5AjeCiFWzwikbutiot9Z3ZDdSLfmYzSe2xkNHIhtyo1IKUBz6fZIUS/A/o5cLOUigvOiZh5zA6Ed9vORzytR6sCa46tI7ugZSPvrUXr27MlXX31Fly7WE/LvZn7I7AWrYxoFChgGPr/BQz85h4tPD66jPsadd97Jn//8Z9t16enpjB49mjFjxjBs2DD69+9PXl4ebrebHj16tDpqdrC0kmv/8Cq7ikpJaafu+yZQXePjwelnc9mkk5re1jQxkUkH8aKyspIxY8awfv364FWvAH8zTfOL1jzvd0CIKa2jvnHAhQhZP83UNbWRdCTV2dDe4bdIsfZ3jjYIsXpykajdBUi9Uy9anrJvCgNJ6X+ApF0XEblGgJYwEOlmvADpLo70eLE9iFZ4H+nyDRaZSUgEMFQHK4gwvxP75oysuuWpWC8Qg7MTZtC/dv/f1Lq2bu8ANkTyLOhAPtxG4c2HH36Yu+66y7Lx+p0HmPbAK/gNA1cUUn7BGKZJdY2Pu645gxvOD92599BDD3H33S33jZwxYwaPPPJIyPVFJUdw4LAdBl7Pp1/v4Gd/eROXyxlXgdJaqmt9jBrcg+fv/mHI73TPgTIWfb2dj1duJ79jBrf88DS6dYrGjOXm8Xq9nHrqqaxaFTxRh7uBZ03TbFUtggoxJQR3An9qcP8IUqgdrWjHWGAJx2yKTKRo2rY48ngnAkKsIcnI7MwCJE0+BEmRp9TdUoP+DSB1Y7UNbhVI4fs3SLPIzrp/E6mWtCvSqXoykjLsg9SA5SDpeDfHxKiJvC9vg38PI8JrI/LetiNlTGVhvPZPkIaCpqI1MxFLm3DqJROWSIZeTMQUs5EQe/bZZ5k+fTqdOnVqtPGQPnlMGnUCcz9dF/WomImk/35y0ZgmRdgzzzzTKhE2ceJE7r3X3g/QNOGpN79k1vurSHI6GTesNz+9eCx9ulqbYyYO78vE4f34cNmW9pmiNOHSM4bairDyqhr+MmcJ7325mZLyKlxOBwETFn+zk6u/N5yppxdEVJCVHqlma2EJ3XIzQz7vwYMHKSwstFu1lOOvIFSJP8HDzDORk9ubUXq9a2h8jC/CaiKrtI5ajplEN8RF41rFhjWL1Rwr4q9FhHii145+W3db0GBZOhIdTEdEWDLyO6sXYA0FZwmtr2t7GhGnzxO627Iv7ScFGZJI58D+g/iTDK1fsG3bNl566SV+8QvrlIYfnXsKHy3fSiDKUbHyyhouO2sYv7oi1AB7GVh+yy3hdiwfo3///syaNYvMTPu6wEdeXsTTb35FeqoHB/Cfj9fw5brdPD3jEgb3tjaUXDl5GItWbcc0TRztKCrmDxjkdkzntKHBJteShrzn6fm8+dkGOmSkkJWWfPToU3akhr/MWcysD1YyclAPThnYjRP75JHXMYOc7DQyUj220cFar5+KGi+V1V7KKmrYf7iCvQfLKDxYzoZdB9m2r4RzTx3A7Vc2/Z3v32+xx9mO9eCqKJFgHXJiymmw7HKiI8T6YPXDWohEKJToEUAiXQlpHBohwu3YjQQfIOngfyENHQ1ZjDSetPvPOhpn+p8BTzRcUFBQwJdffklWljUy8YcXFvL8uyvJilIHZXlVLWcN78fjt00lNdledy5evJgLL7yQsrJwoqXHyM7ONt59913nuHH2tjwvvLeSP7ywkPQGYsJRt08jBnZj1j2XW+rBqmt9XHrPS+wuKsXjbj/+YtW1PsYN683//do6qWLx1zuY/sjrpCW7Q4pLf8Cg1ufHMGQoe0aah5wsEWLJbhfJ7iQChknAMPAHDKprfFTW+Kis8VJR5cXnD+D1B6isrqVLpyxuv+p0rv7eySFfb8+ePUyYMIHduy2d4P+LXEy0xdC1VY9TvhO8QmO3/EokhRjJWjEHIu4ubLDMi3S9WvLw3xUinJpUYksnpNGk3uduNTJhoyhuexRBolEV/jJSZHe0JXHDhg3MmTOHm26yNuv8+ILRLFi+lUOlVREVHg4kHXlin3weuvmckCJs7dq1XHXVVS0WYampqYHnn38+MG7cONsc4sKV23h09qdi5NpADJjIjMtVmwt5f+kmLj79xMbPm+zmxL75bN1b3K6EWMAwbdOtAItW78Qwmo7wJbmcJLnko6yv59tdVYphmMh/ja8aHA4HTqcDp0NuBiZOJ/zgjKHcefUZ9O4SehxhdXU106dPtxNhVUgYXFGixT9pLMTSkQvX84mcxcUjNBZhIALwOyvClHZPMRL9egzp7ryY40SEQduHfttxGJtxBI899hiHD1uj4l07ZXLjhaOp9UW207za6yc/J4NHbzmPzh3sO3H37t3LVVdd1eKROoMHD+add95xXnzxxbYibNPug9z77IcEDDOkPYfDAYtW7bBdN7RfXqujMfHCAXQNUYu189uSFtmUOB0OXC4nHreLlOQkUpPdpCW7SW148yThTnLhDxhU1Xo5sW8+f/3lhfy/X01tUoQFAgFuvvlm5s+3ne38PNHtYlOU+Yibf0POrFsWupU7PPoj7vh3BC1fT12UV1HaMQbwS2QCwc747kpkiVZh1kyCPqiNGzfyxBNP2G58xeSTmXBSHyqrvRHJlfr8BsnuJB6++VxO6NHJdpuysjKuueYa1q5tyhfuGCkpKUyYMIGZM2fy5ZdfctZZZ9nuakl5Nb9+6n2Ky6qatKFwuVzsL6nAMKyCKzM1mXZUHnaUnEyre351rY/DR6pxOiPzhkwkjXmkqpZar4+BPXP5w43n8NLvruC8Uwc12W1aVlbGFVdcwaxZs+xWFyFjNBQlmpjAr5BROA2ZgoyReRwRZvYHLit5yInpKWTe5CVB6/ch42wiMStQURKBcCdVtBuiZVh1CGk7fazhwr/97W9cc8019O3b2Eg1yeXkjqtO50fb9+P1+dtk8moYJv5AgPtumMy4Yb1tt/F6vdxwww2hRtwAIrz69OnDySefzFlnncUZZ5zBwIEDm/QJ8wcM7nl2Pmu3729UkG67nwGDtFSPrUAxTOm2PB4IGCYV1d5WvR8TMA0Tv2Hg8wcwDRO3O4n8jhmcNrQX3z91EKMGdw/Ld23Lli1MmzaNpUtDztz+PVKoryjRZidiWPkfxLOpng7IeJ2fI+aWezg2ALsKqSfzIF5kHZA5fgMR2wQ7PkFqdi1GeYqiJA7RdA59DnFwLqhfUFxczIMPPmg72PnEvvncdvl4fv/cAtJTPK3qGDRNqKzx8osfjuOHZw4Nud2MGTN4/fXXGy3zeDwUFBQwbtw4TjvtNEaOHEmfPn1ISwtvFJhhmDzw3EI+XLaFzGZEmGlK0fm5YweEeK5EMSkPHxNsh5enJidxysBuFBYfqRNkJk6HQ75fBzhwACamidSCmfL5uBxOXElO0lLc5GdmcEKPTgzr14WTT+jK4N6d6ZiZanmtEARefvllx4wZM5whrCpA0kJPteZ9K0orWYNEsn6DHCeD6yd6190mtOK59yK/5/9FLAQURUlgoinEyoA/I8WpR3nuueeYOnUqF198seUBV08ZzprtRby6cE1YQ6KDKa+q4fJJJ3HLpaeF3Oavf/0rjz/+OADJycmcddZZXHDBBebEiRMZOHCgIzm55d2blTVefv/Pj3h9UXieaOVVtVw0YQg/PHOY7fqATboy0XE6HKQmW02mXU4nf7zpHK47byRfb/mWnd8e5mBZJTVeH9W1fqprfbgcDjLSkklP9ZCe4qFDRgpdO2XRKz+bLp0y6dwhvTVec+b+/fuP3Hnnnc5Zs2Y1Na5jI9By3xJFaTsHkTTlTCSleC4wmqYNLENRDiwDZiMdk4citI+KokSZaM/SmYVMdp/ccOGvf/1rJk6cSE5OjuUBv5l2JnsOlLF0/R6yWnDyLaus4Yzhfbn3R5NCRtNef/11ZsyQmtULLriA+++/n5EjR0IbbDy+XLeHR15exNptRWSmeZqt7aqoqmX4CV2550eTQm7T3gr1DdMk2ZNETpZ99NDpdDCoV2cG9bL6phmGCY6Ijjoya2try2fPnl1+3333Ze/evTv0KANpLLkOGSuiKPFifd3tIaTbfEDdrR9SK5ZWd0tHfKrKETPQMiTNuRJxLT9uusgU5btEtIVYAHgAGatxtLhq06ZN3HPPPfz973+3PCA7PYW/3HI+N//5DdZs3x+Wv1h5VS1jC3ry6C3nk5ZiP/rriy++4Prrr8fv94ccuxQuPr/Bso17+M/Ha1mwfCs+f4CMZkSjAzhS7WVAz1we+8UF5GSFTq21t4iYaZqketxNvqdQRKqIH6C2tjbw5ptvFv/5z3/2LV++vAtNz4E7AvwX4qIfUVrahasodZhIneJ2xMhSUZTvALGYLv0pkp6c3nDhP/7xD8aMGcN1111neUB+TgZP3n4RM558jy/X7yYzLdk2YmKaJuVVtYwe3IO//fLCkHVDO3bsYNq0aZSXl3P77be3SoRVVHtZt2M/n6/Zxedrd7Nh5wG8/sBRW4XmKK+qFYuFX1xAr/zQ9gogw8nbE4ZhkpriJjM1dgPcG3Lw4EHeeOMN85lnnjFXrFjRCRkz0hRliAh7P/p7pyiKoiihiYUQA+lIOxsZu3GU22+/neHDhzN8+HDLA7rlZvGPOy7if19ezOufrsXrN0jxJOFyOjAMk5o637ErJp3EXVefQXaImrKysjKuvfZatm3bRn5+PrfddluzO2ticuBwJdv2FbN2exHrdx5k466D7DtYRo3XjztJnN7DMVz1+8Xn6pwxA7n/x2eH9DRriJ2lRSITMEw6ZaWRHsP5mIWFhSxZsoR3332XDz74gKKiIgfh/Z53IOnyL6K7h4qiKIrSPLESYnuBXwNzGi4sKSlh2rRpvPfee/ToYe3AzkpP4YEbv8eUsQN4+cPVrN1RRGW1l/RUD6N69uC/vncyk0b2Dz02x+/npptuYsmSJQCMGjUq5PiZg6WVbN1bzNdbvmX5xr1s3nuIkvIqvL4ATqcDd5ILT5LLtjPQjoBhUFnto1N2GrddOYFp54wI25aj/Qkxg05ZaWHZSLSG8vJytm/fzjfffMOqVatYtmwZGzdupLi4uKVPNR+4EbBY6iuKoihKPIiVEAMZsXEecG3DhfUjht5++22ys7NtHzjhpD6MH9aHQ2WVlB6pITPdQ+cOGbiaqC8yDIOf/exnvPrqq0eXpaeHjkZ9smo7//OvT9h3sJzU5CTSUjx46mYchothmHj9AXz+AFnpKVx5dgHTLxgdcvRPKNpbatI0oUOItPCSJUu47777SE9PZ9CgQfTq1YsuXbqQm5tLUlIShmEQCATw+/0EAgHKy8vZs2cPhYWF7N69m3379lFUVERhYSFer7e1u1gKPIiYZUZ2hIOiKIqitIFYCjGAO5H27IKGC5csWcKVV17JSy+9ZNtJCTISqHOH9LBSeyBpz2eeaTxpac2aNRw5coTMzEzL9pedNYwxBT34YOkWPl29ne2Fhzl8pBp/QESRy+k8WlheL/8M05SbYeLAQVqqm8G9O3PG8H5cMG4w/bvbv5fmCATaV0QMpK7PjpdeeomFCxcCMG/evEbrHA5HtDtEq5HZpw8DW6P5QoqiKIrSGmItxPYDP0GKpBt5Hbz//vucffbZvPzyywwePLjVL1BTU8Mdd9zBk08+aVm3YcMG3n77ba666irbx/bu0pGbLhrD9AtHs+9QOdv2FbNtXwmFh8rZd6ic8ooafP6AiDOHdHh2yk4jNzudE3p0YkifPAb0zMUTRvqyvLyc999/n4suuohg7zIRdu0Jk66drOIWYNu2baEfFR0RZiKt/K8hUVidHakoiqIkLLEWYgCLkaG0Fu+KVatWMXnyZJ588klbw9fm2Lx5M9OnT2fx4sUht5kxYwYjRoxoUuw5nQ565mXTMy+bM0f0a7TONI+lDls7iunAgQNMmzaNqqoqLr/8csv6gGk06cyfSJiA0+Ekv6M1IlZeXt6kEIsgtYif0qfI2JjFSDRMURRFURKaaA39bo5/IOM3LBQWFnLJJZdw2WWXsW5deMGMkpISHnvsMcaPH9+kCAPxeLrsssvYsGFDi3caJEWa5HK2WoTNnTuXsWPHMn/+fLKysmy3CQSMdjP02zRNkj0u2xqx6upqSktLI/2SPsSAdTkyxuV6JN09HBkVMx8VYYqiKEo7IR4RsXpmIE7RP7Vb+Z///If33nuPyZMnc9lllzF27FhycnLo0KEDgUCAwsJC9uzZwwcffMCsWbPYs2dP2C+8du1axo8fz0MPPcT06dNJSor+x7B27Voeeugh5syZczQl53LZpzCla7J9KLGjZq42QuzgwYNUVVUFL34M2AwMAXoCGUia2lN3A6hBhhyXIp5fJcgA5M3IMOSDyAiXQITfjqIoiqLElHgKMYCfA6nImBkLlZWVvPXWW7z11ltkZGTQsWNHOnTogGEYfPvttxw+fDhUndFG4B3g9lAvfPjwYX7605/y/PPP8/Of/5ypU6faFvG3BcMwWL58Oc8++yyzZ8+msrKy0fpQQixgmLSX3KRhmKSnemxng+7YsYOamprgxZ8AbwUtcyAmrPW/Rx8qshRFUZTvAPEWYgHgBsRn7Lc0kSqtqKigoqIinMjXDmAakrrKQnyjQrJ06VKWLl1Kv379mDJlCueddx5Dhw6lZ8+erYqUeb1eNm7cyMKFC3njjTf4/PPP8fvtHRNCCzEDHO1DiQUMk5zMNNJSrGauNmnJANKwEYyJ2EqotYSiKIrynSLeQgzkJHwvEsV6HGid54PwHtKVWa/W/hvYB/wGaHL+zvbt23nqqad46qmnyM7OZsCAAQwePJh+/frRu3dvevXqRXZ2Nh6PB7fbjdPppKKigqKiIvbv38+BAwdYt24da9euZdOmTXaRIAtGCL8wh9PRbiJiAcOgY1aK7ZSBw4cPBy+qAL6NxX4piqIoSnsgEYRYPS8hA5jvB66iZY0EZYhX1KNIWqsePzJe6TXgFuByoFl31bKyMpYvX87y5cst6xwOB06nE5fLhc/na5MFg8/ns13udrnaS4kYhmHSMTPNdt369euDF5Uhw7YVRVEURSF+XZOh2Apcg8ylnI0UZTfFbuAPSMfcwzQWYQ1ZC9wMDEXq0d4ELOGacDBNk0AggNfrbYkImwM8H7wwpBBLchFdn9PI4QC6dLI3c7VJTR4AKm02VRRFUZTvJIkUEWvIx3W3rsBZSIddR6ATElXZCnwDLEM66sKlEHih7tYTEXwjgBOBvkAPwB2RdyDeVu8hfmkfIt5pjQgdEWsn4TAkg9o1x77JwSY1eRBo9ZwiRVEURTneSFQhVs+3yIiaaLAHeK7uBtABEWdD627DgP6IGOxAeMnCfUit2/vA23X/X4+liKo+tRk8tDwpzMHi8cY0xVPNbuxUdXU127dvD158ICY7piiKoijthEQXYrGktO62psGyNKBz3a0b0BvIRkSZA0ntViJdnzuRSN0h7EvtLZX5Xq8XwzAs3ZPupETLGNtjmiZpyR7ybOZM7t+/n2+/tdTl747JjimKoihKO0GFWNNUIQaiuyLwXBYh5vf7bYVYUghbi0TDME0yU9y244127txp8U1DUsOKoiiKotTRPkIvxweWKFmogv/Wjk+KNdIxmUp2utXM1SYaBs03XyiKoijKd4r2ccY/PrAUqft8PgIBq4G809k+ivX9AYPOHdNJ9lgDqzbGuwb2Zq6KoiiK8p1FhVjssDi8+nw+W1NXVzuZ+B0wTTpnWwv1QcYbBaFmroqiKIoShAqx2GHxqghlCOtyOmkXWsw06d45y3aVTWryMGI9oiiKoihKHSrEYoclNWmapm1ELCnJicPRPr6arrlWIeb3++1SkweQrlRFURRFUepoH2f744Pa4AWGYdjWiCUluXAmeEjMNE087iRbD7Hy8nIKCy0NknvRod6KoiiK0ggVYrGjOnhBIBDA77dqE7fLidNBQo85MkxIS3HbuuoXFRVRXl4evFg9xBRFURQlCBViscNSrG8Yhq0Qc7mcJHqRmGmapKd46NzRGhHbu3cvVVVVwYu3xWTHFEVRFKUdoUIsdtQAjfKQfr8fr9c6ejHFk4TL6cDeoD8xCBgGnbLSSEvxWNaF8BDbG/WdUhRFUZR2hgqx2FFBUMG+1+u1ixyRkeIhyeVMYBkmHmL5ORkku61TAGxmTPqROZyKoiiKojRAhVjsqCbIwsLr9dqNASItxS3u+gmsxEzDpEfnbNt1Nh5iZaiZq6IoiqJYUCEWO2oJ6pwMFRFLT/HgcjkxE1iJmUDvLh1s1+3ebanLL0U9xBRFURTFggqx2FGDTeekXUTMneTCk+RK2K5JE3AnOemaa+2YPHz4MDt37gxeXIh6iCmKoiiKBRViscNWiNlFxNxJLlI8Sbau+4mAaUjHpF1q8uDBgxw+fDh4sRbqK4qiKIoNKsRiRw1SsN+I0lJroMjtdpKe4sFITB1GwDDJTEu2NXPdu3evnYfYlpjsmKIoiqK0M1SIxQ4fcCR44f791hr2FI+brPRk2/FHiUDAMMjPySQzLdmybts2W7swFWKKoiiKYoMKsdhiydkdOHDAspEDyExPxkjQ1GTAMOiWmymdnUFs3rw5eJEJWPwsFEVRFEVRIRZrioIXlJSU2G6Yk5mWuMX6pknPvLCtK0pQDzFFURRFsUWFWGyx5CGLi4ttN+yUnZbAwyYd9MrvaFnq8/nsOiYPAPZvUlEURVG+46gQiy2WiNiBAwfw+XyWDTtmpiaki5hhmqSnuBnUK9ey7tChQxQWFgYv3oFNk4KiKIqiKCrEYo0lD1lcXGzrJdalYwZul3V8ULyR0UaZ9LBJTW7bts1uzqTF3VVRFEVRFEGFWGw5GLygpKSEQ4cOWTbsmd+BlOQkjATzsPD7A/TvnkN2eopl3ddff233EEv1vqIoiqIoggqx2FJEUJqurKyMffusteydstPITEu8zsmAAUP75mFYk78AAAhkSURBVNuuW7p0qd1iFWKKoiiKEgIVYrGlBJtRPzadhnTISCE/JwN/IHG8xAzTJD3VzenD+1rWVVdXs3r16uDFpcC6WOyboiiKorRHVIjFlmLAUkS1ceNGy4buJBdD+uThDwRisV9hUev1U9A7j4JenS3rNm/ezJYtFt/WDcCuWOyboiiKorRHVIjFlgA2nlohaqsYXdATh8MR7X0KG5/f4Mzh/XDZGLm+88471NTUBC9eBQnZ/KkoiqIoCYEKsdhjiRCtXr3azvaBUYO6k98xA18CpCd9/gBdO2Vw/vhBlnWBQIB58+bZPeyrqO+YoiiKorRjVIjFHksesqioiBUrVlg2zM/JYNLIE6iptfqMxZqqWh+XnjmMHp2tthWrVq1i+fLlwYtrgWWx2DdFURRFaa+oEIs9a7FJ182dO9d24ysmDSMzLZlAHAeA13j99M7vwH9972Tb9S+++CJ+vz948RfA+mjvm6IoiqK0Z1SIxZ7t2PiJzZs3j127dlkEWkGfPM47dRAV1V7iUS0WMEwCAYNbLx9PXscMy/qNGzfywgsv2D3UNlepKIqiKMoxVIjFniJgW/DCgwcP8tprr9VgEy277vyRdMpKw+uPbQelYZpUVNVy88VjmTphiO02f/3rXykttThylABvRHv/FEVRFKW9o0Is9hhIetLCc889V1JdXW0ZDH5C90789JJTqfFa0n9Rwx8wqKjycuPU0dx2xQTbbb7++mv+9a9/2a2ai8yYVBRFURSlCVSIxYf5dgvXrl2b+u6771qq3gGu+/4pnD3qBMoqLRYREcU0TSqqa/G4Xfzuhkn8+pozbbfzer3MmDGDqqqq4FXVwFNR3UlFURRFOU5QIRYflmBTJwbkPPbYYy6v1/tN8AqHw8ED07/HySd05UhVbcR3yDBNKmu81PoCfH/sIF6+70quPeeUkNs/+OCDLFiwwG7VS2i3pKIoiqKEhSveO/AdpQI4DSgIXrFnz55O6enpr0+YMGEY4Gm4Lj3Fw+kn92Ht9iK27yvBneTC2QbDV9M08foDVNf6SHYnMaqgB3dfexY/veRUOmWnhXzczJkzmTFjht2qg8D1wOFW71QCcf/998d7FxRFUZTjnMSxbf/u8X3gXbsVqampn3300Uc7TzvttKvt1h+pquXxf3/Oqwu/oarWR2qyG5fL2eyXaZom/oCBzx8gYJgku5Po3aUDk0eewLmnDmRw787NCrtZs2Zx0003UVtrG5X7GfD3Znaj3WAm2MB1RVEU5fhDhVh8+QiYZLdi7Nixb3z44YfdMjMzx4Z68Ddbi3hpwdd8tnonB8sqCQRMXE4HDocDh0PaL03DxDBNHA4H7iQneR0yGNSrM6MGd2f4Cd0o6NOZ9FRPqJdoxCOPPMLdd99t5xkGMBu4muNopJEKMUVRFCXaqBCLL99DomJJNuuMc8899+NXX321Z2Zm5sCmnqSo+AirthSycddBCg+Vc6Tai9cXIMXjIjMtmdzsdPp2y6FXXjb9uueQm53eop3ct28fd9xxB3PmzAm1yTLgXMS24rhBhZiiKIoSbVSIxZ//BW4PsS4wZcqU5S+99FJebm5u31juFEBVVRXPPPMM//M//8OBAwdCbbYBSbNaZmi2d1SIKYqiKNFGhVj8SQcWAKeGWG8WFBR8+9RTTyVPnDixUyx2qKamhnfeeYcHH3yQ1atXN7XpGuBSYEss9ivWqBBTFEVRoo0KscTgJCRF2T3UBqmpqd5bb73VcccddyTl5ORE5XvbuHEj//73v3nllVdYt25dc5t/CFwDhAyVtXdUiCmKoijRRoVY4jAGGQvUramN+vfvz2233cYVV1xBbm5um16wpqaGjRs3snTpUubNm8fChQuprq5u7mF+4GHgj0B03WXjjAoxRVEUJdqoEEssRiNiLGRkrJ7u3btz4YUXcu6553LKKafQrVs3XK7QtnCGYXDo0CEKCwtZs2YNn3zyCUuXLmXr1q2hrCjsWArcBSwK9wHtGRViiqIoSrRRIZZ4FACzgFHhPqBjx47069ePHj160L17d9LS0khLS6Ompobi4mJKSkooKipi9+7dFBUVEQi0eHj4FuAvwPMc51GwhqgQUxRFUaKNCrHEJBv4PWKQamdtEQv8wArgn4hH2JE47UfcUCGmKIqiRBsVYonNeOA+4Gxi911tR9Kj/waWAy0Onx0vqBBTFEVRoo0KscTHAUwG/hsRZJkRfv4KYB3wJbAQ+AQoj/BrtEtUiCmKoijRRoVY+6IvcAEizEYAPWnZd2gARcBe4Guk6H4pYsZqO7fou4wKMUVRFCXaqBBrv+QgwmwQMAzIA3KRiFkAEVbVHBNeO5Gi+11AMd/hlGO4qBBTFEVRoo1DTzaKoiiKoijxwRnvHVAURVEURfmuokJMURRFURQlTqgQUxRFURRFiRMqxBRFURRFUeKECjFFURRFUZQ4oUJMURRFURQlTqgQUxRFURRFiRMqxBRFURRFUeKECjFFURRFUZQ4oUJMURRFURQlTqgQUxRFURRFiRMqxBRFURRFUeKECjFFURRFUZQ4oUJMURRFURQlTqgQUxRFURRFiRMqxBRFURRFUeKECjFFURRFUZQ4oUJMURRFURQlTqgQUxRFURRFiRMqxBRFURRFUeKECjFFURRFUZQ4oUJMURRFURQlTqgQUxRFURRFiRMqxBRFURRFUeKECjFFURRFUZQ4oUJMURRFURQlTqgQUxRFURRFiRMqxBRFURRFUeKECjFFURRFUZQ4oUJMURRFURQlTqgQUxRFURRFiRMqxBRFURRFUeKECjFFURRFUZQ4oUJMURRFURQlTqgQUxRFURRFiRMqxBRFURRFUeKECjFFURRFUZQ48f8BXXPaSpsBa7QAAAAASUVORK5CYII=;clipPath=inset(11.59% 0% 13.77% 0%);" vertex="1" parent="1">
          <mxGeometry x="1280.33" y="495.29" width="159.34" height="54.71" as="geometry" />
        </mxCell>
        <mxCell id="CaZW2Dd4cFp9OG85ohZh-40" value="10" style="ellipse;whiteSpace=wrap;html=1;aspect=fixed;" vertex="1" parent="1">
          <mxGeometry x="1460" y="470" width="30" height="30" as="geometry" />
        </mxCell>
        <mxCell id="CaZW2Dd4cFp9OG85ohZh-41" value="" style="rounded=0;whiteSpace=wrap;html=1;strokeColor=#EA6B66;" vertex="1" parent="1">
          <mxGeometry x="1240" y="680" width="240" height="160" as="geometry" />
        </mxCell>
        <mxCell id="CaZW2Dd4cFp9OG85ohZh-44" value="11" style="ellipse;whiteSpace=wrap;html=1;aspect=fixed;" vertex="1" parent="1">
          <mxGeometry x="1460" y="670" width="30" height="30" as="geometry" />
        </mxCell>
        <mxCell id="CaZW2Dd4cFp9OG85ohZh-45" value="&lt;font style=&quot;font-size: 18px;&quot;&gt;&lt;b&gt;HA Database&lt;/b&gt;&lt;/font&gt;" style="text;html=1;strokeColor=none;fillColor=none;align=center;verticalAlign=middle;whiteSpace=wrap;rounded=0;" vertex="1" parent="1">
          <mxGeometry x="1300" y="700" width="120" height="30" as="geometry" />
        </mxCell>
        <mxCell id="CaZW2Dd4cFp9OG85ohZh-48" style="edgeStyle=orthogonalEdgeStyle;rounded=0;orthogonalLoop=1;jettySize=auto;html=1;exitX=1;exitY=0.5;exitDx=0;exitDy=0;entryX=0;entryY=0.5;entryDx=0;entryDy=0;fillColor=#fff2cc;strokeColor=#d6b656;" edge="1" parent="1" source="CaZW2Dd4cFp9OG85ohZh-46" target="CaZW2Dd4cFp9OG85ohZh-47">
          <mxGeometry relative="1" as="geometry" />
        </mxCell>
        <mxCell id="CaZW2Dd4cFp9OG85ohZh-46" value="Master" style="shape=image;verticalLabelPosition=bottom;labelBackgroundColor=default;verticalAlign=top;aspect=fixed;imageAspect=0;image=https://static-00.iconduck.com/assets.00/redis-icon-512x439-sj53pjc8.png;" vertex="1" parent="1">
          <mxGeometry x="1250.03" y="750" width="69.97" height="60" as="geometry" />
        </mxCell>
        <mxCell id="CaZW2Dd4cFp9OG85ohZh-47" value="Slave" style="shape=image;verticalLabelPosition=bottom;labelBackgroundColor=default;verticalAlign=top;aspect=fixed;imageAspect=0;image=https://static-00.iconduck.com/assets.00/redis-icon-512x439-sj53pjc8.png;" vertex="1" parent="1">
          <mxGeometry x="1400" y="750" width="69.97" height="60" as="geometry" />
        </mxCell>
        <mxCell id="CaZW2Dd4cFp9OG85ohZh-54" style="edgeStyle=orthogonalEdgeStyle;rounded=0;orthogonalLoop=1;jettySize=auto;html=1;exitX=1;exitY=0.5;exitDx=0;exitDy=0;entryX=0.5;entryY=0;entryDx=0;entryDy=0;fillColor=#dae8fc;strokeColor=#6c8ebf;" edge="1" parent="1" source="CaZW2Dd4cFp9OG85ohZh-50" target="CaZW2Dd4cFp9OG85ohZh-31">
          <mxGeometry relative="1" as="geometry" />
        </mxCell>
        <mxCell id="CaZW2Dd4cFp9OG85ohZh-50" value="&lt;font style=&quot;font-size: 17px;&quot;&gt;&amp;nbsp;Identity&lt;/font&gt;" style="rounded=1;whiteSpace=wrap;html=1;strokeColor=#d6b656;align=left;horizontal=1;labelBorderColor=none;labelBackgroundColor=none;fillColor=#fff2cc;" vertex="1" parent="1">
          <mxGeometry x="360" y="320" width="190" height="60" as="geometry" />
        </mxCell>
        <mxCell id="CaZW2Dd4cFp9OG85ohZh-53" value="" style="shape=image;verticalLabelPosition=bottom;labelBackgroundColor=default;verticalAlign=top;aspect=fixed;imageAspect=0;image=https://cf.appdrag.com/dashboard-openvm-clo-b2d42c/uploads/Keycloak-VC4L-19JH.png;clipPath=inset(27.73% 3.52% 28.91% 3.52%);" vertex="1" parent="1">
          <mxGeometry x="465.96" y="334.13" width="68.08" height="31.75" as="geometry" />
        </mxCell>
        <mxCell id="CaZW2Dd4cFp9OG85ohZh-55" value="1" style="ellipse;whiteSpace=wrap;html=1;aspect=fixed;" vertex="1" parent="1">
          <mxGeometry x="530" y="304.13" width="30" height="30" as="geometry" />
        </mxCell>
        <mxCell id="CaZW2Dd4cFp9OG85ohZh-63" style="edgeStyle=orthogonalEdgeStyle;rounded=0;orthogonalLoop=1;jettySize=auto;html=1;exitX=1;exitY=0.5;exitDx=0;exitDy=0;entryX=0.25;entryY=1;entryDx=0;entryDy=0;fillColor=#dae8fc;strokeColor=#6c8ebf;" edge="1" parent="1" source="CaZW2Dd4cFp9OG85ohZh-58" target="CaZW2Dd4cFp9OG85ohZh-18">
          <mxGeometry relative="1" as="geometry" />
        </mxCell>
        <mxCell id="CaZW2Dd4cFp9OG85ohZh-58" value="" style="rounded=1;whiteSpace=wrap;html=1;strokeColor=#d6b656;align=left;horizontal=1;labelBorderColor=none;labelBackgroundColor=none;fillColor=#fff2cc;" vertex="1" parent="1">
          <mxGeometry x="360" y="790" width="190" height="60" as="geometry" />
        </mxCell>
        <mxCell id="CaZW2Dd4cFp9OG85ohZh-60" value="5" style="ellipse;whiteSpace=wrap;html=1;aspect=fixed;" vertex="1" parent="1">
          <mxGeometry x="530" y="780" width="30" height="30" as="geometry" />
        </mxCell>
        <mxCell id="CaZW2Dd4cFp9OG85ohZh-62" value="" style="shape=image;verticalLabelPosition=bottom;labelBackgroundColor=default;verticalAlign=top;aspect=fixed;imageAspect=0;image=https://images.g2crowd.com/uploads/product/image/social_landscape/social_landscape_e9986d9352811e19dcd3ea0fe66ce113/swagger-ui.png;clipPath=inset(22.15% 0% 23.42% 0%);" vertex="1" parent="1">
          <mxGeometry x="380" y="798.5" width="150" height="43" as="geometry" />
        </mxCell>
        <mxCell id="CaZW2Dd4cFp9OG85ohZh-64" value="" style="rounded=0;whiteSpace=wrap;html=1;strokeColor=#EA6B66;" vertex="1" parent="1">
          <mxGeometry x="360" y="1000" width="460" height="80" as="geometry" />
        </mxCell>
        <mxCell id="CaZW2Dd4cFp9OG85ohZh-65" value="" style="shape=image;verticalLabelPosition=bottom;labelBackgroundColor=default;verticalAlign=top;aspect=fixed;imageAspect=0;image=https://upload.wikimedia.org/wikipedia/commons/thumb/3/38/Prometheus_software_logo.svg/2066px-Prometheus_software_logo.svg.png;" vertex="1" parent="1">
          <mxGeometry x="430" y="1010" width="60" height="59.5" as="geometry" />
        </mxCell>
        <mxCell id="CaZW2Dd4cFp9OG85ohZh-66" value="" style="shape=image;verticalLabelPosition=bottom;labelBackgroundColor=default;verticalAlign=top;aspect=fixed;imageAspect=0;image=https://upload.wikimedia.org/wikipedia/commons/thumb/3/3b/Grafana_icon.svg/351px-Grafana_icon.svg.png;" vertex="1" parent="1">
          <mxGeometry x="518.4100000000001" y="1010" width="57.7" height="60" as="geometry" />
        </mxCell>
        <mxCell id="CaZW2Dd4cFp9OG85ohZh-67" value="" style="shape=image;verticalLabelPosition=bottom;labelBackgroundColor=default;verticalAlign=top;aspect=fixed;imageAspect=0;image=https://img.stackshare.io/service/4284/seq-nuget.png;clipPath=inset(9.5% 28.5% 8.5% 28.5%);" vertex="1" parent="1">
          <mxGeometry x="770" y="1010" width="31.46" height="60" as="geometry" />
        </mxCell>
        <mxCell id="CaZW2Dd4cFp9OG85ohZh-69" value="" style="shape=image;verticalLabelPosition=bottom;labelBackgroundColor=default;verticalAlign=top;aspect=fixed;imageAspect=0;image=data:image/png,iVBORw0KGgoAAAANSUhEUgAAARgAAAEYCAYAAACHjumMAAAxhklEQVR4nOzdCXQb5dU4/EtsyZY8ki2NI8dihsQJdqhkk8W0laDFjvuSFpKWlnqhLAk4BFpIIXbYIVFEaQttEqdg2lJjSgKFJHb7tv836UI+nDhdZPqebI1lXmTIgoSVKJbGi7zJdvIdgWhD8PLInkUj3d85PgfsZ+beWNL1bM9zk8+fPw8IISSEGVIngBCKX1hgEEKCwQKDEBIMFhiEkGCwwCCEBIMFBiEkGCwwCCHBYIFBCAkGCwxCSDBYYBBCgsECgxASTLLUCUzE6XRCW1ub1GmgC1iyqcwWb7BT6jzQf5hMJjCbzVKnMbbz58/H7JfNZpP614MuYLMwl52rsv5N6jzQp4U/J1J/Vsf7wlMkRIShlKk2K9sAANccW7HgEanzQfKABQYR2Vw0ZyUAfCH832Za/eMNFma+1Dmh2IcFBk3KpFell+XRj17wrUtW5RuekjAlJBNYYNCkWlcufB4A5lz4PVaTUt5UaiqRLiskB1hg0IQ2XTv7vwDg9rF+Vsymb7fMomaKnxWSCywwaELVhcaJToUurVs6b62I6SCZwQKDxnVsxYL7AcA60Rgzrb63NFc/T7yskJxggUFjKs2l55lp9RaCoRm7ls/fadKrLhEhLSQzWGDQmDYXzd4IAEmEwwttVvZOgVNCMoQFBn1GU6npS6wm5dZotinLozcUMdqYnnqCxIcFBn2KZRZFF7PpvwGAaE95ZteW5LzAUEqBMkNyhAUGfUrd0nn3A8BlU9nWTKvvrsw3XMt/VkiusMCgfyvN1c8x0+o109nHqnyDHS/4ok9ggUEfCReFXcvn7wAA/XT2w2pSimtLclbxlxmSMyww6COV+YYVAPBFPvZVzKZvKc2l8dkYhAUGARQx2qTqQiOfi+9obFbmcR73h2QKC0yCYygl1JbkPAcAOXzu10yrb925LHfCp4BR/MMCk+Aq8w1fMtPqewXYdUpZXmajSa9SCbBvJBNYYBKYSa/66K6PgCGMddfhZMhEhgUmgdWW5FSymhRB13SxGjWPFDHaDCFjoNiFBSZBlebSc4vZ9K0ihErfV2Z+g6GUpPOaUBzBApOgInd5NCKF+1plvuHbIsVCMQQLTALauSzXaqbVt4kZc6OVXW/Sq1LEjImkhwUmwZj0KlVZXmYjAIj9Yc9vXblwo8gxkcSwwCSYyF0do0ThH1y7KPsqiWIjCWCBSSBFjFZnNWqkbJqWvKV4Dh7FJBAsMAmCoZRJ+8rMbwBAusSpXL9zWW6pxDkgkWCBSRCV+Ybwh/qrUucRfs+V5WVuK82lsd1JAsACkwBMelXKRiu7Xuo8LqCuWpz9hNRJIOFhgUkArSsX/gAAzFLncSGrUXOvzcJcLnUeSFhYYOLc2kXZXwCAaqnzGIPCZmUbLbMotdSJIOFggYlzkbs2sfqY/oKqQiOufhfHsMDEsZ3Lcm+OkQu74yrLox8qzdVPa5lOFLuwwMSp0lw6qywv82UZvMbsruXzX5Q6CSSMWH/zoSmqWpy9HgDksthT6aZrZ98gdRKIf1hg4pDNwlxhNWrukTqPaFQXGp+SOgfEPywwccYyi0qzWdlGAJBbG9fCYysWPCx1EohfWGDiTFWh8e5Ye+aFlJlWP7PBwsyXOg/EHywwcaQ0Vz+zLI9+UOo8puESgdcIRiLDAhNHdi2fXy/hUgy8YDUpFU2lpmKp80D8wAITJzZdO/tGAPi61HnwoZhNf80yi8qUOg80fVhg4kARo423uzCX1i3FdifxAAtMHKgtydkAAFdKnQefzLT6vtJcPfa3ljksMDK3wcIUmGl1PF4Yzdi1fP4Ok151idSJoKnDAiNzcX7X5Sqblb1D6iTQ1GGBkbGmUtMNrCblW1LnIaSyPNpWxGjl9tAgisACI1OWWdSsYjb9ZZHDOgDAL3LM2bUlObUMpRQ5LOIDFhiZqls670EAyBIxZL/d4b7J6e9/TsSYHzHT6nsq8w1fFjsumj4sMDJkszCfM9Pqu8WM6ejo3WJv8Zxe/eb7zwPACTFjw8fXmp7CC77ygwVGZkx6VVJkMqNYfaXDAqv3vv/T8H+0nA5ydof7ZgA4J2J8YDUpxbUlObj6ncxggZEZm5UNH7mYRAw50uDqvLktMNDzyTfsLZ5/unuHtouYw0eK2fQtpbn0XLHjoqnDAiMjRYw2pSyPFrX9iNPf31ixp33vxd9f13xqY7j4iJlL+KjNZmUeFzkmmgYsMDLBUMpLakty6gEgW8Swg/XHfD8Y6weN7f5TTn//GhFz+YiZVt+2c1muRey4aGqwwMhEZb5hqZlW3ypmzP3u7vVbD3vbxvt5wfajLwLAATFzAoCUsrzMRpNelSpyXDQFWGBkwKRXzdhoZcVuGv/2mqYTNZMNqt5/MnzKdl6clP7t0rrrcDKkHGCBkYHakpzwh0nU04KNDvfGtsDA6GTjth72ho9g6sTJ6j+sRs0jRYw2Q+y4KDpYYGLc2kXZpmI2/WkxYzr9/W+83Or7C+n4/G1HqgGgXdisPiNjX5n5dYZSxmpTOYQFJvatKjA8KXL7kdNrmk5UeoIh4tOetsBAX4PL/yNh0xrT9ZX5hpskiIsIYYGJYTuX5V5nptWlYsZscPmfbvb0DEa73brmk68DwF+FyWp8G63sepNelSJ2XEQGC0yMMulV2rK8zB0AoBAx7P/ZHe4pdVn0BEMhu8NdBgB9/Kc1oYLWlQttIsdEhLDAxKi66+Y9DABi9mwO2h3u0rbAwJQfnrO3eM44Ono385sWkYfWLsq+SoK4aBJYYGKQzcJkW42aKjFjOv39dfYWj3O6+4nMWTrLT1bEkrcUz8GjmBiEBSbGMJRSabOyDQCgFjHsWbvDs4mPHbUFBoINrs4KABjmY39RuGHnslxRr1ehyWGBiTGbi+bcCgDXiBlzv7t7dWO7v4Ov/VXsad/n9Pfv5Gt/hGaU5WW+UppLzxQ5LpoAFpgYYtKrqLI8WtTJfO7eof8paWz7A9/7rT/mexoA+vne7yTSqhZnPyFyTDQBLDAxpHXlwi0AcLmYMetbfRuE2O/Ww95397u7HxFi3xOxGjX32iyMqL9DND4sMDFi7aLsIgC4S8yYTn//00+1eI4Itf81TSdecPcO/U2o/Y9DYbOyjZZZlJjXsNA4sMDEiC3Fc54CADGXhHSuaToh6NoybYGB8/WtPinu7iyoKjRWShAXXQQLTAw4tmLBPQBwrZgxtxzssDV7egSP83Krr8np7xe7+wGU5dEPl+bqxXyOCI0BC4zESnPp2WZaXSty2L+83Or7rRiBPMFQ+FTpuwDgFiPeBdhdy+f/UuSY6CJYYCS2uWj2RgAQs7HYmfLd797RFhgQLWCzp2e4weWXogNl2aZrZ18vQVwUgQVGQjYL83lWk7JCzJgNLv+WxvbAaTFjhtkd7l8DwCGx41YXGp8SOyb6DywwErHMojJsVnaHyK/BuzUHOyQ5bWgLDJwr3/1uBQB0iRz6qmMrFjwockwUgQVGInVL560BADFbcIzaHe7yltNBoiu7pbk0ca9Wm4UhWq+msT3wntPf/3PS/fLFTKuf3WBh8sSOi7DASKI0V8+YafUDYsZ09w7V21s8/yIdv7lo9mrSsTYr+4hlFpVJMnb1m+/XAICHdN88mbEq3yDFNaCEhwVGZCa9CnYtn/86ABB9IHkSWtd8ivhaRFOpqYTVpERzcTSrqtB4D8nAltPBzv3u7tui2DcvWE3KzU2lpmKx4yY6LDAiq8w3fAcARG3k3uDqvKex3f8hyVjLLEpbzKbXR9spoCyPvrc0V68jGVvS2Nbs7h16I5r986GYTX+V9EgL8QMLjIiKGO2M6kKj2Ifqb1XsaX+FdHBVofFOAJgzha6Nxl3L5xMv+bCu+ZRN7P7WAMDULcV2J2LCAiOi2pKc8AcwV8SQ56r3nyR+VN+kV6WV5dHTuTZ0x9pF2V8gGdjY7m93+vtFv7tjptX3lebqsb+1SLDAiGSDhfmimVaLukodAPxi62Hv30kHt65cuBEAcqYRb8aqAsNDpIMLth+tAYC3pxFvKjJ2LZ+/w6RXiTnvK2FhgRGBSa+CVfkGsR/4ejd/25GHSQevXZSdDwDTvrNlptU37lyWS7xg1paDHaI284/4vM3KrpQgbsLBAiOC2pKcW1lNylIxYza4/D9sCwwQL/i0qsCw7sIOBk5//6RdHcehKMvLfNWkVxFNf3jwwKm9APCbKcaasrI82lbEaLFpm8CwwAisNJeeXcymiz2ZsXld88kdpINtFmaBmVZXXPi9Nv/AdC7A5lTmG+4kHVy++937AODkNOJNxZzakpxahiJ+nhBNARYYgdmszKPh834RQwaXNDjLPcEQ0aLbJr3qEpuV3c5398jqQuPDRYyW6DpHY3ugu8Hlf4bP+CTMtPq7lfkGUR8ZSDRYYARkszBXmWm1qOf6jo7eLc2eHh/p+Mp8w80AcKUAqVxeW5LzJOngdc0ntwHAPwXIY0Kr8g12k17MzryJBQuMQEx6VYrNyjaK3Ff6bKQvEbHqQqNg6+aaafXG0lx6DslYTzA0aHe4SwEg6ra108FqUpbUluTg6ncCwQIjkLrr5n0fAGaLGHK4wdVZ0RYYCJJucGzFgvsAYME4P55yh8cLzKhanE18J8ve4nE7Onp/xkPcqBSz6TWluTQ+GyMALDACKGK0GqtR85iYMZ3+/l0Ve9r3kY4vzaWzzLR6ywRDopoqMB6rUbPKZmFY0vE1h7zPAEA3H7GjoLVZGVFfr0SBBYZnDKWcsa/M/BuR+0r3R/oQEatanL0OAMS4haK0WdlXGUpJdEu4sd3f1eDq/A5PR1DEzLT6NpuFsYgZMxFggeFZZb7hmwDwdTFj7nd3P771sPf/SMcXMVraatTcK2xWnw5ZmW8g/p1U7Gn/k9Pf/9/CpvQZqTYr22DSq1JFjhvXsMDwyKRXKTZaWUEamY3H3Tv0jzVNJ54nHc9Qykv2lZlfBoC0SYbyOhFxo5V9KJrH8+uP+Z4CgCE+cyDA1F2HkyH5hAWGR7UlORsmuGgqiPpW38a2APlDcZX5hq8AwDcIhvJ9inJ1bUnOraSDtx72tu53d4veU8lq1DxSxGjTxY4br7DA8GTtouzFxWy6qK1Snf7+V19u9e2NZptV+Qbiuzp8K2bTayyzqCzS8WuaTmyS4NmYjH1l5jdIrxmhiWGB4cmW4jm2C+fyiKBjTdOJ1Z5giHiDplLTDawm5TpBs5pYZt3Sed8jHdwWGBjd6HBvFDalMV1fmW/4lgRx4w4WGB7sXJZ7EwAsFzNmg8v/g2ZPD/E1CsssKqOYTX9R2KwmZ6bV3y3N1c8kHf9yq+/PTn8/8bwqvmy0sutNehVOVJomLDDTVJpLZ5blZW4X+XfptDvcddFsUFVovAsAmCg2meps6slk7Vo+fyvpYE8wdH5N04k7AUDsXk5X1pbkSHH0FFewwExT1eLsJwjuyPCp1+5wl4VPH0g3MOlVmrI8+vtRxhFyOctb1i7Kvpp0cLOnZzB8xCZgPmMqZtMfWrsou1DsuPEEC8w02CzMPJGfJwGnv/9Fe4vnnWi2aV258EcAcJlwWUVvS/GcqC422x3u8Oldm3AZjSk5cm0NTREWmCmyzKLUkcmMYp6nn1n95vubo9lg7aLshQBAfGFVRMt2LstdQjo4fMQWPnILH8EJm9ZnhPP8tsgx4wYWmCmqKjRWAsBCMWPud3dXtpwORnUtIrJGbizeck0uy8vcHs2FVHuLp83p7/+VsGl9xoyyvMxtpbk0tjuZAiwwU1Caq9eX5dGiPk/i7h36fUlj2x+j2WbnstxCM62e6l9fogWrpomxWdm7otlg9ZvvbwofyQmX0pjSItfaUJSwwEzBruXzXwQA4hnCfKhv9UU1BcGkVyWV5WW+BgApwmU1fWV59ENFjJb4fRg+gtvv7iZejpMvVqPmXpuFmSd2XLnDAhOlTdfOviF8ECNmTKe/f+NTLZ5j0WxTmW+4FQCuEC4r3sypLcmJquNCSWPbn9y9Q78TLqUxKW1WtpGhlGqR48oaFpgoVRcaxW4/8q81TSei6gZZxGgFXamOb2Za/XhpLh1VQ7poj+h4snBz0Rxc/S4KWGCicGzFgvCHVtTnIrYc7LA1e3qi2qa2JKc6fJY0zdBitnW9ZHPRbOKGbWFPtXicTn8/8Zq/fCnLox8m7cGNsMAQ22Bh5ptp9Y9FDrvnwQOnfh/NBqW59KVmWv0sD7FFXfCJ1aTcYbMwUS1buabpxA8B4IhwWY2J3bV8/i9FjilbWGAIRTozitlu1Fu++92oD8erFmc/CABETc9ijCKy8h3xhNHwkZ1EnSHLN107+2sSxJUdLDAEmkpNX2E1KeVixmxw+Tc3tgeI24/Ax08WZ1mNmnuEy0pwV0dWBCT24IFTuwFA7NXvpLgWJ0tYYCZhmUUZitn07SKHbas52BHVzGeGUs6wWdltIrdJ4V1k5buo3pflu99dDQAe4bIa0+ePrViwTuSYsoMFZhJ1S+dVAYBRxJAjdoe7vOV0kLj9CHx8W/qrAPBVHvMQajb1ZD4fbZ+ixvaAv8Hlj6ofFB/MtPonpbl0nthx5QQLzARKc/W5Zlot6jwed+9Qnb3F44xmG5NeJcRKdWLeRfqUYjb9p5ZZVHY029Qc7HgJAI4Kl9WYZmwumo1LOkwAC8w4wofpu5bP3wUAYq7POrSu+VTUyxLUluTcxGpSioVJSRIZdUvnrYlmg5bTwf5IZ0gxpjj8G6tJ+U5TqelaMWPKCRaYcdisrNiTGc83uDrvamz3e6PZyDKLoovZ9BeES0saZlp9d2muflY029hbPO85OnpF/10Us+mvWWZROBlyDFhgxlDEaBVlebTY64DsrdjT/lq0G1UVGu8GgKg+iDKRuWv5/NpoN6o55P0hAPQJk9K42Lql8x4QOaYsYIG5CEMpw6ccL0a5vOR0jVbvPxl1QSvN1WeU5dH3CZOSuKca4/j22kXZRdFs0Nju72xwda4Q+xqSmVbfV5qrzxEzphxggblIZb6hxEyrxZ6t+/zWw96WaDfatXz+TwDgUmFSig3RrnwHH3eG/B0A7BYmo3Hpdi2fvyOa5nKJAAvMBcJvjlX5hqgmFvLgnfxtRx6PdqO1i7I/DwCrhEkppnx157LcqG+/V+8/uVGCo7AvVOYbVogcM6ZhgblAbUnOvawm5Utixmxw+Z9uCwwMRLvdqgLDgwny+iWV5WVui7Zn9NbD3sP73d1izx2D6kLjxiJGG4srCEoiEd6gRNYuys4rZtP5mCQYjaZ1zSd3RbvRzmW5VjOtFroxmGTPwYwhy2Zlo54CsabpxNMSTIacU1uS8zxDYUslwALzH6sKDE+K3X5kSYOzwhMMRTVr2aRXJUdWqhO6i6Sos6knU5ZHP1jEaKOaxNkWGBje6HCLfcoLZlr9vcp8g6hHwrEKC8zHRwRFZlpdIWZMR0fvpmZPT2e022mVSRqnv/9PANAtTGYxadTdO/TXmapkfbQbvtzq+38A8Adh0hrfqnyD3aSX9bQwXiR8gTHpVWlleZm7RG8/sje69iOfaDkd5Aq2H11TvttlBoBw3uf5Ty+mHLA73FfMfunQLdHOLoePO0OeW9LgvA0A/MKkNzZWk1JSW5Ij+trBsSbhC0zddfMeBACDiCFDDa7O8rbAwLQeBmts9384o8ZRUd188otOf/+rABD1heJY5u4d+qPd4f7aZXUHl9hbPO9NZ1/Nnp5gg8v/Q/6yI1PMpm8tzaWjWkQr3iR0gSlitDOtRs2DYsZ0+vt3VOxpP8DX/rYe8v5vwfajK8p3uxYBwD6+9ivhbOqjdof7i7NfOrTM3uL5S/gIhI+d2h3uFwDgOB/7ioLWZmUeEzlmTEnYAsNQSsW+MnP4FIMSMexA/TGfIH9JG9v9786ocZRUN5/8SuSaw3SfARH1LpK7d+hvdoe7/LK6g1+wt3j+yff+2wIDIbvD/W0A6Od73xMx0+rbbBbmi2LGjCUJW2A2F82pCB/FihxWtarA8ITNwswUKsDWQ96mGTWObza4/NcAQFStTiRyYr+7e9n1v3vny/YWT4MnGAoJFWi/pyf8+/iHUPsfR6rNyjZE+xxPvEjIAmPSq9RlebToK9LDx3/RVtisrPvUXYtftVmYYoZSCvIaVOxx/W/+tiMLag52fCty6hRLz7WEHWlw+e+6esexgpLGtj+2BYS5hMRQSijNpRf8vSJ/y74ysxcA/kuQQBNj665LzMmQCVlgWlcufBYA5kuYQgqrSbnNZmX3fbC68G82C3OVEEHaAgPn1x049fvwqVODy389AHwgRJwo+fa7u+/M33aksGKPq77FGxRs5rPNwpg/WF34p13L845YjZoqABDsyHEyVqPm0SJGK+baQjEh4QrM2kXZ4VOHe6XO4wJWm5X931N3LW7auSzvVks2JUjnwIo9rjfztx25vOZgx0oA6CDYhO95PGcbXP7qq3cc+1xJY9srbYEBQY6oLNmUZueyvBWn7lr8ls3KtgJArKz+n7GvzPw6QykTahpBwhWYLcVz7LH472Y1KUvK8ujX/nFzwTtNpabbTXoV72/EtsDA8LoDp7YDwCG+903AWbHHVdPiDQaE2LlJr1I1lZrW/uPmgvfK8uhtrCalRIg403RDtF0T5C7mPmhCOrZiwR0A8BWp85jEZcVs+vbWlQtbdy7Le9iSHd3atITi5lB97eLsK4+tWLC5deXC94rZ9BqRn2mK2kYru8GkVyXMRKWEKTCRjodRtQKR2BVlefSz/7i5oL2p1PTD0lyaz6Ig+wJjszBXnquy/nFL0ZyjZlpdLXLnh+m4srYkR4q+2pJImAKzuWj2BpGnA/AlrZhNf3zX8rz2YysWbA3/xeZhn1qCMbF21yl8GpS6+drZt5+rsu61WdmDAHC91DlNRTGb/sjaRdmLpc5DDAlRYGwWZgGrSZH74kwzzbT6gS1Fcw6fq7L+tjSXvnwa+yIpMDEzm7qI0SYdW7Hg/taVC09XFRq3R241y7E97ieStxTPSYh2J3FfYCyzKK3Nyu4CgHi5eh9+zW7atTzv2LEVCxo2Xzv7a9Es0xhZp4SkwEgq8vxKwd8r8jftKzN/aKbVP4uHU7sLLNu5LPcmqZMQmpz/ChCpKjTeCQDx2H0v1UyrS8NfVYVGZ4PLf3/FHlfTZBtZsjUpsf662yzMFTYruxkAbpA6FwGdmKlSDEmdhNBi+o3Gh3XNJ3/Z5u93V+Yb7mY1KXy2Vo0l5rI8em9ZnvXtmoMd9fWtvtcnWIZTkOdspsuSTWmqFhtvtGRTK1hNSvgUKC4Xz3b3DjW3eIO/qjnU8d8t3mBczYAfS9wXGE8wNGRv8fwu/GWzMAttVvYFALha6rwEED51slYVGsNfm53+/sfWNJ34ZbOn5+L1YkgLjCizqU16VWptSc7qYjb9CQDIEiOmRI7aHe7v21s8f5U6ETHFfYG5kL3Fc6S+1fflVfmGJZX5htWsJuXbcfo7SDfT6p/vKzM/6ujora855K1vbPd/GPkZ6TJrgt5FWrs4u2BVvmGFmVbfLHIPKjGdd/cO/fHlVt+L9a2+P3uCoVjoNSWqePxwTcgTDJ2zt3jeCn/ZLMxlNiv7PAB8Q+q8BHKZ1aixW40am9PfX7um6cSTUp8i2SxMvs3KPhO5vhKXp0ERf7U73PfaWzytUicipYQrMBeyt3g+qG/13bgq31C4dHbG3Vaj5japP4ACmWGm1ffvKzNXunuH/i5RDjnnqqx/AYAlIixYLpURd+/QbyNHLM18LZYlZ3F/m3oynmAoXGgOXrOz9Z4lDc5Lnf7+OqlzEhAl4YXu2QCwNI6Ly/+zO9zzZr906GZ7i2cfFpePJXyBuVCzp6erYPvRu8t3uy53dPT+ROyFomNMwl0vmIIBd+/QS3aH+/OX1R28MXxELHVCsSahT5HG09juf7+x3f9IEaNdX1uS86SZVj+Gvyt0Iae//5U1TSfWNXt6BJkdHi/wCGYCzZ6eUMH2oxvKd7sudXT0PgEAJ6XOCUmq29HRW1O+23VFwfajd2JxmRwWGAKN7X7fNTtbf7SkwTnX6e9fAwBBqXNCojrn9PdvWdLgzL5mZ2t1Y7v/XakTkgs87I9Cs6fnfMH2oy+Y9Kptq/INK6oKjXcDwAKp8xIIXqQEOO3o6K2rOeT9VWO73yN1MnKERzBT0BYYCK47cOrnM2ocCxtc/jIA8EqdkwBiZja1BEJOf/8TSxqczDU7WzdgcZk6LDDTVLHH1Zi/7cjsmoMdt4YPcvAvv6y97+jofbh8tyu7YPvRHzV7eqRqPhc3sMDwILLW7eszahzFDS5/CQA4pc4JRaXH6e//7pIG5+XX7Gz9aWO7Hy/e8gSvwfCsYo+r2e5QFazKN9wQuUbzNZmupJcIjtYc7HixvtW3fbq9wtHY8AhGAJF+RHtm1DhutDvcV/HcM1os8XwNxtvg8pfPqHEsXHfg1C+wuAgHC4zA7C2eY5Ge0V9y+vu3A4Bc3swXL/Mgd+cA4G81Bztuz992ZE7FHleD1AklAiwwItl6yPv3gu1HV5bvdpkA4A28GCwqV4PLv3RGjePL6w6ceq0tMCBY/2v0aVhgRNbY7v9gRo3jlurmkwud/v7nEny+k5DCp3h/rjnY8a38bUc+V7HH9ZbUCSUiLDAS2XrIe6xg+9EHyne78gCgBgDifn1WEf2zweW3zqhxXL/uwKnfC9WmFk0O7yJJrLHdH5hR46heuzj7OWu2prIsj74DAFip83J09MptNvWg09//P/WtvhffPNn1Vlsg7pe7lQUsMDFi6yHvya3g3WB3qH5cW5LzQDGb/qiUbTo8QVldpvhz+W7XWpwjFHvwFCnGtAUGBkoa2565esexvAaXfx0AvCN1TjGq1+nv/3V180lL+FQIi0tswgITo1q8QV/FHteW/G1HCva7u+8EgA6pc4oR5wDgN+W7XaaC7Ucrtx7yvi11Qmh8WGBiXFtgYLSkse2Vq3ccu6LB5b8LAMT6QMXahVG/09//XHXzyStn1DhuwwmI8oAFRiZavMHeij2u+vxtRyz73d3XA8D/CRwyVib6hQDgufLdrryC7Ucf2HrIi/O8ZAQv8spMW2AAShrb/sxQyn2r8g3LIx0rl0qdlwA+dPr7X6lv9dVvPeQ9IXUyaGqwwMhUpGPlb8NfNguzKNKx0ip1XjwI7nd3/3RN04nNOEdI/rDAxAF7i+dwfavvS5GOleEjmptk+Nq+3+Dyv1RzqGNbizcYjwt4JSS8BhMnPulYOfulQxV2h3seAPzPNHcp1oN2nfvd3Wsij/M/g8UlvsjtrxwiEOlY+Y1V+YbCynzDPawm5dYpdKwUejb1vxpc/l/VHOp4vcUb5ASOhSSCRzBx6pOOlbNfOnR3pGPlS1LnFPHBfnf3d/K3HVlUscf1AhaX+IYFJgFEOlauLt/tynV09P5UohncjgaX/46rdxwzlTS27cAJiIkBT5ESSGO7/73Gdv/DRYz2ydqSnPVmWv2oCO+Bd+wO9wMNLv9enICYeLDAJKBIx8r1pbn081WLs++yGjV3R5rTX2haF3ndvUNvvtzqe7G+1bfHEwzhUhQJCgtMAmts9/sa2/0/KmK0P64tybnPTKt/DADUNHf7tt3hvs/e4jnIU5pIxrDAoE86VtaW5tKvWLOplZFuCNEYdfcO/S5yxPKWJxiKlWkGSGrnz5+P2S+bzSb1rydhmfQqBelYm4VJETYbNJHw50Tqz+p4X3gXCY2pLTBAfA3G3uLBayxoTFhgEEKCwQKDEBIMFhiEkGCwwCCEBIMFBiEkGCwwCCHBYIFBCAkGCwxCSDBYYBBCgsECgxASDBYYhJBgsMAghASDBQYhJBgsMAghwWCBQQgJBgsMQkgwWGAQQoLBAoMQEgwWGISQYLDAIIQEgwUGISQYLDAIIcFggUEICQYLDEJIMFhgEEKCwQKDEBIMFhiEkGCSpU6AhE6nM+h0uhelziPszJkz6/v6+lov/n5aWlp+VlbWD0j2wXHcbRzH9V38/blz574c/udOJ7+RkZFzg4ODIwAwAAA9AOAHgA+HhoZOjYyMvDM4OPjh6Ojo+enEmDt37qMA8EWCoa3Hjx9fP51Yer3+2oyMjCrC4aNdXV1rA4GA5+IfGAyGSoqivk6wjyPHjx+3X/zNuXPnvgIA6ZNtHP4df/DBB48T5jshnU6Xp9PpniUYtwMAdvIRk2+yKDAAoAaAb0qdRMTPxvl+ZhQ5Ksb5/vUAMGuKeX0kOTkZKIr6zPcv+F74w9fIcdxLHMc5pxjmi4T/1owp7v8jqampyoyMjHoAuJxk/MDAwANjFZeIAsKc08b5/g0AMHOyjZOTk7+p0+l+z3HcPwliTUZPmPMRHmIJAk+REg8DAGt1Ot2/5s6d+7Zer/+eQqFQSZ3UxZKSklKNRuMfSIvLyMjIa52dnc8Jn9nkdDrdr8P587CrFB72ISksMIkr/Np/ISMj4+csyx7PyMiwSp3QhbKzs6sB4GuEwzu8Xu+a4eFhgbMiZqJp+lYe9pPJwz4khQUGhc3S6/V7GYZ5PCkpabzTN9HodLoipVL5GOHw0xzHlQwPD3cLnFZUKIqqUigUCf/5SvhfAPq3NKVS+cPs7OynJU0iLY3V6XR7wp9RkvHBYPBhjuPeFT6zqJkzMzMfkDoJqWGBic4oAJyROgkhKZXKaoZhVksRO/wXn6bpX01wofVTQqHQz/x+/2vCZzY1KpXq6ZSUFFbqPKSEBSYKAwMDz/b19b0jdR4CS1Yqlb/KyMjIFzswy7LPJCcnk153ecvj8ayd7i13galnzpy5RuokpCSX29QhgW7FGQHAQDj2n52dnRsFyGEq9gWDwT+N8f2kyGsaPgLIpChqdvhQPfLvjIpWq32kq6vrdn7SnZzBYCgFgIcIh/vOnDlzr8Ap8UKpVN6VlpZW09fXd1rqXKQgiwLDcVwHx3GL+NynQqFQsyzrIh0fCAQeG46d2xRv+3y+n042yOfzhf+dQFGURafT2QFgKWmA5OTkcp1Ot5bjOP+0s51EamqqnqKonxMODw0MDFzf19dH/NpJTJ+VlfXC8ePHvy11IlJI2FOkmTNnPgYAl5KMDYVCz/f29jYJnxX/wjWR47iWU6dOfY3juG8CwAeEmyrT0tIEP7xPSUnJMBqNe0keYoOPL+o+6fV6DwmdF89u0mq110idhBQSssDodLq5qampDxIOb+vs7HxgdHRU4KyENTo6ep7juD8EAoGVpNsolUrBT5FmzpwZPrJaTDj8TxzHbRI4JUGETzmlzkEKCVdgUlJSNDqd7g/hI3OS8V1dXY8MDg7G8oXEqHR1de0PhUJ1hMPnpaWlZQmVi8FgqFAqld8jHH7I7XaXDw8Py/K1UCqVNxgMhi9LnYfYEq7AzJw5834AIL1Dsj0QCOwWOCXR9fX1RXOxep4QOWRkZFxJUdTrE8zLutC5QCCwanh4OChELiJJCv97E+3hu4T6x+p0usuVSmU14fB33W73fQKnJAmO4zoA4DjJ2KSkJN6PYBQKhUqv19cRvv9CwWDwlq6urpid0BcFRqPR3CV1EmJKmAKjUCiSdTrd7yMzVCcVCATWy/wv5mTGm3X8KampqRo+gyoUCmBZ9lUA+ALJ+FAo9HOfzxeTSxFMRUZGBukfuLiQMAVGp9PdH3kmhERjb2/vbwVOSWpDhON4nZuk0+nCR4Wkt2xbzp49a+MzvsC6wqdzk4yZzzAM6fM+spcQBSY1NTWToqgNhMM/7OjouG10dHSyN4rckS4nwNuzP+FTVIqifkI4PPw6LB0aGurhK74IwgVm72SDlErlM2lpaVE//ChHcV9gkpKSUoxG43+TrEYGHz9n8cTg4CDpX3c5I3qDDw4O8jJLOS0t7VKdTrc3snjYZEa7urpWDw4O9vIRW0xdXV2TPgAZ/tylp6eTrtIna3FfYGiaXgUAXyIc3sRx3DaBU5KcTqfTAUAOydjR0VEvTzE3A8AckrEDAwOPBgKBsaZCxLxAIPAWAEyae2pq6n2pqalEf/TkLK4LTFpa2iyKop4gHP7hmTNnvhM7swGEk5aWdh/hax8+TXxvuvEYhlmnVCrLCIc7Ojs7Zfkw3SfOnDnzXQCY7MhPlZmZuT0pKUmkrKQRtwVGoVBckpWVtYP0VCAYDD7d19fnEz4zaaWlpWUplUrSonusr68vMJ14GRkZ/6VUKjdF8V5bTFGUrJc46Ovr+yAUCv16snFKpfIbGo2mSJyspBG3BUan090JAKQv3gG/3z/pG0LuFAqFgqbpX5Be4A2FQq9MM6RBr9fXRrlNik6n25mUlKScZmxJcRz3PAAMTjZukikEsj+cjssCk5qaqqIoinRltu6Ojo6bRkdH4/rCblpaWjbLsv9ITk7+FuEmfZ2dnb+aZlgTAMyfwnZWmqa/M83Ykurr6zs+MDDwo8nGJScnX6/T6a4d58cj/GcmrrgrMElJSUlGo/ENAMgmGR8MBp8aHBwUfEkCKaSlpWWkp6d/lWGY57Kyso4CwFWk246MjPxmcHCwX9gMx0dR1KMKhYKPlfnF9KkLKp2dnc+SXMPS6XT1SUlJY63iN8BrdhKQxXow0aBpuhwAbiQc7uQ4LiZaXUTpxrlz5453Ryb8mtKROUSXTXH/5/x+/+Zp5MeHK1iWtR8/flxOs5A/9VDi8PBwKBgMPkdR1GTvsctpmr7d5/P98qLvY4GJJQqFQktR1FOEwwMcx31zeHhYjoehn4t8CWE0FAp9L0YWdKrWarU7e3p65LL+y2c+T93d3a9QFFU92S16iqLWchxXNzw8fOG6IJNew4l1cXWKxLJsHWmjrlAotIXjuGnfgo03oVCozuPxkC7nILRkrVZLescrFnymwAwNDfVyHHc3wbbzMzMzHxYmLenETYHR6/XfAoBywuHOs2fPPi9wSnJzPhQK/drr9ZIuxDVdRE/pKpXKbxgMhq8Knw4vxnyoheO4vSMjI5NOIVCpVOtTUlIYQTKTSFwUmNTU1KSMjIxJm4RHDHEcd6PM5rgILhQKPeHxeCpHR0c/05RfAB8Gg0GSRvRhyRRF/UahUBD1SZLYuE/N9fT0kMzBUqWnp5Mc7ciG7AtMUlISZGZm/hIAcknGDw4ObuY47n3hM5OHkZGRfRzHFXm93h+LFPI0x3Ff8fl8zaFQaCvhNvTMmTNlvcxBb2/v/wcAf5lsHEVRq9PS0jLEyUp4si8wGo3meqVSSbqIj/fs2bOTPpuQII5wHPdVr9dbwnHcAbHWHA4Gg+s+6cTY2dkZPh1zk2yXmpq6LjU1VSd4gtMz7ucp/Pvt6Oi4PdKCZyKzsrKyZD1V4kKyLjAKhSJFr9eTFoz+yF0jMU4BYtGHALA7GAw+fubMmc+fOnWqkOO4N8WcexUKhTb5/f43Pvn/wcHB0WAw+Azh5lqj0fhqUlKSbN+zg4ODZwcHB39BMPROrVZLuhB6TJP1bWqWZZ8FgIUkY0Oh0Iscx/1T+KxEcRgA3h7nZ+FDkYFQKNTb19f3YWRpzMMcx3WJnOPF/uTxeD6z0BLHcXUURT1IOLt7mUaj+XpXV9cfhElReN3d3TWpqan3A8AlEwybodVq1/X19ZEs/RDTZFtg9Hr9EgD4PuFwz9mzZ0kvAsvBX44fP/6Y1ElEoePMmTNj9lgaHh4eDgaDt1AU1QwAk84/0uv1T/b19e2+6HkR2ejr6zsVCoWeUiqVE67Up1Qqvw0Ab4mXmTBke7iZkZHxU9IlBwYGBsqGhobiuml9DBvkOO66vr6+cRcZ9/l8LaFQqIFwf1dlZmY+wF964ou0ID45ybAUpVJJ+tBozJJlgWEY5gcAUEgydmRkpM7r9bYInxUaSzAYfJjjuLbJxvX09DxLOntYpVL9QKvV5vGSoAQGBwehq6trC8FQos6jsUx2BSYjI8OiVCqfJBwe9Pv96wVOCY3vcGTZgkn19PQcAwDSuydquXdK7O3t/WX4YEbqPIQmqwKjUChmaLVa0msp4XP7ir6+vrMCp4XG1x3NXSq32x0+JXiXZKxSqbxFp9MRtT6JRZFrT7cCgCw7VZKSVYHJzMx8KDk5eby1Mz4lFArt8Pl8fxQ+K8SX4eHhwWAwSHoUk6rT6XYqFArZLkzl8/neDIVCsr+QOxHZFBitVnuVSqUivejVxXFcNO1RUYzw+/2vAcBRwuFzdDrddwVOSVCEUwhkSzYFJjMz80cktzHh41XpV0101wLFrtHR0UGO426JPM8zKYqiHktNTU0RPjNh9PT07CXppSRXsigwDMPcBwDXkYwdGRlp9Hq9vxM+KyQUjuPaRkZGthMOn5WZmfminFfnP3PmzN0AEJdtimP+QbuMjIwrlEol8apzycnJhXPnzj0sVD7BYLDW5/PVC7V/9DG/3//jrKysOyZ54vUjSqVypUaj+XVXV1ezONnxq6+v72QoFHpFqVSO+TCinMV0gVEoFKDVan8S5ZEWUUOxacgSeP/o4w9deygUspE+bKbVajf09fV9Ra59rc6ePfuzSy+99B6+e4FLLaZPkSiKKk9OTiZdNwTFmc7Ozh+Q3rZOTk4uyczMvEX4rIQxNDT03sDAQDxNZ/lITBcYAdedRTIQeeKVeHkNlUr1fFpammyffo0U1LhaqyjWCwxKcL29va8BwL8Ih+t1Ot06gVMSTKQLQVwt5YoFBsW04eHhcxzH3QoARD2alErlXWlpaVNp9hYTuru7f026CJccYIFBMY/juNZQKPQq4XBNVlbWGwqFYtK7T7FoaGioh+M4WT88eCEsMEgWenp6NpEexQDAIo1Gc7vAKY2FqFPCZDiO++PIyMg+PvYlNSwwSBZ6enreGxgYIJ7+kZGRsT41NVXs9zdvy7HGyxSCS86fj+vJnAghCeERDEJIMFhgEEKCwQKDEBIMFhiEkGCwwCCEBIMFBiEkGCwwCCHBYIFBCAkGCwxCSDBYYBBCgsECgxASzP8fAAD//02k1mVZMQcTAAAAAElFTkSuQmCC;" vertex="1" parent="1">
          <mxGeometry x="690" y="1010" width="60" height="60" as="geometry" />
        </mxCell>
        <mxCell id="CaZW2Dd4cFp9OG85ohZh-72" value="" style="shape=image;verticalLabelPosition=bottom;labelBackgroundColor=default;verticalAlign=top;aspect=fixed;imageAspect=0;image=https://res.cloudinary.com/practicaldev/image/fetch/s--QW3iMNQ0--/c_limit%2Cf_auto%2Cfl_progressive%2Cq_auto%2Cw_880/https://dev-to-uploads.s3.amazonaws.com/uploads/articles/cin8hxpjbk58ec6gvoht.jpg;clipPath=inset(7.48% 11.67% 3.15% 5.67%);" vertex="1" parent="1">
          <mxGeometry x="600" y="1009.75" width="65.55" height="60" as="geometry" />
        </mxCell>
        <mxCell id="CaZW2Dd4cFp9OG85ohZh-76" style="edgeStyle=orthogonalEdgeStyle;rounded=0;orthogonalLoop=1;jettySize=auto;html=1;exitX=0;exitY=0.5;exitDx=0;exitDy=0;entryX=1;entryY=0.5;entryDx=0;entryDy=0;fillColor=#dae8fc;strokeColor=#6c8ebf;" edge="1" parent="1" source="CaZW2Dd4cFp9OG85ohZh-75" target="CaZW2Dd4cFp9OG85ohZh-64">
          <mxGeometry relative="1" as="geometry" />
        </mxCell>
        <mxCell id="CaZW2Dd4cFp9OG85ohZh-75" value="" style="shape=image;verticalLabelPosition=bottom;labelBackgroundColor=default;verticalAlign=top;aspect=fixed;imageAspect=0;image=data:image/png,iVBORw0KGgoAAAANSUhEUgAAAPoAAAD6CAYAAACI7Fo9AAAbeUlEQVR42u2dC5Ac1XWGVxhAUBUIJDFC070SWFVAcCCOAiFOxRaYFGgfQotDUsHW7qyEVuDYgQQ7wdgOY2E7wU4FbFJl4xirAHanu2dWD1YPnrU4BTiOSYiTooJNAYqgKFcMYNDOY+fVOef2vbM9o13t9DxW07f/v+rWPLQz0zPqr8+55557Tk8PBIVErtPzPjfRc/xC/za9wL9BEBQWyKfnIH7bOee0zHjv2pwTuzxrxS6dcVavqLkYuD3L8ItBUJgAJ2jJih/H9zPJlR/KWbFkJmm8WUiZrrvLdMuTpptNGjM5y3giY8UG1OscAh6/HgSFAXIC3O3xrHPONm5nqN2pXreQMtysZVRolGiU847hunu8fyMLbynIXcAOQSGA3FWQm992DzDERplGQULu+gY/LvK/uft72cI/6wJ2CAoR5Jb5HXefgHc+wI8YZPnzbNnpFrBDUKgg96y4G2DMem688UPADkF6Qg7YISgikAN2CIoI5IAdgiICOWCHoIhADtghKCKQA3YIigjkgB2CIgI5YIegiEAO2CEoIpADdgiKCOSAHYLapUR3Qw7YIahlS85FI3q6HnLADkGtuux8m0nSfvLuhhywQ1BTkMsab7lk7DZRNCLZ9ZADdggK6LILS37YOuv8Wcdws7YoGFEJCeiAHYKCWPNM0viuuzcULjtgh6BAkMvg2wvOBScSJAdLaVPVenMBOwRpFoDLW+YHcrZRzFlV190F7BCkiVSp5RkrdpGYn1uhhhywQ9BRLbpjrOG66xpYdMAOQQvN0d39a04iKA6FfI4O2CFoQdhV1N2K7ZBgFDQBHbBDUP08fXbCuLA4Z9ErgB2CdLXqdmy7e2CVgEMj0AE7BFVhl7vWyIX/fkhy3QE7BDULenW+DtghSFPY5XIbKwfYIQiwA3YIAuyAHYIAO2CHIMAO2CEIsAN2CALsgB2CADtghyDADtghCLBDEGAH7BAE2AE7BC0tpsu8MbeRBbADdkgHJRLHrUtMH5+gW//T117rvI+fl+ADdsAOhVUeyDVwn9x/3fjpdHtizd+tSxwP2AE7FEIXnS023+uLOyv6R9Jf6B9xnu4fSb1O463+4dTBgZHUo/Tcjevi08s92KcBO2CHQjgP7+mPpz5FUGeHxh5xN2yZcgdHd7kDozvdwc273auv3+tupOcZ/vXDqfXzeQCAHbBDXck4AS7n4gTwXUPbHnMH4pNu34hToMclGmUCvyJuvcezCvqBeHorv27t2L0nAHbADoUAcnLLvznkWeuChNo9ymDgK1dfv4/uT44BdsAOhQ7ydGURyNUoe7DvBeyAHQqZJXcDDsAO2CHNIQfsgB2KCOSAHbBDEYEcsAN2KCKQA3bADkUEcsAO2KGIQA7YATsUEcgBO2CHIgI5YAfsUEQgB+yAHYoI5IAdsEMRgRywA3YoIpADdsAORQRywN4C7DnbeFZB7gB2QN7lkAP21iz7Mwpy122tKi8EyAF7Fw6y6Hl3P3+vmAUXHpC7IRuAPdgosGXPWLEB/p7TiZ7jAQMgB+z6wV5095huzjKegFUH5IBdX9gredtg0A/POKtXAAhADtj1hb1cnjR5rn4poADkgF1f2EvuLnLfndjlAAOQA3Z9Ya8UUqabGe9dCzgAOWDXE3aCXNz+4m3nnNMACCAH7HrCLpbX6Dsk5ffC8hogB+yawV5RgbhMcuWHsLwGyAG7jrAnyZofoGSZpHG7+C7TsOaAHLDrBnuBjzNnm9+u/w4QIAfsesDuQW6Z3xHH3tOzDBtaADlg1wv2WsgJcFhzQA7Y9YIdkANywK457IAckGNoDjsg14jyZQJ0QA7YAbnGgiUH7IBcb117rSOymfrjqb8f2vYoIAfsgFw3rVuXENlM/SNO/8at+/kELfIJClAjDTsg11BiXt43kvrJhi0P0wmZLgLQSMMOyLV12UdTHx7cvIdPyhLAjDTsgFxLtz0xLdz2vmHncxvHDmBuHm3YAbnuoJO7fs/GrQT6cApuezRhB+QAHUNz2AE5XHeMpYJd/V+0AntmDvZZWRTi6EUjkoAcwTiMJYJ9nzsQT2/1ljrbAvv33QOrRAlmad3LWVtC7916z9N9r2iE3E8OyLG8htF5y75+OLXegz3ROux2bHsxbbpcy62UFl1UhAXnW37s7u11Zx3DzSVjt4nX0jmQAOSau+9ImDnWozS4eTffvr4uPr1cYttUEQdhlWUBiNkJ40J25QnwQ1x3XYBtG0W6fzCTNL572DrrfHWBQNGIqLnwSIE9VmN2o9hf4NzYyny9Cryvdpu7f81JecdYM2PFLspb5gdecC44cb6/g6IibGo5hiNdZPedpk+P+i+8rYh7li8EMj9PVhyuejSFbarHcq4u3Pfh1EGC/ER/7KTl/9UeL8gmwGc3vQduOoTCE8dmDKcqA6M7+f5b/deNn97KPB2CAHs3W/TRXSIgRxb9ZIAOAXZNI+8btkxxMO5pL1ySwPwZAuy6jb4Rp+D9vukvtCPqDkGAvQvd9oH4JEOe6Ys7K/wrIBAE2PVYVuPEpMLQtsdcymH4FKw5BNj1HNJlT93Fv2071s8hCLB3IeT8W85F2RFphwC7vpCL3xSQQ4Bdb8hdQA4B9oVGhTPK5FbP+lGRgS5ADkEhgb0iCmJwmSuv1FWJIeYlKc4m4xzxDVQ0g8egGLtdkU4aT6v93up1RfkYkENaaxlHdXn5hiuZiEH3W4r0dg72soKTqq+4XBCD98pzuSve5eWtO6cyNH5O45WB4dSLdPs/dAH4Kd3+L92+yVs/+UKwces+73V06+37Tle8904v5b57QA51Xo2UKGoa+PbBXlEW2wPUg5Me52g8T2Du6BtJ/yWB33fVcPrCaz45edaGzff9Sk1hRTqW9Z/Zf9LG+K5fvSqeXD0w7FxCr/mTgXgqQevUu8VFgS4S3gVjn3fBqHoJgBwKuRX3zi/3OIZkYDj9d3TyPUTjQTr5t/cPT14W5ILQAdjZnS4IAMlqX339FKWEpg8R2N8jUP94/ScmjXb9GHxRoOyz36L3/TQd53763BkP+imfF9HWuT0ghzo+iZ6Dj4Chk+5ldnv5xBZusHSFvTpxqf+ik/FjS2rZvUBaQVhv728z4gI0mr6SrXL9dxFTDjHtSBzPFy3fktSyI743Dd4YIqYqR5miXEleAW0kGaNjeYbdellKq11lrwE5tASBMnlSUdWSOxloWZesKOCbC2wVvJ1TD4u5L1n4m32WfVlnYPfSPjlgJktMv0HH+EWGrma6IWMJbc77XsYXifnAF27+sDPOxyeAFxeipgtlAnJoiaPhXANu8XmoiEhL8D7bQdj5GCryc97izxocmzrFD7cEcGmgoOPkz/RvC73qk865PK1hT0O69AXpfQByqEshr0LWwLzTO5lLbM24oUPbYY+n8+w5sCXn5zhg5p87H+sdW2pFQj0ejFsX8/5wvij5gnaAHOpWyIOvWbcbdt608fEbn2S3/d8JnrU1gHdZ6qdy7asufTx9Ax1/3ive6BQAORR2yDsDuwJmdPJPx8aeO6EKeJdDwBZeufR9102u4oCdDBqWBo5MvAHkUKggbz/sdbuywrYVU12cpGfyD3Jt39++CpBDoYS8A7CrjjDhBMC7OFVLYQ+LOENcVG3NA3IozJB3BPaQ/+DLVBZe/7B9GWfsXXPjE9WiEYAcCivkXQs79woTDQlkN5KakaAhmxV04hhVgwXOKKRA3der0xNADoUY8q6AncGeTkiQAzYEdBPVC0Dblu9qO56iMgykB+THDHZ3gf5h7zrGGdwtNO8YV+Us4xN5yxjLJGM3zFjmaMY2N2at2KXZyZhRDzf3G2vmYjGfVIotTkpIJ8gXg739gPuaALoPrTk1Y68czFrGt2j8W8Yy3uY2wO5urwc49/sWg+/v6XXLkyb3A89lk8bPsknTzluxbdxJtOYzGHj0IYMAeQOwxz3Y2+W6iiaABLl6zJY5Zxv3EbT/5+4xPZh3mW4hZTDIFe77TaPoH7IHeDlvG26FgHcf9i4C8m+nqX3wMLcS9gOPEwwC5Auny5a9NWWvu0irbYSeu3dtdb06lzTWZW3jSQEqWelCynR9UJck5O4io0IWvey7CLjiYjEloD+UnYjdrC4qYh7vwrpDgHzeNkIe6M7jrYCuAm3Cgj8UMwjCSbbaDKUP1EbAPvqw5zyAUtrzDuj9X87bvYPqWNRxQBAgr2kjlHp3/ajzG82C7p+HzyRjcQqsZaXFLWU9F9zt0OALSEG59nT/gZe+5bnzrs+zgKAoQy6OhXd19Q2ntvEx1pRzChBwq7rqlvE9trAcYGMAOwh4/RAWvmrdnZXnAnYIkNe0+E39uHq8TULuOhecSKD9wN3XqwAvLyHk/jHL0wWCvcDxAcAORR3yOdCHJ6/g4wy6vKYgf80xTibAnpeu+uwxAtw/ihz0K9KYmTCuAuxQhCFPF8W+7OHUk3ycQRNG/AksBNYPuwjyqivP0wcxhUiu/HD9agAERcGSz2PNE8GsuQy+ZS3Tke56N0EuBq/Dc1Se4gaHCXazPp4AQRGA/OG5uXnAKLtyg7O2+VmGPNeFkPtGgZf3MknjP3wXKayzQ9pDLmqmcVOFgU32VmHNE43PzZVFnBmP/bbIavPWtFtZG6+w5c1ZZkFlwsnhz5QrtxygowtS3jLuhAsPRQNySnuV6+bvXLnFOUN+gWWNf1XPGhLgP+L8dJWp1hTgZG05vZVz2kVKLN3yerhIglG571Nevru8CJRaSLAp8/tmnN61cOEh3SGX1lw0N5gIGmlXueTkBm+ROeeF5qPihspbzxLw+2fs2Oczlnn1e/bKP6Clsd/LO71/xDvZZH78QXExmLuwNONBFEWGnm08VR9MhCC9IJd13zndlVolfTwI6Gp3GMNO0LwidpUlA7vUFQEcWemMZbyTS8ZuyyTNlYt+9nNrT+CLgIrusxfQpHUXsGdso4/fF2mykK6QV+rTXRtNklHWPGebm+VSWqEJyMvea2NJ3ofun/fz+0+rijJ1FWf8x8FWniGvTAafNrD7L/Pun/KvHECQTpCLaLvXqjj42nl1bk57yEXmWTCLKgJ2wvW2zVv8lroRF5q9CVlkQvzt7ETvBVnL/Lm7s6kYAebqkNaQV/PaKVnmy0Gi7QqGAsFRTJtuE1HwEs+x6fbTyjtodo7MqbbCs3BW9tJ8+81SOvBFp+DFBsy7/J4KBOkCedWi03bUfm9+3liSTDUIZ8W+EjQIx5F16erfI96LlrZarQajYOdiFrJwhRsgQFeWbv9LykNAdRpII8i5Z1va6zu2efIc/h6NbketWVIL4LbneC7tudc/rX+vlv87lGW3Y9ubWAGocB58ZhzuO6SXJRf7zrmrKEXbD62L71guv9ii0CkXm6PjBEhGRrwrDa5fF9llp3zzIWXN2/df4l0wXt2xejl91uulAFOKnHLfk8ZfwH2HdILcvyX12UDWXFq7vL3yikBBOFp642AZRbpf6JR7rC4cOdv8IoOba9yqF+V04gGADukEuVg/l4kyqWbm5wTFZ6SLXAwS9MoljQS/vhNpp8rb4CITdVlwiwcHvT3rP2rndAIC5N2REcf9wUdS/xQo4q5At81/DAS6suhJ8w+XYh6csYz/Fp/XmMdRlq7+IZdcf8AOyPWAvBb0O5oC3TLGpbvbCOgVWUrq8MzE2Wd2EiRXFaO0YlbQ48tZ5ruHHzjz/QAdkOsBuQ/0vnj61kCgS0tMFnNKFF9srNBjWTZeOFgt1NihJaw5j8P4RgCPg3fMiV1t7yRXrPZPAyBArgXodPs3zYDOG09E0ksjoJPbXvECcS922lLOpeYaiYZBt6ugF/PjvecAdECuB+RtAD0Liw4B8lCB/iXM0TFHB+Q6Qu4HfST1DUTdZdQ9abyGqDsg1w90sY6e3iFAXxcQdMoia2od3TZu59d3ch39PV5HV+vnja6j78Y6OiDXcnjlnfvj6Uf4Oze6RbXVzDiytB3PjMsgMw4C5Go45Q2b9/D9F5qxmpzrTtY5UK57Tua6E/RD7bbqygpz22TkukOAvK66TN9I6peDfzbx6/LHWBYEqkzAohNLsnvNMr4c0JrP7V5D8QltKY8q5DU72AaGnUsCue/V/ejmV5rYEurtR7eNbyp3u2370amIpIzuB96PTt7GS9W+cdiPrhnk0oJFFPJqPff+kcmxQJF3lR2XNH+3lQozedv8c3XhaLXCDHdeySSNpivMzFjG3XDbNZTalkkpoHdHEnJf5J3c9/uDRN79LnfLNeMs86+q70k14xLN1Ixzen+T1s1bqxlHFy247ZpJndB9cefWoW2P8Yle8CquRAx0CsgNbt7NwL+USLgKsEBVYEVN91aqwD4sgmATvxzvPd3vMTRaBZY+fyvD3UwVWM+zQBVYTS25d0L3b9n5wYHRnSIoRSd6BCH3BeXodxgctX4n0Dxd1XWnOTaBcrANdd3fnpmgpg0Prjprsc/maD1Z4A00z3+29bru/NmxAX5f1HXX0ZqTu8rz074ouuzzVoJ1/pZ/l7Vj9za85FXdQNLeTi0ZipjvoznzrQJmJ/b72XHjkrzdewUFzLaSBadOLbFX29apxTJ+4F82hLQJwPX0DI5NnUIn+BsccebIc8RB9zqpDjv/GWSJbd65ejt6rzmGy+686r1W7nTvNczNNXbbN+08v7YaaqRB95bZaK4+GJ+8NIj77gdkxmlfN1W5I06BXJbv1/ZuqnT7dTUVAB0aSZ3AdEJfLKx5tOfmR7ZNHkn9c5BltirsEpSZCeOvQ9Mf3TKer/dKIM0s+mA8fd6cJYdF97LkRI33w31bJlf5lx8DuPDi78kap6S17EbYS3KX2gx3doHLrvkcfV18ejmd3K9jjl4zZq+54Qm3b5OzyR+0bPiX9QWzCKh/lUtu3QR7ibPmROYctWKGy6571F26pWS97hM100acAiBPFThpiPIK7pbmuSlXtppC6hgnU3T8J10Eu4jqcxZf3jLW+6cbkObu+1WbnXP72V2VwaioQ85pwPWeT0uwe7vI/kW68YU2BNCaD7ztEgUoCjk7dhkgj6BVHxhO3zS07VGv/9hIJANztZDzvNx1Ww5M+ee9vO7NS2V5b7NJYSlddbFW7u1ke3l2YuV5gDzCEfj+eGr7RpHrno4a7B2BXMnxwT5jmaMEXU668qUGC0o2O9hzKHBKrEyvfZC9C0AeXS1Tbjxlx90RMdg7Crl/2UqllWYnYwYBvpPdaJlfXm4hq22+BBhhwUVyjZdh90rGMq/2BQuR3hrlKLyy7BGCfUkgr/mVfZb08ETscoJwWlhcsvAcJMvVJshUGt0Q40ugqWbOEfSv8Y44lZ7LgGOdHIoa7EsOuX/5zT935xz2TDK2gyD9hchb55RXsvYiu+7ITDhveBeEMm9iUa65LAFVpn97ioJtI6/KKq7iM7G3HIog7McM8vpAnX876NvOOaeJzSuWcQ+NH2cs4x1e667mtu+VY2ou953+Lk8Btp+R5XYyVuxGCvStqfkM3s6KKjFQBGHvCsiPAH4ei/ve/bFfm7FiF/F6dy4Z20QgbyPLf0PONjfTBWBI7GajajL1e8eFxzANNx2KLuxdB/l8AbtmIHXV67DFFIo47F0N+ULgO3UVZapDVZxh6w3XHALs4YQcggA7IIcgwA7IISg6sANyCNIcdkAOQZrDDsihCKPJHT3ql2layn3uStgBORRhyBfZrdR8mmRXwQ7IoQhD7ts8kXOMj2Yt43M07swlzS9lbHPjWw+tOdV3QTgupLADciiigJNLrsDNJo0hgvtFsf95r29zBLfgoa6bOTv2+fkuDCGBHZBDgJys9lcF1F53zVLOMrmEUVHdivY/B1YR8LHHqj3EwgM7IIciDLmqK07dN2RBwqO17OGiBXnxd7bXSTMksANyCJDXQV5pqEIoFw8MB+yAHALkTUAeJtgBOQTIW4A8DLADcgiQtwHyboYdkEOAvI2QdyPsgBwC5B2AvPOwU0eYgcXbP1X6ADkEyDsKeQ3svPRWXWdvMYOOO8KI9k8EM4Ps9Xuradlcls9XhrY9Rg0P03cDcigccMrKnNNztb7ExpJEQGiWGPI52Pf1iqQa36E0lRuvOsJwrzfuQ85dXGXLZrbyAnZ+vHHrAXdgdCd3Nb1VvbaVhocQ1HnIpxffVNLFkKuR5ww6lS7bQkOAqmXfwF1cqWUz92dXgEuL/gZZ9Pv7t+z8oGfIyZIDcqhrAe/xpaImzZVZ27yF8s5TOct8PJs07awVu/nwA2e+X819j7aD7BhDLjLoOF2Wc+PfeuiMU9UxNfvbqC6u4n58evlgPH3eYHzy4v5NO88fHJs6pfpv66bRYQTq/rm0BPMmYRE555xb5+zxtdCxjEzGjt0g//64+eDpAsjVKIqNMLTrTU5HWoKQ3Xg/8DUXAgJcufkQ1L2Qy+g0WfKvuY+wy2twX6yCL++8yI9Fy539DE9se9Wy+2DvIsi5t3ZBROFpi2uL7vu8c3d26T244aZDIYKcW+nIPthFuXlkoU0lokk9Bbvu8Lvx3QR51aJ7Xsid7QUdgsIIupyXkwV8hhvkqXa2R219a9fBPu1F57sI8qpF5+IVAB2CGHJn1dkMhq85vdso7BTZvkO9T75LIJejxMUruFKN33OBoOiCPmF8lIs95BbeB75QU/sSz9mpe+ZtuaSR4PtdA7lXvOLFqueCnl9Q5EG3zY80AbqCvcyvlWCVG/QIOjkq1fk5laWS0xO47RCUS65YTXAUcnOgNAxWxhIR+rIYxxbwOcj3iWW1r8Jlh6C6YBwlxDzdYDCuW0cVcg4I+r8bBAF0afFmxs0rOTFGrptXdIC8lWw4CNIWdl4u66KAWvOQu4AcghZx4btqiQyQQ1BbQfc3UQgH7IAcgpqG3Q0F7IAcgjSHHZBDkOawA3II0hx2QA5BmsMOyCFIc9gBOQRpDjsghyDNYQfkEKQ57IAcgrSG3QbkEBQF2Mu8sSYPyCFIW9hFCSguSyU+o66cNARBesAuQY/dJt6fq8ui1hsE6QV7zpY16PbPVZeFVYcgPS27V122vkkEYIcgDWGvbxLBQTm48RCkMey+Xm/4lSFITze+KBs7el1c0VoJgrSEvcxdXLlls+rPnkAZZwjSEPakapgYuxlWHYL0hb0oas4nTVu8L1osQZCWsJfcPdwbznxcvCeCchCkJezSohspfo9pWHQI0hB2NUe3zVswR4cgPWEv52yDb/OZpLlSztERdYegUMG+v9rYsVjTW13uSxdu+yOr+LmbYM0hKGywS6ssGjvS/JtbNud8vdb5Pj/nTnEarPk1WHIICjns3LKZ+7OT1S7wNlWxVZXu0+NnMpaxvvr3yHWHoJAC71sqyyVXrM7Z5kdyE8ZHc86qs+f7GwiCQgz7fG45PwfIIah1/T93JlhvXQtrgAAAAABJRU5ErkJggg==;" vertex="1" parent="1">
          <mxGeometry x="900" y="1000" width="80" height="80" as="geometry" />
        </mxCell>
        <mxCell id="CaZW2Dd4cFp9OG85ohZh-78" value="13" style="ellipse;whiteSpace=wrap;html=1;aspect=fixed;" vertex="1" parent="1">
          <mxGeometry x="801.46" y="990" width="30" height="30" as="geometry" />
        </mxCell>
        <mxCell id="CaZW2Dd4cFp9OG85ohZh-79" value="12" style="ellipse;whiteSpace=wrap;html=1;aspect=fixed;" vertex="1" parent="1">
          <mxGeometry x="960" y="990" width="30" height="30" as="geometry" />
        </mxCell>
        <mxCell id="CaZW2Dd4cFp9OG85ohZh-83" style="edgeStyle=orthogonalEdgeStyle;rounded=0;orthogonalLoop=1;jettySize=auto;html=1;exitX=1;exitY=0.5;exitDx=0;exitDy=0;entryX=0;entryY=1;entryDx=0;entryDy=0;fillColor=#dae8fc;strokeColor=#6c8ebf;" edge="1" parent="1" source="CaZW2Dd4cFp9OG85ohZh-80" target="CaZW2Dd4cFp9OG85ohZh-18">
          <mxGeometry relative="1" as="geometry" />
        </mxCell>
        <mxCell id="CaZW2Dd4cFp9OG85ohZh-80" value="&lt;font style=&quot;font-size: 17px;&quot;&gt;&amp;nbsp;Health Check&lt;/font&gt;" style="rounded=1;whiteSpace=wrap;html=1;strokeColor=#d6b656;align=left;horizontal=1;labelBorderColor=none;labelBackgroundColor=none;fillColor=#fff2cc;" vertex="1" parent="1">
          <mxGeometry x="360" y="680" width="190" height="60" as="geometry" />
        </mxCell>
        <mxCell id="CaZW2Dd4cFp9OG85ohZh-82" value="" style="shape=image;verticalLabelPosition=bottom;labelBackgroundColor=default;verticalAlign=top;aspect=fixed;imageAspect=0;image=data:image/png,iVBORw0KGgoAAAANSUhEUgAAAMgAAADICAIAAAAiOjnJAABLQ0lEQVR4nOydB3hUVfrwz/TeS2YymfReSAdCDYSOIIrCZ0Ol2Mvq6u7quvZd9a9rWzuia0GkqEgRpNdAIAHSe5uaTO995n5P5sYhJJNkksxMYJPfA8+T3Hvuvedm3jnnPe95CxqCIDDJJMEGOd4dmOR/k0nBCi3nzp0b7y6MD5OCFVreeuut6urq8e7FODApWKElJyfnnnvuGe9ejAOISeU9pEil0ujo6NWrV+/YsWO8+xJWJkes0CIQCGbNmrVz585du3aNd1/CyqRghZzFixcDAJ555hmTyTTefQkfk4IVctauXQsA6OzsfPvtt8e7L+FjUscKB0Kh0GQy6XQ6kUgkFArHuzvhYHLECgePPfaYwWhCIFGrVq0a776EiUnBCgerVq3yuF1YPOnSpUtffvnleHcnHExOhWPi3LlzERER8fHxw7bMzs5ubhdbjdr4+PjW1taw9G48mRyxxkRRUdGyZcsefvhhhUIxdMtFixa5nHY8idbW1vboo4+Gq4PjBzTJ2PAZqHbu3DlEs/PnzwMAOMKUCfJn/99/wzCQlJQEi8tf/vIXl8s1WDMkEkllR+JJNADASy+9FN4+hptJwQoCe/fu9c0AOTk5SqXSb7MVK1agsXgGLwZu2dbWFvaeho9JHSsI3HTTTbB5HYlCX7ly5aabbvJrZM/Ly3M5bBgcEYnGAAC2bds2Hp0NE5OCFRy+//57Go2GxuAwOEJZWdm0adOkUmm/NnPmzAEAOGxmCiMCALB9+/Zx6mw4mBSs4MBms1999VWHzUyisTE4Ql1d3W233eZ2u/u2KS4uBgA47VY8iQoAqKqq+h92A5wUrICwWq3ffPPN0G0eeughPp9vNqjpXCEaiz9//vx9993XtwESiSwsLHQ57AAADI4IAHj33XdD3PHxY7yVvBuDkpISAEBMTMzWrVu1Wu1gzRobGxEIBD0imhuTiiNSAABLly7V6/W+Bu+//z4ShYqITWfwYuG/f0VFRbheIqxMCtbwfPTRRwAAAoUBi0JUVNQvv/wyWOM77rgDSyBHxKZzhMkIJAoA8OKLL/rONjY2AgC4MWkRsekoDA4A8Mgjj4TrPcLKpGANQ3d3N4PBwJGoEbHp7KgkIpUFi8uMGTNOnDgxsH1paSkAgBkZHxGbzuTHwY137Njha4DFYulcYURsOonOAQDExcWF94XCxKSONQxPPPGETm+gsQUAABQaQ2FGsAUJBDK9tLS0uLj4b3/7m81m69u+qKho4cKFRnWXV5Ei0LlRACDWrFlz5swZuMHUqVMdNgsAAO+dK9vb22Gj/P8Yk4I1FD///PP27dtJdA4CgfAdRKLQVHYkR5iMJZDfeustMpn8888/973queeec9otdosRAIDFkxi8aHivEN5PnD17ttNuBQCgsXgcoUe2/vvf/47Hy4WWScEaii1btiAQCIJ3E6YfSBSawRVSWXwIAqtXr16/fr3PcDVv3rysrCyr2QD/isWT6BHRNptt06ZNAAAGg+G0W+BTRBrrf9WgNSlYg1JdXf3bb7+R6FwkCuW/BQJBoDDYUUkYPOnrr7/Ozs4+duwYfOaLL76wm/Uetwv+FUcgk+icPXv2fPHFF4WFhb4bYPFEFAan0+nef//9cLxSGJkUrEF58cUXkSg0yTuoDAECiWRERFOYPI1WW1JS8uSTT1oslunTpy9YsMBuvbqxQ6KxsQTygw8+iMFg+l4Oa1pff/11yN5jfJh09PPPwYMHly5dSmHyiFRmgJd43G6jtstm0k+ZMuXrr7+2WCzF80vYgkRfAwjyaLtE8bFCCIIUOhuOSAYAuJx2tbQVAFBaWlpUVBSyFwo3kyOWf2B9CE+mB34JEoWisQX0iOjq6pr8/PyGhoaUpER4AQiDQCCZ/NiWto6mpiYI8sAH0RgcGosDAPzwww8heI9xY1Kw/PDVV19JJBI8iYZEjvjvgyOQmfxYDJ64adMmKpVqMaj7NaCxIwEAfWdJHJEKAPjll1+C0ffrhUnB8gO8hRf4JNgPNBbP5MWSGdzz58/bLUafCg+DwRGobAHk8fiOEMg0OBgfNq7+bzApWP0pKyurra3F4IgYHGEs9yHR2DSuEIlEOeyWfqcIZBoKg/X9ikJj4e0deO/of4NJ5b0/a9eu3bFjB5Mfj8Hhx343j9vlctqxeNLQzawmnUElAwCoVCoWa5h1KBxXLZfLcThcRkYGFosdez+DzqRgXYNYLI6JiUGisWxBwtAtHTaz2+mwW80oNAYe22Avq9HRs07srAcAHD16dP78+QMbuN3u/fv3n/ZSVlbW99Qbb7zxt7/9bdSPDhHo8e7A9cU//vEPCIJI1GHGDINabjVq82MjUTQKAMDicNRIFAYVEo3D44lULIGMxoxsFEEgEBgcwWm37t+/v69geTye3bt3//DDD6dPn4Z3hFhkQlGiMCeal8BlcamkC22SgwcPXoeCNTliXaW1tTUxMRGBRLGjkoZeD9rMBj7a9uuf7vIdsTqcx+raLnXKD1Q1qU1WNBaHJ9GJFAYi4HWlUauw6FWpqan19fXwEPX222+/++67SqUSAJAVxV2ekzIjMTqZx+q7cfncjkPx85Zfh+lGJkesq2zduhUAgCWQhrUy4EnURpGsuUudxOsd2whYzPKclOU5KS+sLP7T1v0Ha1pN2m6LQU3jCIZVsGBwBJJFr2poaAAANDc3r1y5Ev5ZyGK8sWZRYSxv4CVynfHnivqab3aO6nVDy+Sq8Cpw0j08MSBVCUugbDtfNfA4AgHeXLv43pK50YlTUGiMtqtTr5T2NS4MBuysDAB44IEHUlJSGhoaGPx4CpHwyKJZBTF+pAqCoEe/3RcTE5ORkRFIh8PMpGD1curUqdraWgQSFZ0xA40d3tBApNC3nqty+5MYAgZ965TYmxOZcTnzaRyhzaxXSVv6WbMGgkAg0NiedejmzZshCOIn5kWnF22cV5TaM/f5ab/jQk2tVPHAAw+M4CXDyKRg9fLqq6/CRlFFRw2RymJHp8G2pcHA4klINOapHw74PRvPIqcKIm7mOhIzp6dMX+Fxu7TdnW6XY+g+YAlk+IeU6TflLr6X3HUpjssW0okDW0IQ9OXJCg6H88gjj4zkLcPHpGD1UFdXd/ToUQQCSfSuBw0qiUpUT6JxqOyoIa6isvi/V7f89/SlgaewaBSTiBWyGbdE2LEuy8zbn0EgkGpZm8Wg8Qw+LWK8IyWNI0ybuaqz6vTyKckRFDwFjxnY8pkffxep9b/++iudPoLdzHAyKVg9/P777z2f67Vqu0ElsRjU/MS8wWZGHIGMI1Lf2He6rFUy8GwktecqKgFfzHY7rKacRfdCHo9R06Xr7hxsJQ77O+iV4p6fTRIyHsej+DHSnqhv33elccOGDdezN8SkYAF419mv2u5yWOUtlyisyMGGLho7EoXBPvjfPR8du9SsNGosdqPNCZ+i/jHSJPG5yLaTnOg0tjAVDlhVipvcLufAu/nULJvZAJx2AACP2ivTRptTY7G3qIzHGqV/+uEAm81+8cUXg/o3CDKTdizQ1taWkJAAEAhOVPJgzqJoLIHCFhiUYrf38+6L02HTdnVAHk9uRvaSJB6f4ceP2Wi17VBSObHpR7Y8X7D8gapj2xw2E5XFJwxwy+k1vS7bZBbXPFIgpBMwBpvT88dH1Nqt/OZkGYXJKi0tjYoaapoedyZHrF5/FQKJNqgLsnfo0spa6NwYn37tA4PFU1mRAIAmiWyXFLmnstlotfW/3OOBIIhM5ybkLcSTaCX3vYIn0Q0qme0Pv/ird/PuDmm72gn85B3nKrQWByxVRpttX0X1B78dtzhdW7duvc6lanLE6mHBggVHjx5lRMRgCcNbMhn8BIfVaNb1z99nNemNGjkGR4zPmU/AYihmiQDnZlPIDBKhS2cs7bbHzL0Hgye6HHZpU3lM5kyrSXv+5w/1SjGVHdl33HI5HWppC5ZAWbj+n13tVeqmCxhzNxqDa5fLbU4nh8P59ddfr2fVysdEFyyXy4XBYJAoNEeYHOAlVHYUBEFGdf9kMg6bWacQQx5PZHJBVvEaj9vV1V6tljRT2ZGpRSsH3sduMRz/7jWbScvgxfS1znd31AEA4rLnZS+4q+fX9urLh761mbTp6em///779T9WwUx0wfrwww+ffPJJPIlG4wgCvwqNJTD48crO2n7HPW6XWa+2mrQIBDIqdWpU2nRuTPoQ9zGoZWW7P7IY1Ex+LPoPs5lK2up22jE4YkLeAmlTuVEtg8MSt2/fft0aFwYy0QUrOTm5ubk5MjkfT6Katd2BX4jC4DjR6V2tlwee0iulNrMegyNgcES3yxkRlxkRP0WQXOD3PnqF+MyO/3M5HazIOBQa23NEJbWZ9EmFS5ovHgQAzJ079+WXX4ZTIN1ATOhNaKlU2tzc3DMh2i1OFIqXkINAIOUtfgyeA3E77V2tl6NSp0sargmQtxi1NrMeAJC7+P7IpLxh70PjCqfd/OiZHe/oVTKmNwUNLF7RGTObLx7ctWvX6tWrx/CK48aEXhXCdlEUBodAIBxWU1frle72KnZ0GicmPZDtQgCApKGMFhHj+9Xjdpm8w176rFsDkSoYtjA1Y87tTpvF4M34gPYKFhqLJ9G5N66z8oQWrPLycq+9m+I74nG7VKJ6ZWcdMzIxIj47gHtA+u5OBi8eDhtUy9p6lPekvORpy0bUk6TCxVGpU61GjcNmhjOUmnWKhLyFJ7yM4tXGnQktWPv37wcAUJh8dnRaP9u6oqNaJW5gRaVwYoZ3StF2tXl1I5nH7UJjCRlzbx9FZ7JL7qawBUZNly+Ig5cwBc4fMYq7jTsTV7DEYrFIJOoZadxOlai+Z2kmSIyIy2Lw42G/BrfTrpY0KkV1EfE5TEHS0HczaRV2r7Uzb8n9JBpnFP3B4Imzbn8GgyVaDGo4qxaRyoqdMnfr1q1tbW2jfctxY+IK1sGDB2HDAew97HJYNdKW7vZqo1rOFqZGpRX1qlkQ1N12xaSRR6VNH0zxcjpsZr0KACBInRq4ajUQHJGSt3SDSav0BYcl5C3wpRS8sZi4gnXy5Em/oTUuh7W7rVJSf47Bi+Ml5BIoLACAw2qS1J9n8OP97kYbNT1KN5UTVbh8rG53nOhUfmKuy5tAq2eaZvGpHOGHH36oUqnGeOcwM3EF6/Lly74oZL8oRXVdrZeRaDQnOp0lSO450lnrnTGT+oqXxahxehM05C5cF5SO5S2+j0hl+34VJBe43e4brqT0BBUsg8FQV1eHQKKQqGEseWZtt1JUZ9TIYrOL0TiCd8ZsBgDAa0a3y2nSKgEAiQWLGfzhi8sFAgZPnHHb075fYdv9DZcyZIIKFqxgYfF+vH794rCaOipPUFlR3NhMFAZnUEnU4kY6L17XLYI8bjIzMjprdhC7R2ZwfWJK58WSGBFnzpyRSPy4E163TFDBunDhAmyEHNFVGlmzoqNGmF5EoDBdTpuo9qzL656VULDYqFEYNCPYERoWFLrXTxCBQPATcyEIOnLkSBDvH2omqGDBNnf0kOESg9FReYJAYeIpTKtRCwDImHObMLWQSGUaNd1G7TDlMEdHQm7JDVfUaSJuQjudTjiRBluYjBpOx/KLx+1Wy9s8Lic/MW/azb1xMi6nw2LUUpkRwe5vD6d+fEsjbVYoFBzOaIxk4Wcijlhnz56FfxidVAEAdEqxx+XEEig+qfKOf9gQSVXPdyAq2RdSe0MwEQWrsrLS5wQ8CswGNWxfKFi2EYIgm9kYXO3KLyyv6f/w4cOhflCwmIhuM3AlCExgKRX6YbeaTV4xikorQmDwstZq+PioxyqnzSKqLcWT6YIU/w5bvff3lsb49ddf7XY7Djca1TDMTMQRSyaT9QjWyDV3l9OuU4gAAAQqOyIhx2E1j70zGDwxIX+BtKn8wt7PhmhGoDDg5A43SonDiShYdXV1PW+OHtloDUGQXikFEITBE1NmrEKi/AQoj5qpKx5Co7EX9n7qN94QBjb3w1myrn8mnGA5nU543w121Awci1HjctgAADFT5vsywwSRvKXrAUDUnho0JxGctbu2tr+j/fXJhBOs3377Df5hREtCl9Nu9m7dJAyydTNsMplAmLriIa28XVJ3Hq7CCiNvvgybhOgRsT7T7vXPhBMsuAocFk8GfpMD+cPlsGvkHRDkEabPSMhb6K8J1LdQwFjIWbiupeKwVtpiVEktOmXNyZ0WowZO4Udh8QEAcCnN658JJ1iwc1/gGRwBAAaNHPK4sQTylPl39MyGAyzKCCR6iCjqEUHjCtnRqY1l++0mffOFAyZtV0JeCXwK9vBpb28PyoNCzYQTrIsXL45IsExaBWy1yi65C4MjuJx2cO1IR6DQucKkAPNBBkLKtOV2m6m9+pSk6WLuont9x+m8OPiHG0J/n3B2LLvdHrhfg9Wkh11DhWnTBSmF15yDICyBxIiIRmOwPfOgvzTJdotRXH9e0VGj6OjRuLmxmfzEXFZUEpzrYTAweOKM1U8d+/bl+NwFuD4JcHw7m9u2bXvyyScDfeFxYsLtFWIwGJfLReNEDZuW3e1yqiTNPcvArDm5i3qd+FTSVrvVjMERGBFCjNc5QqeUmvVqtiABNyD1w8W9n0ubLvq9eUL+wqSCxUMUgZI0XIhKndrvYNmvH8tbLvcIulB48uTJuLi4wF56HJhwU6HL5fJ6AKcx+AlDePlBEKRTiHs0GwqTl3jVjR2JxrIi47jCJAwW73G7ldJWs15NoDAGSpV3HyZxsPu3Vhw++PkzF/Z+2tXmJ0MuAGCgVHlTSC4nMyLgSJDs7Ownn3xSLpcH8NLjwIQbseAVFjcmFY3B85PyURicVtZiUPX3oTOou6xGDRKNmVKyDoMnCRKyBq4iFZIWp82CJZA4g5Sx0CvEx797ZdguUViRU1c+TGHyA3yF8t++lNT3hl8TicRFixb99ttvDodjx44dt98+msizUDCxdCy32/3Hjwi3yyGpPwcAwJFovMRcyOPRdbXbLQa4so3VqPHaQufBW4oGraLfbiAEQT1ShSexeDGDPY7GFQbSK6NadvTrfwhSCtNnrybR2IM1M+sU4voyvUKkljT5Dloslt27d8M/EwhjqioVXCbWiGW32/H4HsUoNms2nkJHo3vUYbNeadEre0YOdhSVLVB01kkbLkAQJEyfIUgrgvdYMFg8N7p/niNNVydzcKmC6ag+o5G3E6gsFBpDoLDM2m4I8hjVMoNSZNL4mcWSpy1PKliM6bO20CvEis7azpozJm8s0BC43e5RFFgMERNLsKxWK5HY85lFxF7NLkRhC0g0Do5EU7TXWI1qlaTF7XIQaey5d/3dZjGbtAoUGsMRJg201Hvc7gDMV5C8rc7jcfvpjEGt6KxRtFX2O44n02Oz5lA5UTaTTlx/TisPyHAVFRUlFosDaRkeJtZUqNVqBx40qqRGldSr6wjsVrPb5cDgSXPv/DuOQEGhsBaDmsWP80mVQS3zGQsCM4oicCQq7MTcDwKVFZM1V5AyreHMLnjmhbGZdA3n9gT4RkVFRbA3bE5OToCXhIeJJVh6vR7+gSVIRqIxHpeTFhFtNWgcVpNW3ipvvWLW9cyJU296CM4UgsbiuMJkX1yDQSVzOawjfSiNxbMatGCQDSQ0Fg8HWEdPKVaJ6iwDklD2hcTgkegcIpXTUXns4Ycf/uSTT0bambAxsQQLg+kVEbW0qe8POBINS6LZpS0AgPjcEk5Mmu8Sn1QBAES1ZzNHnvADhcaQGWyTbqhQZjQGHxE3JSJuisNmNihEdovB6F2o4ilMDI6oV3QgkejUWb2JspSddQCAv/zlLyPtSTiZWILFZvtfc5l1So28HfK4WVHJaTNu9ttG2lgOu3GOAho70u1yWU26wRqQ/5hesXgSOxoW62m+s1aj2tPHT0snb507d25sbOzoOhMerpdFRHgYrMqtQSX1bjNTCpc/gBlkt6fu7C/RGTNG/WgmL3oIL3vckCXHmJFJ3D7JunTd7aPIHLl9+/aRXjIWJtaIhfKnbpt0Sqc3CUf+0vWD7bFc3P8FN3qoNLWBQCCSsXiiWafup2/F5S3EESj9GmPxJBQGY9EpjRq5y27WdrQ3n7+q0e/cubO2tjYnJ6ekpGT69OnDPvrEiRMPPvhgZmZm2GrQTSxzg8fjgWXLZ26wW8267k4AQO6S9TGDDEgqccOZHe/MWvsXOAZr1Bza/NdFm95y2q1GrcI7LV4jXyg0Fk+iYHFEHJGCutZt2qxTdLVWdnfUAIBg8uNxJJrdrJe3XIar7jCZzDvuuOOvf/2rUDioPXbx4sWtrfV8fszp06fH8gqBM7FGLJ/9EII8CATS7XbBUsUSpg6RN7vt8gksgTJGqdLK2y0GdUv5ocSCRUxejMPG1iokLocdiUKRaRwildF3leDDatRUH99uNWkT8hfOWP2U7zgEeZBoNAKB0ClEGo3m448/3rZt29atW5csWTLwJh0dHYcOHfrn60/8/YUPL1++nJubO5YXCZCJJVg+PG4XCo01qOVwadPorLnuQXyLzTqlrLk8Y85tY3yiqPbsvHlTy6vOJBYsgme6iOgUp8OGGTx/RGvFYZvFkFm8htin+Hlnzdnu9mosnkiPiMlftonC4jttlsayfW2Xjy1duvQ///nPY4891u8+y5cvLyrKnj27MCFBeOTIkfAI1sRS3gEA2dnZ3hJcNofN4rAYAQCCtCI0BjdYLFfr5aPe5LN+RoIRoRI3Pf30vUa1zO59KMwQUtVedTIqbXrG7NU+qZI0XDz69T8gyDN1xUM5C9fFTpkLOytj8MTMuWvyl20EADz++ON79+7te5+vvvqqrq5u1aoSo8makZEIp10NAxNOsOLj4QzHEJyGj8ISwOlrvfWS+qubLoet7dKR6PTRLwZhDCopleBKTIhOTIzuau2/hzMQectlYeo0Xzpnu8VQfWKHx+Mquf+12D75kmwmXeulI2d2vHNq25uK9prUohVoHOHuu++Gs0HDvPbaa4mJ0Tk5GSQifu3aJadPn4ZdHUPNhJsKYcEyaRUetxNLpKbMvBU+DkGQ3WrGXVvcS9rY8wnxEsc6d3TWnJ02bYpMpn7++U1P/fWLmKxZQ7fn93mivLlHSU+ftapvvJq0sVxcfx6NwfKT8metecZ3nBWVfHbnv5csWXL27NmUlJSNGzd2dnYcPvRlp0iVnhZdkJ/h8XjOnTsXhjoXE27EKigo8OpYzt4w+T5eVgPVrO72au/HnOOtnVTTeH7f6B4qa66gUik2u2PmjFwMZNLIWgO+8BIGT0ydsdInVQ6r+fT2/zNqZPlL1xcsf0CQnN+3PSc6LalwiVqt3rRp0/Hjx7ds2XLH/1tGoZDN5t5Kd1wu02od8a7UKJhwgkWh9M4vRDqXFZXS91S/EC6nzSJrrhAkF1oN6gt7Pzv30/vQ4OWch8ZqUE/J6l1ULls2+8qR7wO8kMaNZguvdlItaa48tjVnwT2pRSsHC5pNm3kLgx9/+vTpO++8EwCwYcPqmtpOr1Wi58VjYiLhnCihZsIJFhywisbiEwr66+NO+zVfZXFDGQCAQGOd3v42hRXJSxil+4DauwWJQqFMpp77L1kyy6AU91Xhh6Cv35+uu1MpbshZcA+ssw8GEoWavuoxAoXR1dV1yy0lH3/y4+uvf/Tcc28+8ujrTU0dNpsdjqwMNRNLsOrq6mCPAH5yIZ7U38jutF/zF5d5FSxJfVnRrU+kzVjpsluH/kQHA/I6Y7k9HoejZ6rNz0vPyUkV1404t4dZr0otWhFI9iUckZq94B5v8dijP/98uL1dbDZbjx49v2LlYzU1LeFxBpxYyvuzzz7r/bvTeAl+9HHI4/IZluwWo0rSmDbzlpTpy+GzFqN66B29wYDr8yYlxba396bR+ufrT6xa/YzLYaOw+CRGBJ0bPexN3C5HP3VqCBSddU0XejMJ5MdG3j0jG4tGvbnvtFijhyAIXr6EmgkkWLW1tfA8KBjEfIDG4n2GJZW4cdaaZ/vqNxb9KFP4wy7I8DjR1aXl8RiJidEsBlEjazGqZVaTzmk3Z8xZw4vPGuImAaYwsVuMVw5/C4eIJXAZr9wyvzC+NyW93mJ7ftcR2Nd0dC8yIv6XBUutVldXV586dUqr1V6+fLmzsxNWh5mRfgvjQGQ6p2eAsZjwRDIvYUq/z5JIZcHZZsaCSKzg8RgAgOef3/Ts3z6ef+8rOCJFrxB3tVZ2Vp3MWXRv31JkI6Xt8rHmiwetRk0Kj/1AccGy7GQk8uqaN4o5aKmEUPC/JlinTp06f/782bNn9+7dO3B/HYFATl35iNVitJv7685YAplEZTodNrWsDUekUJkR/QRr4cY3G8/vE9WfT8xbwIz0H+81BBSytzy91mS12gkE3OJFM8vLa3/b9/msNc/QuEIaV+i0W0W1pUx+3CgKEbRdOd52+ahJ0zU7OeaJexdOEfKGaByIN8TY+R8RrMrKys8++2zLli1OZ//EZdyYDDQOL2uqAADETpnTs85CoAYKFjNC6NOH7BajCYnsF4GDQCBSi1YAAC7s/QzfcCFr3loEIiAtGK4l1t7eW5xcqdRHR3MBAA89tPbQoScrj3yfveBuOCdqQl5J2+XjIxIsp91atvsjlaSRSSLs+dNdKfz+nozNXeok3tWtRgqFAscphZobW7BOnjy520tHR4fvIJkRwY3LZPDimPwEknd266w+LWuqQCBR8JYfkUzTq2RQn8gZEo0Fj08+U9YQST6mrnhI2lRReWSrIKWAE502bCdpnB6dxulywL+2d3TDgsVi0j755B/33vv8oc3ViYVLhGnTMThCfO48i15FHDy6sC8dVSebyn6zGNR3Fk15anERldAjMUdqW78vrXzt1hIhiwZB0B2f7nj9tgVLspIsjp6vXF7e6IuTjYgbVbC2bdv2+uuvw0kfYfBkRkJeSULegoGB8y3lhwAAkUn58AeGQCKpDK5efTWsj/JHMCo8YnmV5aH+MoLkfEFyflPZb22Xjg6rGMGxEpcv1+fl5ZjNNpvN0dAgTk3tGSAz0hM+/viFd9/9zq2oOFy6p/CmBznRqQFK1Zntb6skjWgk8quNt8xM6l1X/ufw+Y+OlCEAIOIwAICD1S1GmyPGq13VSLrhryKHw7nnnns2btyYnj5W18Wh3jp0tw4FJ0+e3L59+7Zt23S6Xv9xCisyOmNmZFIePDgNpOnCAaN3XZY286ozO5HGMulVcDAqmc6Bo7tcToevARI5/F8msXBxd2vVxT2fxueVRA5uC2BG9kxthw6VLlkyt729R/3vFCni43lYbM9nP21q1vvv/bWquqOmpvGHHz7hpc4eNl5D1nzpyuHvHFbjwoyEp5fMiOcyAQAGq/2J7/efaxEDADavX8UiE3s0BJH3xQU9A6TZ7oBDRbB40vb9p//z0af5ednbtm0LUWaRG0Ow2tvbd+/e/cEHH8ArOzjKNCIuMz5nfl9fJb/AG3w5JavhdBowSCSSTOfolTIkGkVhcuGDfcNKsf6SfPQDiURFxGfhSVRZU0V71cms4rWDRVvEZc9rrjyORl1do1242DRtagoGg/aGePSMKJmZKS+99NR7731Z9qsid/F9fudivUJcdXybWtIkYFBfvXPVrOSrWuDfdhyCpeqN2xfOTuk9LteZUv/QumqlCgBATOYsOPC/u6P23E/v7dix469//euwbzoKbgDBeumll1577TXfEo8VlZwxe3WA6zKNrNXttONJlFm33NEtNTodV0WHTGcZNd1MXiwS2esIj8UR2IJ4TVenx+1GBJZIEolC0yJi3A47nRtTvv+LpMKlwnQ/a67kaUvbK49v+eqnTRvXNjZJesYPs63sQmNiQqTD4RSJlXAzs9miUmkA0nz825eL7/5HX3ssBEGVR7/vqDzZo+TFC7578BrHw4+OlB2tawMAPLZg2q0FVye4+elxJluvrMu0RnpEDI0rtFuMOCJFXFsaUpXr+hUsqVS6efPmTz/9FE5ghyNSBCmFcdnzRrSvcuXIdwCAhOxpGCwOT7D1FSyv/3hMv/RDOAKZFRmnlnUE/ggkCk1k9Ix5adNXtl45quiszZp3R7/EbgQKkx2VsmvXoZUr50VGMmUyDSxblVVXiz1bLNbNm7cBFG7Wmmcqj247+cMb025+FFb8HTZz5eHvpE3lAIBb8tNeuLm/08vW0kohk/bsslmLs65JnHRzXhq8m/TuwVKJ1pA+e2FrxWF+Yq5eqZe3XmGz2YWFhYG/6Yi4HoMptFrtU0899c0338C/EmmczDm3DaHEDIZS3Hh2x9sAgHte/pgdGW2zOeWdmkAu9HjcvmEsQAwKMeyPqldJWq8cy110b78Fo14hOv7dqwCA557btGTxnPaOLoOhZwWKQiLdHk9FRfWvvx7S6Qw+c39D6Z6WikMJeQsTCxZVHd0q9uYteveOJctzUgY+Xa4z8un9FxAas/VSh+xIbeuJ+natxQYXF85bsp5IZR/56nmH1fTtt9/ec889I3rNwLnuBOv06dOrV69WKpVekWInFS6Ny547ultVHvm+vfKEMHXKbU//Ez4ialG43aF6X424CU7KbTFqas/8HJddnDpjZd8GLeWHak7u8BqTSPfde3NCYrSiW9cp6v7995M9MyAAeUs2RGcU+do3lO5pOLeHQGVZDWoAwJKsxA/uXj50H9qV2kpx1/G69tJmkcF2jafolPl3xufO71mfHvqms/p0Wlpa3zV10LmOpsLu7u5HH330p59+gvdP0mevjojLHEuqfonX72X6TXf4jhBIOJMhVE4jFI5A39WztiBSmLkld1ef2ul0WLOK1/oaJBYsItE51cd/NBrU//nomlK8WAIlZfpNfaUKAJA6YyWDF1f+2xfwrx0qXWu3JiGC2bcNBEGXOuUX26RXRPIGuVKuM/XrFY0bzYvPjsmcCVsxlOKGzurTPWpZiCvjXy8j1ueff/7QQw/BP8flzMsuuWuMN2w8v7/+7C8AgKe+uBpcYLM65aKAZsPRYVJ32f7IG+O0W6tObKNFxOYOMHR1t9d01pwxqqVup5POi42Iy4zJHNRZ2W4xVh75XtZcAf+aFMFK4PbKlt3lOl5/TZIjBAIZEZeFRGNYgiR2VBLtWr8Jl8N2/LtXzTrF448//uGHHwbvvf0w/oKlVqv//ve/f/755wAAJj8hZ9G6UadI8KEU1Z/d+e+ejyF/5k0P/u3qCQh0tio8IZsNe3Sprk6nrTfgx+mwNZzb4/a4C5c/EGB2v8FQiRubyw91t1X1i/igsCJJdC4zMp4eEYsn0Sks/mDrWYfNUrb7P2ppc05OTkVFRai9ssZZsPbu3bthwwalUknlCFOLVkQmBWH1azVpj/33Rdgd9MF3viNSrzr0QQCYdFZVt2HsTxkMj9utk7X2rYDSXn1K2lSeMn1FXwttmHG7nGd2vK2Vt0VFRV24cIHPH43H4ogYTx3r2LFjK1euhE1Ts9Y8G6DpaFgu7PkUlqqo5My+UgW8Me0UGkGvNV9rdwgmSBSKyOCaVDLfkbisORQGr+H8Xo2seebtz4TouUNTffxHrbwNALB169YwSNV4uia/+eabK1asAABkzl0z47angyRVUMWBLfBfsEewUvy5ziEAiRLa7X08mY69NskHOyo5c87tGnn771/8RdctCunT+wFBUM3JnR1VJ2k02rFjx+bMmROe547PVHjfffd98803GBxh5u3P0COGyQ8bODUnd7aU/47GYMkMlk4hv/eVT5l8P96SEASJWpUh1bS8WazaXddGZ9itprrS3WadInXGzbAHTqixW4zlv21WdtZRqdRff/01DOGEPsZhxFqzZg1s/Jx286NBlKqutqqW8t8BAAWLV+sUcjKD5VeqYM8qOjNopW8GgzBgExNHIOeW3E2PiG0o/fXcLx8GGKgzaqxG7fHvXoXT//3888/hlKpxEKwHHnhg586dBApz5ppn2cLUYN1WrxBdOvAVAECQlCFMnQIAyJjpt/5bL2Qqoa/bbijAkaj9crhhcWgSGT9j+Z2phcXdbVVndrwNB8SGApWk6dS2N2wmbXR09PHjx0tKSkL0oMEIq/K+Z8+ezZs348mM4rtfGF3Ey2Bc3L/ZYTMRyNRVj79Yc+YwACBr1uIh2iNRSDwRazGFNosBicnXyVoxWBSBiMNgUYg/ZDlt6jwqk1txbPe5nz8QpBQWLN8UoDNqgLRdPlZ9YjvkccfGxp47d47HG8pTOUSET7AuXbq0bt06LJ48987ngytVzRcOeCNhEMsf/BsWT5S3NVBZXApzKHc5BAJQ6cTQCRYGi8LhMSQKnUaFLDr1wAaCxAwCmXbl5D5p40W9QpRYsDgyOX+Mtek8bpe85UpLxSF4+fLEE0+88847vny+YSZMyvuVK1fmzZtnNFvn/L+/0gIIowuc7o6ast0fe9zOFQ8/n5hbBAD47tXHWZHRyzY+O8yVEJCLNTbroMW9RwEOj6HQCHgiFoPx7mF7B6iuliabuf9Oi4/OhivVp39zOuwoDI4dlcyNyYiIz+rrOjY0VqNGI2/TdXdq5e0qSSPwfprZ2dnvv/9+mJWqfoRpxHrsscd0Ot2U+Xf6lSqP261XiOi82JEaHewWw8W9n3nczvSi+bBUQR6PStIB/zwMCEChE21W/Yie6BcMFkWi4Kl0IgqFhED/ak6MSIG8edB6uzGpOZFxqXUXjnXUVnS3V3e3V1ef+BEAEBGXxeDHU5g8ABAUdqQ31h7hctjU0maP262Vt2q7OjSyln53S0lJefXVV9esWTP2lxoj4RCs99577+zZs9zYTHh3vS9aeXt96a9KUR2cb4NE53Ki01Jn3DxsMUGYK4e+dTlsBApt7ppN8JG2qosAADp3qEqTPsgUvE5tGrWxFIFEkMg4IhlHIuMhRG9G0YHfDByRRIvg6bsHrYSDweGzZy9LyZvd0VCvlLRouto8LicsZAH2ZO7cuTk5OatWrRrfUaovIReszs7O559/nh2VMmP1n/qdUokbz+/+iJ9ckH/TowgEwqsiVIjqSqWNF6eufHjYAJju9hp565WeP+vtG/Gk3rxWZoMWAEBh+Pd/HwibR5WL/NQjGRoUGkmhEegsUo84eUVp6JGWwYu0m80201D2BTyJEpOWzRKkAAgy6ZUGtcyglHg8bp1S1DfJu7ecfQyRxlGJG994/eWlS5empQ0fKRR+QqtjqdVqoVCIwJIWbXyz3ymHzXz6x7dSZq4eOP1J6s7Jmy9GJudPXfHw4PeGfvvkKYfVNOPmu6ctv+qasu/zN5srzvb1aBgaCACFVBe4Fk+m4RksMhqNGkaUBj4IgsS11Z5BMp360KqNLqf/ZEn0yHh0n9SSbZePVx3bWlFREbaIrhER2hHr8ccfd0HIWSsfhX912iyiutKu1kpdtwiCPDHZ8/0qVVHpRWQGt/nC/ksHvspbut7vnS///q3DauJGJ0xddo0+oVPIMbgR7NggAKAxAloekql4OouMwaJ6vokjN4EhEAheQqK8uXHobzKeiDPp/SRGIzK46GsTlsbnzpM2la9fv/7KlSsj7k3oCaGB9ODBg9u2bctZcA+NK5S3XD617Y39Hz/R1V7LS56aMnMVCoMbIiCCGz8ldcZKUV1pS8XhgWe1Xe2dNacBALNuva+faCrFbRExgxbM9QueiCWShkq5QaET4lIiODwaBosCA3TzwMESiJEpw0xbBAJ24P2JdK7fYMPZa5+tb2r74IMPRtmhUBIqwVKpVHfffTcvPttq0h7e8nzTxd/p/MS85Q/FZs/Dk2jdbZUD8575cDntDqs5tWhlRGxWzYntA9O81J3+uecrmz0tJt1fMrSRf/JMrv+1AomKF8Sy2PDZYBjqMTg8WzjMLhaeeI2Uk5gRRPqgNrm8Jfe/9NJLNTU1QehcUAmVYD399NNqtVopbujuqI3NXZhYuIwVlQKHsTvtVptRS6JzB7vWqJYCCHK7nJnFPdNc9YlrisB0Vp9WiurxJPKCux7xezk/vnenyGYZ1HrUDwwWxeFfI1tYPJoXxeDyaFgcOigi5YPMZPESkoaodUgk9U55aByBzo8fuOfYF178FGHukvnz519vE2JIBOuBBx747rvv+En5WSX3xGb3jyntbrtCGdJHlMzgSRvLkEgUhcWPTMqTt1y2/VE3y24xXj70DQBg/p0Pk+hMv5f7ouMvHw20nKR3cCIQyTj4ZyaHHBnDIhCxwRUpH3gyhZ+UihkkOQcSiSAQsQQam86PQwegLybmL0RS+Pfff38Iejp6gixYSqWyuLj4h117skrWRaXP9BsKYdErKeyhcn9hcESLXgXnYU/1FnlTdNTCp9qvHIc9+FIK/fgV9dOL688fD7znCAAYbDKeiOVFMagMEiJIc99gYHA4fmIyUyDEEq/5E6EwGDKTlZCbQ2IMOqIPJG/x/e1S9YoVK0ymQAfpUBNkwbr11lurmqXJ028erIyW1xOhc9j7sIRppT+9BwCgsgUsQVJXWxV8vO3KMQBA4VL/2Q1gx1GsN0un02HXK7tGZEzBYtH8KAaB6Ed9DgVIFJrK5kQmpQrTszgxcZyYOL73Z7YwhkAiwQuFAMERKdNWPbb/twPvvPNOKLs8AoIpWLfffvuVurbYnBL04JU8gHdgGfZWDH4cBHk6a87C2fQ13l1VRUetw2oSpmbHpuf2uRmkV/Xm9vS43V5ZjOjRzE4d9Pqblwfae+iPKIWwSFVfUBgMic4g0Rk43+iFAARiQLkhfRCprBm3Pf32v9+D02GOO0ETLI1Gs2vXrrjcBWgMbux384YxZbdcPAgbmm0mLQCg+eJBNAa7bOMzAIFQy0Sndn11cueW5oqzOGKvUwAKg/V+fckAgCvH99HYvH6JkId8pHc1GXapGgz8CAULAMARpiQULl+zZs3OnTtD06kREDTB2rx5My0idogZ0AeZyfcFSA0BMyrFqJEblBL4V21Xh1JUn1Y0X9Ml+fblR3/+4CVebPLc2zckF8zCE3v3czBewUIgEDazUa/s4goTmi+dHfObBR+Hzdpccbap/ExT+RlxQ5Xf+Vojax7FnRPySois6DVr1rz//vvB6OnoCZrl/ccffxwkaWx/8GS6QSHqVxViIHBCc6Omi0Bh9CzxDn7Vo2NVXmivLp+x8k7/DqJ/KEfS5joCmYYnUdTy4fW5MOByOtqrLnbWXdF2S1SSjn52ECorIjYzb+Yt63zfEBi9QjQKF6PCFQ8d/fofTz31FJVKXb/e/75FGAiaYF25ciVp+spAWnJislrLDwR+Z3h/zaCWUVncuWs2BuISoxC38uNSqKyI6jMHA39Q0IEgqPHiqbrSo511l+EjCASSxOBF8BJQmF41FPK4tfLWqpMHJE01617+2LeREBGTWHNu6ygEC4snzbvnpZPb/rVhw4aysrK33nqLTh9+Ggk6wdwrDNAvlMzkIZAojbSZKRhqhLMar4mFn3P7hvyFq4a9OYnG0CvlapmYHTli767gYjHqf/ngJYWo1VtSkMSNm8KKSvWbVDIqfUb7laOqztqWy+eS8npz0GPxBJWoAYwqmAdPphUs23T6xze/+OKLxsbGEydOjPltRkwwV4WOADQnGHZ0WmfVCbtlqIhkRXs1GovnJfRWb89fMLxUAQAiE9ONWpXFoGXyovrNLOFEVH/lmxcfVohaGZFJKTNuyVm8ITK5cIhUpbAW0VpZ1vegWdc96g6wBIm5i++Dk2tOmzZNKpWO+lajI5iC5Q44vz4nJhOBRIlrBy187bCZFe2V3JgMuFIyVxhohuqo5EyryaCUtBPINDhg1RH4wjBIdHU0//TeP5x2e9K0FYmFS6mc4bM2kJk8b9KOa5wsWJFRcIGn0RGTOavwpgcBABcuXFi4cCGcvy5sBG0qXL169fHz1UPPbj4wOEJC/uLmsr3iulLhgAIkLqe99WKPEpY0dSlcRgZLIAZoCCBRmc0VZ2GDFsJLR3V5csEwhSeDy5HvPkKhsSkzbyHRA3VdH5jpGUYrb0MiUW6Xw2m36BXifmeJNDaRyiIzeXiS/6oTgpRCj9tdceDL+vr6RYsWHTp0iMsdgUF/LARNsF555ZWfMjM5sZnUIbdrYCCP26xXAgSiq7lCK23ixuewhaloLN7tcui7O8W1ZyCPq2j1UwxeLOy+zIsLtIJ8Qs60Q998QGfzvZF9pJiMPJW0I7iC1V5dHpdVMNhZWUu9UtyWULhsWKlCIJEEMp1AomIJJAQCWe7VqxTitq62Rk2XRCluU4rbJU1X3RZwRCqFyceTaWQGz+txSoPXyyZNFwKBxOCJfrMQCtOn03mxF/d9VllZmZmZeejQoZycUdbHGxFBE6yMjIyEhARR9cmM4juGjpKzWwxtlw6Z1LKIhBxeYn5n1QlxzSlxzSkSg2e3GFx2CwZP6ht67/G4uTGBet8iUShWZDTskoVEobjRidKWoOWt0ynlBza/g0KjhxAsUUMlGkdgRg7jE4bFExlcIRp71ZhMYUV21l6uPXvEd4RIZUUK0xj8OCKFRWHxR53dicLkzbzt6aP/fUmpVC5atKimpiYM41YwV4Xff/99UVFR3akdMVOK4W9VPyx6ZVfrFY20EUukJhQug//6SVOXm3VKWdMFnbyVJUiisgSsyAQq5+qwp5G28FbeEng3KCwOnkxBIJFYAlGQlH7ht+0upwONGbEhuy89E8qhXy4c2BmTkYsaZNqCqztBkIdAvsbtwqCS9BvF8SQaixfdz28sIW9hS/nvguQCdnQqhcmnsCLHUrCpHzgidcZtT5Xueg+WrTDMicEULLj6j0WnqD+1gxGZRGVH4SkMCPJYdEqLTmHWK+xmPYHKjs9bROcn9B23SXROXO6CarUMARACb4osq17t295n8Hg0dqDKCgAgLrPAbrNQOVwEAhHj3VWUtzUK/WaeCYyaM4fP/PINFk9Y+egLwpSsne8816+BStpRe+bIjFv8JIqVNpzvq7xbjVo0Bs0VJg30RoydMjt2yuxRd3JY6NzokvtePbvz35WVlVlZWZcuXRIIxprgbgiC7POem5tbU98UEZ8jayzT9t2UQCAYvPjorLn0iFj//cDgBGlFnZXH4F+tehUGT4Kz+Cs620x6DXkQ76uBpBfNV8lEVDYX1t+9mYy7RidYJq163xdvylsbEnOLFt//p35JtmGUko7z+7ateKhX2ogUet+ICVnjBUHqdIfVqOys03W18RNzkgqXBFIlNRTAThAnvn9NoVDcddddIbVvBVmwGAyG02Zmx6RzYjMteqXvOIXJRwyX4JrOYF2z//LHDlpc7vzKE/tnrhpB4mh25FWDNZ5E7mpvyhwyR4hfOmoqfv/vBy67beG6JzJn+b/8/L5tXR3NS9Y/7TsSmZhu1n0GJ/TWylrxZHpz2V5dV3vqjJtzF9yF8Sea4YREY2cVr7108KuTJ09u2LBhy5YtIXpQkP2x4Lxe+u5ONAZHZUf5/g0rVT3Dw7VOatg/zJvMyPgRuez1Q5iare2SjOgSCIKOb/v8lw9fJpAo617+uJ9UwbG1Lqfj5w9e6m5vWfHQc30tseyoWDqXL6k9K20skzScs5l0bqd98QP/l1q0YtylCiY6Y0bazFUAgK+++uqXX34J0VOCLFhr167tUSzqz40iXNFu1gMALh7Y3F59Com6msqCyhIYNcpRd4kjjO/ubA3ECQzGatRvf+vZK8f3JeXOvP2ZNyis/rGvWoXMYtT/9O4LdBZ/yYY/wyZcAIC4sXrf529+9dwGnUKm6+6w6JURcdkpM29Nn7u2X4K/cSdl+k1srxPA008/HaKi9qiXX345iLdjs9kUCuXAb/uQKAyFFVCcey8Q1FrxO5UtYEYmy1oqHDazIKXwjzOexnN7i1bcOboukWiMS4d/4cWnMAKIu688vn/PJ//0eDxFN91VtPIOX4B1X9qrLp7bszV9+oKpy2+DXfPkbY27/v33S0d2W4wmZlR6QsFiflIBS5BMYkTgiFQIgkw6FQqNwY6TauUXbmyGqK5UrVJ0d3fDmWCDS/CDKf785z9nZWVJG87brSPIWKeWNjttJmZUCi8xNyp9pqy5Qi1thU9ppK0EyujrGTO4kYwIQWftpWFbntyx5di2z8h09pxbN2TNXYwl+J+5kvJn3fX395PzZ8ANzAbtT++9oFPIotJnZpXcw0vMhQsU9kOnkLhcjlG/RdDBk+m5i+8HAHz55Zdnzwbfay0kUTqfffYZ5HE3n9sTYHVuj9slbThPZglYgmTvlykLhcZ2VPWuWVovH82avWgs/eHHp9aePeJ0DBrurFd17XznuUtHdifnzZp587qYrBw0dlC7V8685Xgyhc7rHf/2f/6Wx+1JmXkrP2mYaj86Rbh3goeGn5AdnzMfAHDLLbf46j8Gi5AI1owZM9avX281qsW1ZwJpL6k/53bakqb2FopBIBAUJk/acKFHcakv08qackvGlCE9IWe6w2aRt/nPJWQx6H5881lJU01+ya0ZRQsFyWlY/DBzlq+BpLFa2lzLS8wLZCPLbjG6XcFMxzV2UrxuOUqlcuvWrcG9c6gCVj/44IPi4mKVqE5UfXKIv6bbaW+t+F3RVpk4dXnfEAw8geDxuFsrjlQe+XbFw88TxzAVel0eMlBoTNPFUwNPydubdv77eTQGO3f1xtiMPH5SKp48AkVb2lLfs7zgBpqid0TqQRjAESlx2cUAgLfffju4dw6VYJHJ5KNHjz788MPdbZUNZ3bpFVeTm3s8bpNGrpW1dFadqD72vUEhSpl5K4V11QoMQZBK3olAILSymvtf/0KQlDHGzuBJlIyZCzrr+8cKXzry649v/BmJQM2+ZT1bEMdLSMIRR2YRUEravOuDQLMmWQxBnnHGTtLUJXC2qePHR2/TGUgIs80gkchPPvkkPz//mWeeaTq3G4fDxcbGdnZ2+ta3KAyWl5DLTyroZ+VStFe5HLZlm/6SUhi0LY6ceTdVnTygFLdzhL0lkM/t+eH8vm2ChIypS9YgUejI5NQh9KrBgFNeIQKuS2O3Xi8BpT6IVDZbmKoSN3z22Wfz5s0L1m1Dnnhtw4YNCxcu3LJly6uvvtrY2EjlCOlRXDyZjiPRyEz+QE8Po1oqrT8XlZyVUhDMjTNWZDQnKq6t6gJHGGezmI5891FzxdnUwuK0qfO8eRkTRiFVcBmmkV4CeTyBC2IYcNosWcVrj3/3ypkzASnEARKON4yOjn7llVeOHz+OwWCQaExkSiEnJoPKjhooVRppU8OZnygszopHng96iF/ugpWXj+5Vy0Tb3/prc8XZqYvXwFLFFsbgSKNMV0xhcgaG9g+Ne7jca2Hm+PevOewWMj1CJpPt27cvWLcN31enuLh48+bNOnlb9ZFvNVI/QXNKUV1r+UEUGjvrtsdwhOC7q6dOKwYA+vblRzVy0bSl/0+QmOF1ko4jM4epgz8EXGEC7A4U+CVjdOAJOkQK8+yOt0l4JJzSLFi3DeuYfO+99x49epTNpLWWH6g7+aOys9bjdkEQZNLIW8sPdFw+gkJj59/3Cj0iOhThNSgUOrt4OQBg8f1/Ssqf6fXcYpPojLHckxud4PXhlAfYPhRfmDHC4MW99tpr3V09r7B9+/Zg3XZ8ijT9+9///te//qXR9C92Gjtlbs7Ce0gUHJdPD0W0u8WolzRWJxfMsplNGol42Px6wwNBn/35biSakD537bBtnXYLOzIu8Bzu4aGhdM+cLB4Khfr0008BABKJJCh+WuNWCNNkMm3btq21tdVut7tcLrhE8bx1L9M4UXgChi9khjqNgsvhGJ3C3o/jP35x5dheQWpR5B+bm34xqCQ6eWvRLY+P/YnBpaF0D0LXXFpaGhsbq9frjx8/HpSc3uNWCJNMJm/a1JucfePGjQAAYcYM2h8eyaPKHzsygiJVAIDZt97XUVMubTjndFhisvwU3DeoJPKmi2adct7dLwTliUGnvr6eTqf/9NNPCxYsCNY9x7+KvdVq3b17NwAgY/Zq+IjL6b5ukr4MDxqLXXDP47v+/byirdKkkTMjk8hMPoHMcDqsuq52rbzVrO1C44ipM2/BDRKkdZ1QUlLy+ONBG1DHX7D+9a9/qdVqYXqRLzjO5fKf6Py6RZiSdcfz7x7+5kOVtMOi6x8XyhKmCTNmYnBEm9U0Xk7JQwCb4qRSqUAg+PDDD+XyQBciQzPOgiUSiV5//XVv1vJrCupBwFdD5MaAF5t094sfSppqFJ0tZoNW0lijlouFmXOo7CjsHytBm9lAoQe6+RM29N2d8JYOrLMHq2L0OAvWG2+8AYfUwbGpPmxW50hT2o07CARCmJIFR20YNcpvXnrEaTVh+9gXHFazw2YeY+24YFF9/MfEgkUECtOglnptMSPITBkI47m3oNPpduzYAQBIKuyf893lDFWV+fBAYXLm3fGgpL5U2nDe47n6Lmp5Bxz+P45YjZrzuz9StV6sPrHD43Y7vNuXQa+bMp6CtXPnTo1GgyfThWnT+52yWRxgfMwgQSNjxoLpK+6UNV5oKz/os+l43G6Trn89hHBiUMmOf/caxqHev3+/rKm8qWw/AEAgEAS9XuZ4Ctbnn38OAEifvXrgpqzDdn05xI2OohV3eHNPtFYd+a+yswYO6DDplePi4+CwmetL95z+8Y3phbnl5eUzZ84UCAStlw4DANatWxf0x42bYL377rsVFRVUdlR0up8MfQ6H2+G4vjZrRw2FHUXjxnRWnqg8/N/OqpNaWata3jm6rWiLwU8V4GGBIKj10pEjX/298dyeBzauP3r0KBxf/9xzz8EJzB9+eIgqa6NkfCzvarU6JSVFrVbnL9skTJvmtw07gkKhXxeBeGPhvQdWkFmRabNuc9otXS2X7Ra9w2IECASFxc9deM9Ia2NXn9iRVTyC6qmQx9Ny6XD9mV88bheHw/nhhx/6mkDlcnlkZGR6enptbe2IuhEI47Mq/Omnn9RqNZ5E58VPGayNXmsh04k3ksnBH9zoeJVMDJfbEGbM9B2ncyJHKlXiunNw6OWwuBy2rtZKRWettLHc7XIgEIhHHnnk1VdfZbGu8ePg8/lTpkx56qmnRtSNABkHwXI4HP/6178AAIkFC4cwGDodbpvFccMZHfoRk5GnELUZlJK++XOGyLQ2BC0Vhwf7Hno8bo2sTSNtthjU3R011j9mzBUrVqxateree+8dzJpwn5eR9iQQxkGwXnzxxc7OTgAQQn/aVV8MWsuNLliCxIyLYJeio6qfYI0UvUqiV4h8dhkIggxKiVEjV4rqjWqZRtbat3FeXt66detuu+22Yf0UQjRcjYNgiUQieDGYMWf1sHOBzeJwuzwo9HXkyDtSYjPzKUyOVtZitxj6vq/NYiIEUGzBx+UDXwMAWisO157+yepPhWexWEuWLJk6deodd9zB4Yy/fT/cgrVr1y6dTkekshILFg/b2OOBdBoTi0O9oXZ3rgGBQMRm5lefOqiRNveNaLWZh8oY3Y+qY9t03spW2q72fqdycnLuvPPOwsLC66d+PUxYV4UejyciIkKlUqXPujV52rIAr4qKY4+oFNb1hk4h//qFB5BoTPqctQTK1SxfVDZ/2K1DCIJqTuyArU0oDM7ttM+cOXPBggUcDmfatGkFBYNmrBx3wjpibdmyRaVSYQnk2OwRfL1UXXp+dKBZ165D6Fz+4vuf+v3r95rP7xFmzmbw4uF0fgaVHHg8ZAbXb6EDo1ourjsnqiuFi4DmLrqPKUg4+vU/PB7Pc889h8MFoRJWSAnriJWenl5fX59ZvDYxf2Rp0ASxLCxu/D18xkLpnq1l+34EABCoLAqTT2YJEAik3aJ32sxEClOYPp0ZmeC0WzWyFmVnvVLc4AvxxRLIU1c+wo5KBgBc2PuZrKn8ySefHPcaTMMSPsHas2fPzTffTKCwFm18Y6SBdeFxVg411ad/rz17RN7W0PcgPSIWhcGqJU39GmPwJJYgiZ+Yw0/I8blI2C2GE1v/aTWo//SnP73zzjtBd0kIIuETrOjoaLFYnDHntoG+DIHA4dPIFPyNLlvekAq7qOGK2WiBEFRvhm0EbIhSdNS6nb15jghUJoMX53eKVIoazu58BwDwwgsvvPbaa2HvfqCESbBOnDgBh28ve/SD0TkkIVEIXhQDhw/yJnz4gaAeFUsm0tito9xov3Twa1HtWQDApk2b/u///m9cinsNS5hMRF9//bW3SkLRqN3cPG5IKTe43TeY17JfrBbHqKUKAJC35P7UopVw8dGSkpKgp7YKCuEYsVwuF+zuM+3mx/iJY6q3QaLguXzaDT0hul0eUevoU6r6kNSfL//tSwBAamrqoUOHhMLhS0GFk3CMWHBSLyKV5asRN2rMRptWfd0lbBkBENBrLUG5U1Ta9KJbnsTgCA0NDfn5+WVlZUG5bbAIh2DB/sfps28LSmVKndqslOtvUP9Srdqk1wRa1XFYIuKz5q17hcYRKpXK6dOnv/TSSyFKgTwKQj4VQhBEpVJNJtPNT28OYslTOotEZ5HHtYTqiLGY7N3S4OtDdovx9I9vmrTdAIA1a9YEMf/CWAj5iPXzzz+bTCZBckFwC+nq1GaNYgTbbeMLBAG71amQB+RNNVJwRMqC9f+MzZoDTw5r1651j3e8RjgE68CBA7AZMOh3NuisWpVpnFJPjAy3y90l1UKeEPY1Z9G6jDm3wbI1e/bsgQlXwkw4RiwAADmApMKjQKc2d4k1brfn+lW5IGC3OaWdao875F1MKlySt/h+gECcO3du4cKF42uGCK1gORwOrVbrTWPn7u5sNBuC/zWyWZ2SdpXN6rg+RctktHWJtWGQKjhYnsKNSZp6EwqNvXTpUnFxcZjrQPcltIIlEongbS8EAuFy2nUKiVre4R5QoAGCPNbAvLn94nFDcrFWKdO5XZ7raGaEgFZlUsr1nlDOgD7MBo1C1GQxaOi82NylG7EEcmVlZX5+/njJVmhdBuAME31LFNnMhi6zgUChk+kcuLaMw2bWKaQulwMbQxqseGkgmI12q1lFZ5HINAIKiRxHIyoEAbfbo1ObjDpr2B5KINEgjsdps5LpHAwOT6IySne9K5FIFi1adPjw4fD7lIZ2xMJ6c1ANTGJrNeqU4mYIgtwup1re4XTYII9HIWr0jC3xq8cDaZQmSZtKqzZ5wq94Qd4HQsCgM0s7VOGUKrgANpnGZkQIMTg8nAByxuqnkCh0ZWVlcXFx+PWt0ApWcvJQ1ecdNjMKjWFHxiO97h8et1vTLR77Qz0eSKc2d7YotWqTy+nu+bxDLGEQ1CvDNotD0qHSKEzhUaqGhsGPL777RQAQdXV1f/7zn8P89JAbSBEIBIkRkT7HT4pOOjeKRGX2DGAmvaart7oqhcmlMnkAAIOm22m30rlRY5kfexakNAKegCGScUgkMsgGVVieEAAB9SjpRp3FNoat5WCh6RZbjVoUBovDkzB4gqzhYt2ZnwAA+/fvX7YsUHfwsRNyc8O0adPMXqPwQHwBBQQyzTduGTUKs14NAKAyI4hUJlzOdCyY9FZVl0HUopSLNSaDDfL0fpVG/YXqeyEC0XN/UZtSKdePl1RZTddMc3aLwVukyGExavVKGYkVyeAnwCGEEsnIKs2OhZD7+95+++1lZWUOmwmL75+JGk4cAIMjkvlx/WvmEEgjixUeGrvVqbTqlQBgcWgiGQcQAIdDA8iNwaK8RckRCCSi5z8S4R1nvYMbLEMI0Fddgzwem93lsDkddpfFZA/Pom8w5G21Ho9LkNjrkmU16QekSULE5S2ynd6pVCrhdOjh6dj/DwAA//+aiWEothgGbAAAAABJRU5ErkJggg==;" vertex="1" parent="1">
          <mxGeometry x="480" y="690" width="40" height="40" as="geometry" />
        </mxCell>
        <mxCell id="CaZW2Dd4cFp9OG85ohZh-84" value="4" style="ellipse;whiteSpace=wrap;html=1;aspect=fixed;" vertex="1" parent="1">
          <mxGeometry x="530" y="670" width="30" height="30" as="geometry" />
        </mxCell>
        <mxCell id="CaZW2Dd4cFp9OG85ohZh-88" style="rounded=0;orthogonalLoop=1;jettySize=auto;html=1;exitX=1;exitY=0.5;exitDx=0;exitDy=0;exitPerimeter=0;entryX=0;entryY=0.5;entryDx=0;entryDy=0;fillColor=#dae8fc;strokeColor=#6c8ebf;" edge="1" parent="1" source="CaZW2Dd4cFp9OG85ohZh-85" target="CaZW2Dd4cFp9OG85ohZh-50">
          <mxGeometry relative="1" as="geometry" />
        </mxCell>
        <mxCell id="CaZW2Dd4cFp9OG85ohZh-89" style="rounded=0;orthogonalLoop=1;jettySize=auto;html=1;exitX=1;exitY=0.5;exitDx=0;exitDy=0;exitPerimeter=0;entryX=0;entryY=0.5;entryDx=0;entryDy=0;fillColor=#dae8fc;strokeColor=#6c8ebf;" edge="1" parent="1" source="CaZW2Dd4cFp9OG85ohZh-85" target="CaZW2Dd4cFp9OG85ohZh-1">
          <mxGeometry relative="1" as="geometry" />
        </mxCell>
        <mxCell id="CaZW2Dd4cFp9OG85ohZh-90" style="edgeStyle=orthogonalEdgeStyle;rounded=0;orthogonalLoop=1;jettySize=auto;html=1;exitX=1;exitY=0.5;exitDx=0;exitDy=0;exitPerimeter=0;entryX=0;entryY=0.5;entryDx=0;entryDy=0;fillColor=#dae8fc;strokeColor=#6c8ebf;" edge="1" parent="1" source="CaZW2Dd4cFp9OG85ohZh-85" target="CaZW2Dd4cFp9OG85ohZh-3">
          <mxGeometry relative="1" as="geometry" />
        </mxCell>
        <mxCell id="CaZW2Dd4cFp9OG85ohZh-91" style="rounded=0;orthogonalLoop=1;jettySize=auto;html=1;exitX=1;exitY=0.5;exitDx=0;exitDy=0;exitPerimeter=0;entryX=0;entryY=0.5;entryDx=0;entryDy=0;fillColor=#dae8fc;strokeColor=#6c8ebf;" edge="1" parent="1" source="CaZW2Dd4cFp9OG85ohZh-85" target="CaZW2Dd4cFp9OG85ohZh-80">
          <mxGeometry relative="1" as="geometry" />
        </mxCell>
        <mxCell id="CaZW2Dd4cFp9OG85ohZh-92" style="rounded=0;orthogonalLoop=1;jettySize=auto;html=1;exitX=1;exitY=0.5;exitDx=0;exitDy=0;exitPerimeter=0;entryX=0;entryY=0.5;entryDx=0;entryDy=0;fillColor=#dae8fc;strokeColor=#6c8ebf;" edge="1" parent="1" source="CaZW2Dd4cFp9OG85ohZh-85" target="CaZW2Dd4cFp9OG85ohZh-58">
          <mxGeometry relative="1" as="geometry" />
        </mxCell>
        <mxCell id="CaZW2Dd4cFp9OG85ohZh-85" value="" style="outlineConnect=0;dashed=0;verticalLabelPosition=bottom;verticalAlign=top;align=center;html=1;shape=mxgraph.aws3.management_console;fillColor=#D2D3D3;gradientColor=none;" vertex="1" parent="1">
          <mxGeometry x="160" y="558.5" width="80" height="83" as="geometry" />
        </mxCell>
        <mxCell id="CaZW2Dd4cFp9OG85ohZh-87" style="edgeStyle=orthogonalEdgeStyle;rounded=0;orthogonalLoop=1;jettySize=auto;html=1;exitX=1;exitY=0.5;exitDx=0;exitDy=0;exitPerimeter=0;fillColor=#dae8fc;strokeColor=#6c8ebf;" edge="1" parent="1" source="CaZW2Dd4cFp9OG85ohZh-86" target="CaZW2Dd4cFp9OG85ohZh-7">
          <mxGeometry relative="1" as="geometry" />
        </mxCell>
        <mxCell id="CaZW2Dd4cFp9OG85ohZh-86" value="" style="outlineConnect=0;dashed=0;verticalLabelPosition=bottom;verticalAlign=top;align=center;html=1;shape=mxgraph.aws3.mobile_client;fillColor=#D2D3D3;gradientColor=none;" vertex="1" parent="1">
          <mxGeometry x="178.5" y="894.25" width="43" height="71.5" as="geometry" />
        </mxCell>
        <mxCell id="CaZW2Dd4cFp9OG85ohZh-93" value="" style="image;sketch=0;aspect=fixed;html=1;points=[];align=center;fontSize=12;image=img/lib/mscae/Docker.svg;" vertex="1" parent="1">
          <mxGeometry x="580" y="429" width="50" height="41" as="geometry" />
        </mxCell>
        <mxCell id="CaZW2Dd4cFp9OG85ohZh-94" value="" style="image;sketch=0;aspect=fixed;html=1;points=[];align=center;fontSize=12;image=img/lib/mscae/Docker.svg;" vertex="1" parent="1">
          <mxGeometry x="340" y="984.5" width="50" height="41" as="geometry" />
        </mxCell>
      </root>
    </mxGraphModel>
  </diagram>
</mxfile>
